<?xml version="1.0" standalone="no"?>
<!DOCTYPE svg PUBLIC "-//W3C//DTD SVG 20010904//EN"
 "http://www.w3.org/TR/2001/REC-SVG-20010904/DTD/svg10.dtd">
<svg version="1.0" xmlns="http://www.w3.org/2000/svg"
 width="256.000000pt" height="256.000000pt" viewBox="0 0 256.000000 256.000000"
 preserveAspectRatio="xMidYMid meet">
<metadata>
Created by potrace 1.11, written by Peter Selinger 2001-2013
</metadata>
<g transform="translate(0.000000,256.000000) scale(0.100000,-0.100000)"
fill="#000000" stroke="none">
<path d="M1160 2524 c-98 -13 -210 -38 -288 -65 -430 -151 -744 -520 -823
-969 -17 -96 -17 -324 0 -420 91 -513 486 -915 998 -1017 121 -24 357 -23 473
1 506 108 887 491 987 993 23 119 23 347 0 466 -100 502 -493 896 -989 992
-83 16 -293 27 -358 19z m316 -89 c235 -38 453 -152 630 -329 227 -227 344
-508 344 -826 0 -318 -117 -599 -344 -826 -227 -227 -508 -344 -826 -344 -318
0 -599 117 -826 344 -227 227 -344 508 -344 826 0 318 117 599 344 826 174
173 395 290 621 328 109 19 291 19 401 1z"/>
<path d="M1180 2017 c-30 -13 -163 -83 -295 -154 -257 -139 -316 -183 -334
-250 -15 -51 -15 -625 0 -677 19 -69 76 -111 375 -271 l279 -150 75 0 75 0
285 154 c157 84 298 165 314 180 63 58 66 73 66 426 0 353 -3 368 -66 426 -16
15 -156 95 -312 179 -263 142 -287 153 -345 157 -50 3 -73 -1 -117 -20z"/>
</g>
</svg>
