<svg xmlns="http://www.w3.org/2000/svg" xmlns:xlink="http://www.w3.org/1999/xlink"><symbol id="bottles" viewBox="0 0 24 24"><path d="M0-234zm0 0zM20.4 0h-4c-.2 0-.4.2-.4.4v1.2c0 .2.1.4.3.4l.4.1c.3.1.6.2.9.4v.1c0 .8-.4 1.5-1 1.9l.4.6c.6-.4 1.1-1 1.3-1.8 0 .1.1.2.1.3 0 .2.2.3.4.3h.8V5l-1.1 3.6.8.4 1-3.4h1.8l.7 4v9.2c0 .7-.5 1.2-1.2 1.2h-1v.8h1c1.1 0 2-.9 2-2V9.6v-.1l-.8-4.4V4h.8c.2 0 .4-.2.4-.4 0-2-1.6-3.6-3.6-3.6zM22 4.8h-1.6V4H22v.8zm.4-1.6h-3.3c-.4-1-1.2-1.7-2.2-1.9h-.1V.8h3.6c1.4 0 2.6 1 2.8 2.4h-.8zM2 20.8h2.8V20H2c-.7 0-1.2-.5-1.2-1.2v-5.7c0-.4.1-.8.2-1.2l.6-2.2v-.2L.9 7.4c-.2-.6 0-1.2.5-1.6L3 4.5h3.7l1.2 1 .5-.6-1.2-1.1v-1c0-.1 0-.2-.1-.3l-.7-.7V.4C6.4.2 6.2 0 6 0H3.6c-.2 0-.4.2-.4.4v1.4l-.7.7c-.1.1-.1.2-.1.3v1L.8 5.1c-.7.6-1 1.6-.7 2.5l.7 2-.6 2c-.1.5-.2 1-.2 1.5v5.7c0 1.1.9 2 2 2zm2-20h1.6v.8H4V.8zM3.2 3l.6-.6h2.1l.5.6v.6H3.2V3z"/><path d="M7.2 6.8c0-.9-1.1-1.6-2.4-1.6s-2.4.7-2.4 1.6 1.1 1.6 2.4 1.6 2.4-.7 2.4-1.6zm-4 0c0-.4.7-.8 1.6-.8s1.6.4 1.6.8-.7.8-1.6.8-1.6-.4-1.6-.8zM4.4 13.3l.3-.8-2.5-.9h-.4c-.1.1-.2.2-.2.3v4.8c0 1.1.9 2 2 2h.8V18h-.8c-.7 0-1.2-.5-1.2-1.2v-4.2l2 .7zM15.1 13c1.1 1.5 1.5 3.4 1 5.1-.2.6.2 1.3.8 1.5.6.2 1.3-.1 1.5-.8.9-2.5.4-5.4-1.2-7.5l-.2-.2c-.4-.6-1.2-.7-1.8-.2-.6.4-.7 1.2-.2 1.8l.1.3zm.4-1.2c0-.2.2-.3.4-.4.2 0 .4 0 .5.2l.2.2c1.5 1.9 1.9 4.4 1.1 6.7-.1.1-.2.2-.3.2-.1 0-.3 0-.4-.1-.1-.1-.1-.2-.1-.3.6-2 .2-4.2-1.1-5.8l-.2-.3c-.1-.1-.2-.3-.1-.4z"/><path d="M7.3 23.8c0 .1.2.2.3.2h9.6c.1 0 .2-.1.3-.1l1-1.3c1.7-2.2 2.5-5 2.2-7.7-.3-2.8-1.7-5.3-3.9-7l-1.6-1.3V5.2c0-.2-.2-.4-.4-.4h-.4V3.2c0-.4-.4-.8-.8-.8h-3.2c-.4 0-.8.4-.8.8v1.6h-.4c-.2 0-.4.2-.4.4v1.5l-.5.6c-4 4.7-4.4 11.4-1 16.5zm3.1-20.6h3.2v1.6h-3.2V3.2zM8.9 7.8l.6-.7c.1-.1.1-.2.1-.3V5.6h4.8v.8h-4v.8h4.3l1.7 1.3c2 1.6 3.3 3.9 3.6 6.5.3 2.6-.4 5.1-2 7.1l-1 1.1H7.8C4.7 18.4 5.2 12.1 8.9 7.8z"/><path d="M11.4 20.8c1.5 0 3-.8 3.8-2.1.1-.1.1-.2.1-.3-.5-2.9-1.6-5.1-3.2-6.7-.1-.1-.1-.1-.2-.1h-.4c-2.5 0-4.6 2.1-4.6 4.6s2 4.6 4.5 4.6zm0-8.4h.2c1.4 1.4 2.4 3.4 2.9 6-1.1 1.5-3 2-4.6 1.2s-2.6-2.5-2.2-4.3c.4-1.6 1.9-2.9 3.7-2.9z"/></symbol><symbol id="canister" viewBox="0 0 24 24"><path d="M8.9 11.7h9.6c.4 0 .7.3.7.7v8c0 .4-.3.7-.7.7H17c-.2 0-.4.2-.4.4s.2.4.4.4h1.5c.8 0 1.4-.6 1.4-1.4v-8c0-.8-.6-1.4-1.4-1.4H8.9c-.2 0-.4.2-.4.4.1.1.2.2.4.2zM4.1 12.4v8c0 .8.6 1.4 1.4 1.4h10.2c.2 0 .4-.2.4-.4s-.2-.4-.4-.4H5.5c-.4 0-.7-.3-.7-.7v-8c0-.4.3-.7.7-.7h2.1c.2 0 .4-.2.4-.4s-.2-.4-.4-.4H5.5c-.8.2-1.4.8-1.4 1.6z"/><path d="M6.8 12.9c-.4.5-.2 1.1.2 1.4l3.1 2.1L7 18.5c-.5.3-.6.9-.3 1.4.3.5.9.6 1.4.3l3.8-2.6 3.8 2.6c.5.3 1.1.2 1.4-.3.3-.5.2-1.1-.3-1.4l-3.1-2.1 3.1-2.1c.5-.3.6-.9.3-1.4-.3-.5-.9-.6-1.4-.3L12 15.2l-3.8-2.6c-.5-.3-1.1-.1-1.4.3zm5 3c.1.1.3.1.4 0l4-2.7c.1-.1.3-.1.4.1.1.1.1.3-.1.4l-3.6 2.4c-.2.1-.2.4 0 .6l3.6 2.4c.1.1.2.3.1.4-.1.1-.3.2-.4.1l-4-2.7c-.1-.1-.3-.1-.4 0l-4 2.7c-.1.1-.3.1-.4-.1-.1-.1-.1-.3.1-.4l3.6-2.4c.2-.1.2-.4 0-.6l-3.6-2.4c-.1-.1-.2-.3-.1-.4.1-.1.3-.2.4-.1l4 2.7z"/><path d="M3 9.1c-.7.7-1 1.4-1 2.3v10.5C2 23.1 3 24 4.1 24h15.7c1.2 0 2.1-.9 2.1-2.1V2.1C21.9 1 21 0 19.8 0H11C9.8 0 8.8 1 8.8 2.1v2.1c-.7.1-1.3.4-1.8.9l-.1.1-.9-.9c-.6-.5-1.4-.5-2 0L2.1 6.2c-.5.5-.5 1.4 0 1.9l.9 1zm6.2-4.2c.2 0 .4-.2.4-.4V2.1c0-.8.6-1.4 1.4-1.4h8.8c.8 0 1.4.6 1.4 1.4v19.8c0 .8-.6 1.4-1.4 1.4H4.1c-.8 0-1.4-.6-1.4-1.4V11.4c0-.6.3-1.2.7-1.7l4-4c.5-.5 1.1-.8 1.8-.8zM2.6 6.7l1.9-1.9c.3-.3.7-.3.9 0l.9.9-2.8 2.9-.9-.9c-.3-.3-.3-.7 0-1z"/><path d="M11.4 4.7h8c.2 0 .4-.2.4-.4V2.9c0-.6-.4-1-1-1H12c-.6 0-1 .4-1 1v1.4c0 .2.2.4.4.4zm.3-1.8c0-.2.1-.3.3-.3h6.7c.2 0 .3.1.3.3V4h-7.3V2.9z"/></symbol><symbol id="cart" viewBox="0 0 24 24"><path d="M10.1 19c-1.2 0-2.1.9-2.1 2.1 0 1.2.9 2.1 2.1 2.1s2.1-.9 2.1-2.1c0-1.2-1-2.1-2.1-2.1zm0 3c-.5 0-.9-.4-.9-.9s.4-.9.9-.9.9.4.9.9-.4.9-.9.9zM17.5 19c-1.2 0-2.1.9-2.1 2.1 0 1.2.9 2.1 2.1 2.1 1.2 0 2.1-.9 2.1-2.1 0-1.2-1-2.1-2.1-2.1zm0 3c-.5 0-.9-.4-.9-.9s.4-.9.9-.9.9.4.9.9-.4.9-.9.9zM23.7 5.2c-.2-.3-.6-.4-.9-.4H4.5L4.1 3c-.1-.4-.3-.7-.7-.8L.8 1c-.3-.1-.6.1-.8.4-.1.3 0 .6.3.8l2.6 1.1 2.9 13.8c.1.5.6.9 1.1.9H21c.3 0 .6-.3.6-.6s-.3-.6-.6-.6H6.9l-.3-1.7h14.6c.6 0 1-.4 1.2-.9l1.6-8c0-.3 0-.7-.3-1zM21.2 14H6.4L4.7 6h18.1l-1.6 8z"/></symbol><symbol id="cart01" viewBox="0 0 24 24"><path d="M8 24c-1.7 0-3-1.3-3-3s1.3-3 3-3 3 1.3 3 3-1.3 3-3 3zm0-4c-.6 0-1 .4-1 1s.4 1 1 1 1-.4 1-1-.4-1-1-1zM20 24c-1.7 0-3-1.3-3-3s1.3-3 3-3 3 1.3 3 3-1.3 3-3 3zm0-4c-.6 0-1 .4-1 1s.4 1 1 1 1-.4 1-1-.4-1-1-1zM19.4 17c-.1 0-.1 0 0 0H8.8c-1.5 0-2.8-1.1-3-2.6L4.2 2.9c0-.5-.5-.9-1-.9H1c-.6 0-1-.4-1-1s.4-1 1-1h2.3c1.5 0 2.8 1.1 3 2.6L6.5 5H23c.3 0 .6.1.8.4.2.2.2.5.2.8l-1.7 8.4C22 16 20.8 17 19.4 17zm-.1-2c.5 0 .9-.3 1-.8L21.8 7h-15l.9 7.1c.1.5.5.9 1 .9h10.6z"/></symbol><symbol id="chemistry" viewBox="0 0 24 24"><path d="M21.5 12c0-6-1-9.5-1-9.5l1-2.5h-19l1 2.5s-1 3.5-1 9.5 1 9.5 1 9.5l-1 2.5h19l-1-2.5s1-3.5 1-9.5zM6.5 1c0 .3.2.5.5.5s.5-.2.5-.5h1c0 .3.2.5.5.5s.5-.2.5-.5h1c0 .3.2.5.5.5s.5-.2.5-.5h1c0 .3.2.5.5.5s.5-.2.5-.5h1c0 .3.2.5.5.5s.5-.2.5-.5h1c0 .3.2.5.5.5s.5-.2.5-.5H20l-.6 1.5H4.6L4 1h2.5zM4 5.2c.1-.7.2-1.3.3-1.7h15.4c.1.4.2 1 .3 1.7.1.7.2 1.7.3 2.8h-3.8c-1.1-1.2-2.7-2-4.5-2-1.8 0-3.4.8-4.5 2H3.7c.1-1.1.2-2.1.3-2.8zM17 12c0 2.8-2.3 5-5 5s-5-2.3-5-5c0-2.8 2.3-5 5-5 2.8 0 5 2.2 5 5zM3.5 12c0-1.1 0-2.1.1-3h3.2c-.5.9-.8 1.9-.8 3s.3 2.1.8 3H3.6c-.1-.9-.1-1.9-.1-3zm14 11c0-.3-.2-.5-.5-.5s-.5.2-.5.5h-1c0-.3-.2-.5-.5-.5s-.5.2-.5.5h-1c0-.3-.2-.5-.5-.5s-.5.2-.5.5h-1c0-.3-.2-.5-.5-.5s-.5.2-.5.5h-1c0-.3-.2-.5-.5-.5s-.5.2-.5.5h-1c0-.3-.2-.5-.5-.5s-.5.2-.5.5H4l.6-1.5h14.8L20 23h-2.5zm2.5-4.2c-.1.7-.2 1.3-.3 1.7H4.3c-.1-.4-.2-1-.3-1.7-.1-.7-.2-1.7-.3-2.8h3.8c1.1 1.2 2.7 2 4.5 2 1.8 0 3.4-.8 4.5-2h3.8c-.1 1.1-.2 2.1-.3 2.8zm.4-3.8h-3.2c.5-.9.8-1.9.8-3s-.3-2.1-.8-3h3.2c.1.9.1 1.9.1 3s0 2.1-.1 3z"/><path d="M15 10.5H9c-.3 0-.5.2-.5.5s.2.5.5.5h6c.3 0 .5-.2.5-.5s-.2-.5-.5-.5zM13.5 12.5h-3c-.3 0-.5.2-.5.5s.2.5.5.5h3c.3 0 .5-.2.5-.5s-.2-.5-.5-.5z"/></symbol><symbol id="color" viewBox="0 0 24 24"><path d="M19.6 2.8h-2C16.7 1 15.5 0 14.2 0c-1.3 0-2.6 1-3.4 2.8-2.2.3-4 2.9-4 6 0 1.5.4 2.9 1.2 4.1-.5.6-.8 1.3-1 2.1-.1.4-.2.7-.2 1.1l-.3 1.2c-3.3.3-6.5 1.4-6.5 3.3S3.6 24 8.4 24s8.4-1.5 8.4-3.4c0-1.7-2.7-3-6.7-3.3 0-.3.1-.5.1-.8v-.2c.1-.5.2-1 .4-1.5h8.9c2.4 0 4.4-2.7 4.4-6s-1.9-6-4.3-6zm-5.4-2c.9 0 1.8.7 2.5 2h-5c.7-1.3 1.6-2 2.5-2zm-3 2.8c2 0 3.6 2.3 3.6 5.2S13.2 14 11.2 14H11v-.1c.2-.4.6-.8 1.1-1 .3-.2.5-.4.8-.6.1-.1.1-.2.2-.3.5-.7.8-1.5.9-2.4v-.8c0-2.6-1.4-4.4-2.8-4.4S8.4 6.2 8.4 8.8c0 1 .2 2 .7 2.9l-.1.1-.1.1-.3.3-.1.1c-.6-1.1-1-2.3-.9-3.5 0-2.9 1.6-5.2 3.6-5.2zm-1.4 7.6c-.4-.7-.6-1.6-.6-2.4 0-2.2 1.2-3.6 2-3.6s2 1.4 2 3.6V9.7c-.1 0-.2.1-.4.1-1.1.4-2.1.8-3 1.4zm6.2 9.4c0 1.2-3.1 2.6-7.6 2.6S.8 21.8.8 20.6c0-1 2-2.1 5.4-2.5 0 0 0 .1-.1.1-.3.6-1 1-1.7.9-.1 0-.2 0-.3.1 0 .2-.1.3-.1.4 0 .2.1.4.4.4h.3c.9 0 1.8-.5 2.2-1.3.2-.3.3-.6.4-.9.2-.5.3-1 .4-1.6.1-.4.1-.7.2-1 .2-.7.5-1.4 1-2 .3-.4.7-.8 1.1-1.1.9-.7 1.9-1.1 3-1.4v.2c-.1.2-.1.3-.2.5 0 .1-.1.1-.1.2-.1.1-.1.2-.2.3-.2.2-.3.4-.6.5-.6.3-1.1.7-1.4 1.3l-.3.6c-.3.6-.4 1.3-.6 2v.2c-.2.9-.3 1.8-.1 2.7.2.7.6 1.2 1.3 1.4.2.1.4 0 .5-.3.1-.2 0-.4-.3-.5-.4-.1-.7-.5-.8-.9-.1-.2-.1-.5-.1-.7 3.6.2 5.9 1.4 5.9 2.4zm3.6-6.6h-6.2c1.3-1 2.2-3 2.2-5.2s-.9-4.2-2.2-5.2h3.7c.5 1.3.8 2.7.9 4.1-.5.2-.9.8-.7 1.4.1.6.6 1 1.2 1s1.1-.5 1.2-1c.1-.6-.3-1.1-.8-1.3-.1-1.4-.3-2.8-.8-4.1h1.7c2 0 3.6 2.3 3.6 5.2S21.6 14 19.6 14zm-1.2-5.6c.2 0 .4.2.4.4s-.2.4-.4.4-.4-.2-.4-.4.2-.4.4-.4z"/><path d="M8.8 21.6c-3.4.4-5.3-.7-5.4-.7-.2-.1-.4 0-.5.1-.1.2-.1.4.1.5.1 0 1.6.9 4.4.9.5 0 1 0 1.5-.1.1 0 .3-.1.3-.2.1-.1 0-.3 0-.4s-.3-.1-.4-.1z"/></symbol><symbol id="drill" viewBox="0 0 24 24"><path d="M2 9.7h.4v5.5l-1 2.1c-.1.2-.2.5-.2.7v2.1c0 .9.7 1.6 1.6 1.6h8c.9 0 1.6-.7 1.6-1.6v-2.4-.2s0-.1-.1-.1l-2.2-2.2c-.2-.2-.5-.4-.8-.4h-.9c-.2 0-.4-.2-.4-.4V12h.4c.7 0 1.2-.5 1.2-1.2V9.7H14c.5 0 1-.3 1.1-.8h2.1c1.1 0 2.1-.6 2.5-1.6h3.1c.7 0 1.2-.5 1.2-1.2s-.5-1.2-1.2-1.2h-3.1c-.5-1-1.4-1.6-2.5-1.6h-2.1c-.1-.5-.6-.8-1.1-.8H2c-1.1 0-2 .9-2 2v3.2c0 1.1.9 2 2 2zm8.8 11.2h-8c-.4 0-.8-.4-.8-.8V18c0-.1 0-.2.1-.4l.8-1.6 1.8 1.8c.2.2.5.4.8.4h6.1v2c0 .3-.4.7-.8.7zm-2.4-5.2h.9c.1 0 .2 0 .3.1l1.5 1.5H5.5c-.1 0-.2 0-.3-.1l-2-2V9.7h2v3.2c0 1.1.9 2 2 2h.1c.1.5.6.8 1.1.8zm-1.2-6v4.4c-.7 0-1.2-.5-1.2-1.2V9.7h1.2zm1.6 1.2c0 .2-.2.4-.4.4H8V9.7h.8v1.2zm14.4-4.8c0 .1 0 .2-.1.3-.1.1-.2.1-.3.1H20v-.4-.4h2.8c.2 0 .4.2.4.4zm-4.1-.7c.1.2.1.4.1.7 0 .2 0 .5-.1.7-.2.7-.8 1.1-1.5 1.3v-4c.7.2 1.3.7 1.5 1.3zm-2.3 2.7h-1.6v-4h1.6v4zM.8 4.5c0-.7.5-1.2 1.2-1.2h12c.2 0 .4.2.4.4v.4h-.8c-.2 0-.4.2-.4.4s.2.4.4.4h.8v.8h-.8c-.2 0-.4.2-.4.4s.2.4.4.4h.8v.8h-.8c-.2 0-.4.2-.4.4s.2.4.4.4h.8v.4c0 .2-.2.4-.4.4H2C1.3 8.9.8 8.4.8 7.7V4.5z"/><path d="M2.4 4.4H4c.2 0 .4-.2.4-.4s-.2-.4-.4-.4H2.4c-.2 0-.4.2-.4.4s.2.4.4.4zM2.4 6H4c.2 0 .4-.2.4-.4s-.2-.4-.4-.4H2.4c-.2 0-.4.2-.4.4s.2.4.4.4z"/></symbol><symbol id="horizontal-cards" viewBox="0 0 24 24"><path d="M8 2.8v4.4h16V2.7c-5.3.1-10.7.1-16 .1zM8 14.3h16V9.8H8v4.5zM8.4 17H8v4.4h16v-4.5h-.4c-5.1.1-10.1.1-15.2.1zM0 7.3h4.5V2.8H0v4.5zM4.4 9.9H0v4.5h4.4V9.9zM4.1 17H0v4.5h4.5v-4.4c-.2-.1-.3-.1-.4-.1z"/></symbol><symbol id="household" viewBox="0 0 24 24"><path d="M15.2 12H8.8c-.2 0-.4.2-.4.4v8.8c0 .2.2.4.4.4h6.4c.2 0 .4-.2.4-.4v-8.8c0-.2-.2-.4-.4-.4zm-.4 8.8H9.2v-8h5.6v8zM3.6 5.6c-.9 0-1.6.7-1.6 1.6 0 .9.7 1.6 1.6 1.6s1.6-.7 1.6-1.6c0-.9-.7-1.6-1.6-1.6zm0 2.4c-.4 0-.8-.4-.8-.8s.4-.8.8-.8.8.4.8.8-.4.8-.8.8zM2 .8c-1.1 0-2 .9-2 2s.9 2 2 2 2-.9 2-2-.9-2-2-2zM2 4C1.3 4 .8 3.5.8 2.8S1.3 1.6 2 1.6s1.2.5 1.2 1.2S2.7 4 2 4zM20.4 17.6c-.9 0-1.6.7-1.6 1.6s.7 1.6 1.6 1.6c.9 0 1.6-.7 1.6-1.6 0-.9-.7-1.6-1.6-1.6zm0 2.4c-.4 0-.8-.4-.8-.8s.4-.8.8-.8.8.4.8.8-.4.8-.8.8zM22 12.8c-1.1 0-2 .9-2 2s.9 2 2 2 2-.9 2-2-.9-2-2-2zm0 3.2c-.7 0-1.2-.5-1.2-1.2s.5-1.2 1.2-1.2 1.2.5 1.2 1.2S22.7 16 22 16z"/><path d="M18 9.9c0-.1 0-.1 0 0 0-.1 0-.1 0 0l-3.7-6c.1-.1.1-.2.1-.3V.4c0-.2-.2-.4-.4-.4h-4c-.2 0-.4.2-.4.4v3.2c0 .1.1.2.1.3L6.1 9.8V15.7c-.1 0-.1.1-.2.1-1.7-1.1-3.9-.8-5.1.8s-.9 3.8.6 5.1c.6.5 1.4.8 2.2.8.8 0 1.6-.3 2.2-.8.1 0 .1.1.2.1v1.8c0 .2.2.4.4.4h11.2c.2 0 .4-.2.4-.4V10v-.1zM6 20.8c-.2-.1-.3-.1-.5 0-1.1 1.1-2.9 1-4-.1s-1-2.9.1-4c.6-.4 1.3-.7 2-.7s1.4.3 1.9.8c.1.1.3.1.5 0v4zm4.4-20h3.2v2.4h-3.2V.8zm.2 3.2h2.8l3.5 5.6H7.1L10.6 4zm6.6 19.2H6.8V10.4h10.4v12.8z"/><path d="M2.4 17.2h.8v.8h-.8zM3.2 18H4v.8h-.8z"/></symbol><symbol id="lock" viewBox="0 0 24 24"><path d="M12 6.9c-.9 0-1.8.1-2.6.4V5.5c0-1.5 1.2-2.6 2.6-2.7a2.732 2.732 0 0 1 2.7 2.7c0 .4.4.8.8.8h1.3c.4 0 .7-.3.7-.7 0-3-2.4-5.5-5.4-5.5-1.5 0-2.8.6-3.9 1.6-1 1-1.6 2.4-1.6 3.9v3.5c-1.4 1.2-2.4 2.8-2.9 4.6 0 0 .1.3.4.3.3.1.5-.1.6-.3.8-3.4 3.9-5.8 7.4-5.8 4.2 0 7.6 3.4 7.6 7.6s-3.4 7.6-7.6 7.6c-3.5 0-6.6-2.4-7.4-5.8-.1-.3-.3-.4-.6-.3-.3.1-.4.3-.3.6.4 1.8 1.5 3.5 3 4.7 1.4 1 3.3 1.7 5.2 1.7 4.7 0 8.5-3.8 8.5-8.5S16.7 6.9 12 6.9zM8.9 2.2c.9-.8 2-1.3 3.2-1.3 2.4 0 4.4 2 4.5 4.4h-.9c0-.9-.4-1.8-1.1-2.4-.7-.7-1.6-1-2.6-1-1.9 0-3.5 1.6-3.5 3.6v2.2c-.3.2-.7.3-1 .5V5.4c0-1.2.5-2.3 1.4-3.2z"/><path d="M4 15.9c.3 0 .5-.2.5-.5S4.2 15 4 15c-.3 0-.5.2-.5.5s.2.4.5.4zM14.8 10.7c.1-.2 0-.5-.2-.6-2.3-1.1-5-.6-6.8 1.2-2.3 2.3-2.3 6.1 0 8.5 1.1 1.1 2.6 1.8 4.2 1.8s3.1-.6 4.2-1.8c1.8-1.8 2.3-4.5 1.2-6.8-.1-.2-.4-.3-.6-.2-.2.1-.3.4-.2.6.9 1.9.5 4.2-1 5.7-2 2-5.2 2-7.2 0s-2-5.2 0-7.2c1.5-1.5 3.8-1.9 5.7-1 .3.1.6 0 .7-.2z"/><path d="M16 12c.1 0 .2-.1.3-.1.1-.1.1-.2.1-.3s0-.2-.1-.3c-.1-.1-.2-.1-.3-.1-.1 0-.2.1-.3.1-.1.1-.1.2-.1.3s0 .2.1.3c0 .1.1.1.3.1zM12 18.6c-.3 0-.5.2-.5.5v.3c0 .3.2.5.5.5s.5-.2.5-.5V19c0-.2-.2-.4-.5-.4zM12.5 11.9v-.3c0-.3-.2-.5-.5-.5s-.5.2-.5.5v.3c0 .3.2.5.5.5s.5-.2.5-.5zM8.1 15c-.3 0-.5.2-.5.5s.2.5.5.5h.3c.3 0 .5-.2.5-.5.1-.3-.2-.5-.4-.5h-.4zM15.1 15.5c0 .3.2.5.5.5h.3c.3 0 .5-.2.5-.5s-.2-.5-.5-.5h-.3c-.3 0-.5.2-.5.5z"/></symbol><symbol id="mashine" viewBox="0 0 24 24"><path d="M0-234zm0 0zM22.9-231.8c0-.2.2-.4.4-.7.4-.5.7-.9.6-1.5-.1-.6-.6-.9-1.1-1.1-.3-.2-.6-.3-.6-.5 0-.1.1-.5.2-.8.2-.5.4-1.1.1-1.6-.3-.5-.9-.6-1.4-.7-.3-.1-.7-.1-.8-.2-.1-.1-.1-.4-.1-.8 0-.6 0-1.2-.4-1.5-.4-.4-1-.3-1.6-.2-.3.1-.7.1-.8.1-.1-.1-.2-.4-.3-.7-.2-.5-.4-1.1-.9-1.3-.5-.2-1 .1-1.5.4-.3.2-.6.3-.8.3-.1 0-.4-.3-.6-.6-.4-.4-.8-.9-1.4-.9-.6 0-1 .5-1.4.9-.2.3-.5.5-.6.6-.1 0-.5-.1-.8-.3-.5-.3-1-.6-1.5-.4-.5.2-.7.7-.9 1.3-.1.3-.2.6-.3.7-.1.1-.4 0-.8-.1-.6-.1-1.1-.2-1.6.2-.4.4-.4.9-.4 1.5 0 .3 0 .7-.1.8-.1.1-.4.2-.8.2-.6.1-1.1.2-1.4.7-.3.5-.1 1 .1 1.6.1.3.2.7.2.8 0 .1-.3.3-.6.5-.5.3-1 .6-1.1 1.1-.1.5.3 1 .6 1.5.2.3.4.6.4.7 0 .2-.2.4-.4.7-.4.5-.7.9-.6 1.5.1.6.6.9 1.1 1.1.3.2.6.3.6.5 0 .1-.1.5-.2.8-.2.5-.4 1.1-.1 1.6.3.5.9.6 1.4.7.3.1.7.1.8.2.1.1.1.4.1.8 0 .6 0 1.2.4 1.5.4.4 1 .3 1.6.2.3-.1.7-.1.8-.1s.2.4.3.7c.2.5.4 1.1.9 1.3.5.2 1-.1 1.5-.4.3-.2.6-.3.8-.3.1 0 .4.3.6.6.4.4.8.9 1.4.9.6 0 1-.5 1.4-.9.2-.3.5-.5.6-.6.1 0 .5.1.8.3.5.3 1 .6 1.5.4.5-.2.7-.7.9-1.3.1-.3.2-.6.3-.7.1-.1.4 0 .8.1.6.1 1.1.2 1.6-.2.4-.4.4-.9.4-1.5 0-.3 0-.7.1-.8.1-.1.4-.2.8-.2.6-.1 1.1-.2 1.4-.7.3-.5.1-1-.1-1.6-.1-.3-.2-.7-.2-.8 0-.1.3-.3.6-.5.5-.3 1-.6 1.1-1.1.1-.5-.3-1-.6-1.5-.2-.3-.4-.6-.4-.7zm.2 2c0 .1-.3.3-.7.5-.4.3-.9.5-1.1 1-.2.5 0 .9.2 1.4.1.3.2.7.2.8-.1.1-.4.2-.8.2-.5.1-1 .2-1.3.5-.3.4-.3.9-.3 1.4 0 .4 0 .7-.1.8-.1.1-.4 0-.8-.1-.5-.1-1-.2-1.4.1-.4.2-.6.7-.8 1.2-.1.3-.2.7-.3.7-.1 0-.4-.1-.7-.3-.5-.3-.9-.5-1.4-.4-.5.1-.8.5-1.1.9-.2.3-.5.6-.6.6-.1 0-.4-.3-.6-.6-.3-.4-.7-.8-1.1-.9-.5-.1-.9.2-1.4.4-.3.2-.6.4-.7.3-.1 0-.2-.4-.3-.7-.2-.5-.3-1-.8-1.2-.4-.2-.9-.2-1.4-.1-.4.1-.7.1-.8.1-.1-.1-.1-.4-.1-.8 0-.5 0-1-.3-1.4-.3-.4-.8-.4-1.3-.5-.4-.1-.7-.1-.8-.2-.1-.1.1-.4.2-.8.2-.5.3-1 .2-1.4-.2-.4-.6-.7-1.1-1-.3-.2-.6-.4-.7-.5 0-.1.2-.4.4-.7.3-.4.7-.8.7-1.3s-.3-.9-.7-1.3c-.2-.3-.5-.6-.4-.7 0-.1.3-.3.7-.5.4-.3.9-.5 1.1-1 .2-.5 0-.9-.2-1.4-.1-.3-.2-.7-.2-.8.1-.1.4-.2.8-.2.5-.1 1-.2 1.3-.5.3-.4.3-.9.3-1.4 0-.4 0-.7.1-.8.1-.1.4 0 .8.1.5.1 1 .2 1.4-.1.4-.2.6-.7.8-1.2.1-.3.2-.7.3-.7.1 0 .4.1.7.3.5.3.9.5 1.4.4.5-.1.8-.5 1.1-.9.2-.3.5-.6.6-.6.1 0 .4.3.6.6.3.4.7.8 1.1.9.5.1.9-.2 1.4-.4.3-.2.6-.4.7-.3.1 0 .2.4.3.7.2.5.3 1 .8 1.2.4.2.9.2 1.4.1.4-.1.7-.1.8-.1.1.1.1.4.1.8 0 .5 0 1 .3 1.4.3.4.8.4 1.3.5.4.1.7.1.8.2.1.1-.1.4-.2.8-.2.5-.3 1-.2 1.4.2.4.6.7 1.1 1 .3.2.6.4.7.5 0 .1-.2.4-.4.7-.3.4-.7.8-.7 1.3s.3.9.7 1.3c.1.3.4.6.4.7zM2.4 19.2H1.3c-.3 0-.7-.1-.9-.4-.3-.2-.4-.6-.4-.9V6.3c0-.3.1-.6.4-.8.2-.2.5-.4.9-.4h2.1c.3-.5.6-1 1-1.4 1-1 2.5-1.7 4.1-1.7s3.1.7 4.2 1.7c.4.4.7.9 1 1.4h2.1c.3 0 .7.1.9.4.2.2.3.5.3.8v3.2h3.2c.5 0 1.1.2 1.5.6.4.4.7.8.9 1.4.5 1.7.9 3.5 1.4 5.2 0 .1.1.3.1.4 0 .5-.1.9-.4 1.3-.3.3-.6.6-1.1.7-.1.5-.3 1-.7 1.4-.5.5-1.1.7-1.8.7s-1.3-.3-1.8-.7c-.4-.4-.6-.8-.7-1.3H7.4c-.1.5-.3 1-.7 1.3-.5.5-1.1.7-1.8.7s-1.3-.2-1.8-.7c-.4-.4-.6-.8-.7-1.3zm6.1-6.3c-.3 0-.5.2-.5.5s.2.5.5.5.5-.2.5-.5-.2-.5-.5-.5zm-1.3.3c-.1.2-.3.4-.6.3-.8-.3-1.6-.8-2.2-1.4C3.3 11 2.6 9.5 2.6 7.9c0-.7.1-1.3.3-1.9H1.3c-.1 0-.2.1-.3.1 0 .1-.1.2-.1.2v11.6c0 .1 0 .2.1.2.1.1.1.1.2.1h1.1c.1-.5.3-1 .7-1.3.5-.5 1.1-.8 1.8-.8s1.3.3 1.8.8c.4.4.6.8.7 1.3H16V6.3c0-.1 0-.2-.1-.2 0 0 0-.1-.1-.1h-1.7c.2.6.3 1.2.3 1.9 0 1.6-.7 3.1-1.7 4.2-.6.6-1.3 1.1-2.2 1.4-.2.1-.5-.1-.6-.3-.1-.2 0-.5.3-.6.7-.3 1.3-.6 1.8-1.2.9-.9 1.5-2.1 1.5-3.5s-.6-2.6-1.5-3.5c-.9-.9-2.1-1.5-3.5-1.5S5.9 3.5 5 4.4c-.9.9-1.4 2.1-1.4 3.5s.6 2.6 1.5 3.5c.5.5 1.2.9 1.9 1.2.1.1.2.3.2.6zm.5-8.8v3.5c0 .3.2.5.5.5h2.1c.3 0 .5-.2.5-.5s-.2-.5-.5-.5H8.7v-3c0-.3-.2-.5-.5-.5s-.5.2-.5.5zm14.8 13.7c.2-.1.3-.2.4-.3.1-.2.2-.4.2-.6v-.3l-.7-2.7H17v4h.4c.1-.5.3-1 .7-1.3.5-.5 1.1-.8 1.8-.8s1.3.3 1.8.8c.4.3.7.7.8 1.2zm-1.4-.6c-.3-.3-.7-.5-1.1-.5-.4 0-.9.2-1.1.5-.3.3-.5.7-.5 1.1 0 .4.2.9.5 1.1.3.3.7.5 1.1.5.4 0 .9-.2 1.1-.5.3-.3.5-.7.5-1.1 0-.4-.2-.8-.5-1.1zm-15 0c-.3-.3-.7-.5-1.1-.5s-.9.2-1.1.5c-.3.3-.5.7-.5 1.1 0 .4.2.9.5 1.1.3.3.7.5 1.1.5s.9-.2 1.1-.5c.3-.3.5-.7.5-1.1-.1-.4-.3-.8-.5-1.1zM17 13.3h5l-.4-1.6c-.1-.3-.3-.7-.6-.9-.3-.2-.6-.3-.9-.3H17v2.8z"/></symbol><symbol id="mask" viewBox="0 0 24 24"><path d="M2.1 14.9c-.2.1-.4.3-.4.6-.2.6.1 1.6.7 2.6S3.9 20 4.6 20c.1 0 .3 0 .4-.1.2-.1.4-.3.4-.6.2-.6-.1-1.6-.7-2.6-.6-1.2-1.8-2.2-2.6-1.8zm2.6 4.2c0 .1 0 .1 0 0-.2.2-.9-.2-1.7-1.4-.5-.9-.7-1.7-.6-2v-.1c.2 0 .9.4 1.6 1.5.7.9.8 1.7.7 2z"/><path d="M23.9 14.3c-.1-.5-.5-1-.9-1.3l-3.2-1.8c-.7-.4-1.7-.3-2.7.4l-.3-.4c2-1.9 4.2-4.1 4.3-4.7.2-.9-1.1-1.9-1.4-2C19.6 4.3 16.2 2 12 2S4.4 4.3 4.2 4.5c-.3.2-1.6 1.1-1.4 2 .2.6 2.4 2.8 4.4 4.7l-.3.4c-1-.7-1.9-.8-2.7-.4L1 13c-.5.3-.8.8-.9 1.3-.3 1.2.1 2.9 1 4.5 1.1 2 2.8 3.2 4.1 3.2.3 0 .6-.1.9-.2l3-1.7h.1c.5-.4.9-.9 1-1.6h3.6c.1.6.4 1.2 1 1.6h.1l3 1.7c.3.2.6.2.9.2 1.3 0 3-1.2 4.1-3.2.9-1.5 1.3-3.3 1-4.5zm-3.5-8c-.1.4-1.8 2.1-4.1 4.3l-.7-.9 2.7-3 1.2-1.3c.6.3 1 .7.9.9zM15.2 9c-.4-.5-1-.9-1.6-1.1V5c.1 0 .3 0 .4.1 1.2.3 2.4.8 3.5 1.4L15.2 9zM12 2.8c3.2 0 6 1.5 7 2.1l-.9 1c-1.2-.7-2.5-1.2-3.9-1.5-1.5-.4-3-.4-4.4 0-1.4.3-2.7.8-3.9 1.4L5 4.9c1-.6 3.8-2.1 7-2.1zm.8 2v2.8c-.5-.1-1.1-.1-1.6 0V4.8h1.6zm-2.4 3.1c-.6.3-1.2.6-1.6 1.1L6.4 6.4c1.1-.6 2.3-1 3.5-1.4h.5v2.9zM3.6 6.3c-.1-.2.3-.6.8-1l4 4.3-.7.9c-2.3-2.1-4-3.8-4.1-4.2zm2.7 14c-.1.3-.3.6-.5.8-.9.5-2.7-.4-4-2.6-.8-1.5-1.2-3-.9-4 .1-.3.3-.6.5-.8.2-.1.3-.1.5-.1 1 0 2.4 1 3.4 2.8.9 1.4 1.3 2.9 1 3.9zm2.6-1l-1.8 1c.2-1.2-.1-2.8-1-4.3-.9-1.6-2.2-2.7-3.3-3l1.8-1.1c.5-.3 1.3-.1 2.2.6.7.6 1.3 1.3 1.7 2.1.6 1 .9 2.1 1 3.3 0 .7-.3 1.2-.6 1.4zm4.8-1.7h-3.5c-.1-1.2-.4-2.4-1.1-3.4-.4-.8-1-1.5-1.7-2.1L9 9.9c.7-.9 1.7-1.5 2.9-1.5s2.2.5 2.9 1.5l1.6 2.2c-.7.6-1.2 1.3-1.7 2.1-.5 1-.9 2.2-1 3.4zm1.5 1.7c-.5-.3-.7-.8-.7-1.5 0-1.2.4-2.3 1-3.3.4-.8 1-1.5 1.7-2.1.8-.7 1.7-.9 2.2-.6l1.8 1.1c-1.1.4-2.4 1.5-3.3 3-.9 1.5-1.3 3.1-1 4.3l-1.7-.9zm7-.9c-1.3 2.2-3.1 3.1-4 2.6-.3-.2-.5-.5-.5-.8-.3-1 .1-2.5.9-3.9 1.1-1.8 2.5-2.8 3.4-2.8.2 0 .4 0 .5.1.3.2.5.5.5.8.4 1.1 0 2.7-.8 4z"/><path d="M21.9 14.9c-.8-.4-2 .6-2.7 1.8-.6 1-.8 2-.7 2.6.1.2.2.5.4.6.1.1.3.1.4.1.7 0 1.7-.9 2.3-1.9.6-1 .8-2 .7-2.6-.1-.3-.2-.5-.4-.6zm-1 2.8c-.7 1.2-1.5 1.6-1.6 1.5v-.1c-.1-.3.1-1.1.6-2 .7-1.2 1.5-1.6 1.6-1.5v.1c.1.3 0 1.1-.6 2zM12 10.8c-1.1 0-2 .9-2 2s.9 2 2 2 2-.9 2-2-.9-2-2-2zm0 3.2c-.7 0-1.2-.5-1.2-1.2s.5-1.2 1.2-1.2 1.2.5 1.2 1.2S12.7 14 12 14z"/></symbol><symbol id="message-circle" viewBox="0 0 24 24"><path d="M12 0C5.4 0 0 5.4 0 12s5.4 12 12 12 12-5.4 12-12S18.6 0 12 0zm0 18.7c-1.4 0-2.7-.3-3.9-.9-.3.2-1.7 1.3-3.1.8.8-.8 1-1.7 1-2.3-1.1-1.2-1.8-2.7-1.8-4.3 0-3.7 3.5-6.7 7.7-6.7 4.3 0 7.7 3 7.7 6.7s-3.3 6.7-7.6 6.7z"/></symbol><symbol id="metiz" viewBox="0 0 24 24"><path d="M23.9 12.1c.1-.2.1-.5-.1-.6l-4.9-4.9c-.2-.2-.6-.2-.8 0l-1.3 1.3-.7-.7 1.3-1.3c.2-.2.2-.6 0-.8L12.5.2c-.2-.2-.4-.2-.6-.1s-.3.3-.3.5l.7 6.2-3.4 3.4c-.2.2-.2.6 0 .8s.6.2.8 0l3.6-3.6c.1-.1.2-.3.2-.4l-.7-5 3.5 3.5L15 6.8c-.2.2-.2.6 0 .8L16.5 9c.2.2.6.2.8 0l1.3-1.3 3.5 3.5-4.9-.6c-.2 0-.3 0-.4.2L15 12.4l-3.3-1.3c-.3-.1-.6 0-.7.3s0 .6.3.7l3.6 1.4c.2.1.4 0 .6-.1l1.7-1.7 6.2.7c.2.1.4-.1.5-.3zM14.4 14.2c0-.2-.2-.3-.3-.4l-6-2.4c-.2-.1-.4 0-.6.1l-1.2 1.2c-.1.1-.2.3-.1.5 0 .1.1.2.1.3.1.1.1.1.2.1l6 2.4c.2.1.4 0 .6-.1l1.2-1.2c0-.1.1-.3.1-.5zm-1.9.7l-4.9-2 .4-.3 4.9 2-.4.3zM11.9 16.7c0-.2-.2-.3-.3-.4l-6-2.4c-.2-.1-.4 0-.6.1l-1.2 1.2c-.1.1-.2.3-.1.5 0 .1.1.2.1.3.1 0 .2.1.2.1l6 2.4c.2.1.4 0 .6-.1l1.2-1.2c.1-.2.2-.4.1-.5zm-1.8.7l-4.9-2 .4-.4 4.9 2-.4.4zM9.2 18.9c-.2-.2-.6-.2-.8 0l-3.8 3.8-3-.5-.6-2.8 2-1.9 2.8 1.1c.3.1.6 0 .7-.3.1-.3 0-.6-.3-.7L3 16.3c-.2-.1-.4 0-.6.1L0 18.8v.6l.7 3.5c0 .1.1.2.1.3.1.1.2.1.3.2l3.6.6c.2 0 .3 0 .5-.2l4-4c.3-.3.3-.7 0-.9z"/></symbol><symbol id="procent" viewBox="0 0 24 24"><path d="M0-234zm0 0zM22.9-231.8c0-.2.2-.4.4-.7.4-.5.7-.9.6-1.5-.1-.6-.6-.9-1.1-1.1-.3-.2-.6-.3-.6-.5 0-.1.1-.5.2-.8.2-.5.4-1.1.1-1.6-.3-.5-.9-.6-1.4-.7-.3-.1-.7-.1-.8-.2-.1-.1-.1-.4-.1-.8 0-.6 0-1.2-.4-1.5-.4-.4-1-.3-1.6-.2-.3.1-.7.1-.8.1-.1-.1-.2-.4-.3-.7-.2-.5-.4-1.1-.9-1.3-.5-.2-1 .1-1.5.4-.3.2-.6.3-.8.3-.1 0-.4-.3-.6-.6-.4-.4-.8-.9-1.4-.9-.6 0-1 .5-1.4.9-.2.3-.5.5-.6.6-.1 0-.5-.1-.8-.3-.5-.3-1-.6-1.5-.4-.5.2-.7.7-.9 1.3-.1.3-.2.6-.3.7-.1.1-.4 0-.8-.1-.6-.1-1.1-.2-1.6.2-.4.4-.4.9-.4 1.5 0 .3 0 .7-.1.8-.1.1-.4.2-.8.2-.6.1-1.1.2-1.4.7-.3.5-.1 1 .1 1.6.1.3.2.7.2.8 0 .1-.3.3-.6.5-.5.3-1 .6-1.1 1.1-.1.5.3 1 .6 1.5.2.3.4.6.4.7 0 .2-.2.4-.4.7-.4.5-.7.9-.6 1.5.1.6.6.9 1.1 1.1.3.2.6.3.6.5 0 .1-.1.5-.2.8-.2.5-.4 1.1-.1 1.6.3.5.9.6 1.4.7.3.1.7.1.8.2.1.1.1.4.1.8 0 .6 0 1.2.4 1.5.4.4 1 .3 1.6.2.3-.1.7-.1.8-.1s.2.4.3.7c.2.5.4 1.1.9 1.3.5.2 1-.1 1.5-.4.3-.2.6-.3.8-.3.1 0 .4.3.6.6.4.4.8.9 1.4.9.6 0 1-.5 1.4-.9.2-.3.5-.5.6-.6.1 0 .5.1.8.3.5.3 1 .6 1.5.4.5-.2.7-.7.9-1.3.1-.3.2-.6.3-.7.1-.1.4 0 .8.1.6.1 1.1.2 1.6-.2.4-.4.4-.9.4-1.5 0-.3 0-.7.1-.8.1-.1.4-.2.8-.2.6-.1 1.1-.2 1.4-.7.3-.5.1-1-.1-1.6-.1-.3-.2-.7-.2-.8 0-.1.3-.3.6-.5.5-.3 1-.6 1.1-1.1.1-.5-.3-1-.6-1.5-.2-.3-.4-.6-.4-.7zm.2 2c0 .1-.3.3-.7.5-.4.3-.9.5-1.1 1-.2.5 0 .9.2 1.4.1.3.2.7.2.8-.1.1-.4.2-.8.2-.5.1-1 .2-1.3.5-.3.4-.3.9-.3 1.4 0 .4 0 .7-.1.8-.1.1-.4 0-.8-.1-.5-.1-1-.2-1.4.1-.4.2-.6.7-.8 1.2-.1.3-.2.7-.3.7-.1 0-.4-.1-.7-.3-.5-.3-.9-.5-1.4-.4-.5.1-.8.5-1.1.9-.2.3-.5.6-.6.6-.1 0-.4-.3-.6-.6-.3-.4-.7-.8-1.1-.9-.5-.1-.9.2-1.4.4-.3.2-.6.4-.7.3-.1 0-.2-.4-.3-.7-.2-.5-.3-1-.8-1.2-.4-.2-.9-.2-1.4-.1-.4.1-.7.1-.8.1-.1-.1-.1-.4-.1-.8 0-.5 0-1-.3-1.4-.3-.4-.8-.4-1.3-.5-.4-.1-.7-.1-.8-.2-.1-.1.1-.4.2-.8.2-.5.3-1 .2-1.4-.2-.4-.6-.7-1.1-1-.3-.2-.6-.4-.7-.5 0-.1.2-.4.4-.7.3-.4.7-.8.7-1.3s-.3-.9-.7-1.3c-.2-.3-.5-.6-.4-.7 0-.1.3-.3.7-.5.4-.3.9-.5 1.1-1 .2-.5 0-.9-.2-1.4-.1-.3-.2-.7-.2-.8.1-.1.4-.2.8-.2.5-.1 1-.2 1.3-.5.3-.4.3-.9.3-1.4 0-.4 0-.7.1-.8.1-.1.4 0 .8.1.5.1 1 .2 1.4-.1.4-.2.6-.7.8-1.2.1-.3.2-.7.3-.7.1 0 .4.1.7.3.5.3.9.5 1.4.4.5-.1.8-.5 1.1-.9.2-.3.5-.6.6-.6.1 0 .4.3.6.6.3.4.7.8 1.1.9.5.1.9-.2 1.4-.4.3-.2.6-.4.7-.3.1 0 .2.4.3.7.2.5.3 1 .8 1.2.4.2.9.2 1.4.1.4-.1.7-.1.8-.1.1.1.1.4.1.8 0 .5 0 1 .3 1.4.3.4.8.4 1.3.5.4.1.7.1.8.2.1.1-.1.4-.2.8-.2.5-.3 1-.2 1.4.2.4.6.7 1.1 1 .3.2.6.4.7.5 0 .1-.2.4-.4.7-.3.4-.7.8-.7 1.3s.3.9.7 1.3c.1.3.4.6.4.7zM17.9 6.1c-.3 0-.5.2-.5.5 0 .1 0 .2.1.3 1.3 1.4 2.1 3.2 2.1 5.2 0 2.1-.9 4-2.2 5.4-1.4 1.5-3.3 2.3-5.4 2.3-.9 0-1.8-.2-2.6-.4h-.1c-.3 0-.5.2-.5.5 0 .2.1.4.3.5.9.3 1.9.5 2.9.5 2.4 0 4.5-1 6.1-2.5 1.6-1.6 2.5-3.7 2.5-6.1 0-2.3-.9-4.3-2.3-5.9-.1-.2-.3-.3-.4-.3z"/><circle cx="16.5" cy="5.4" r=".5"/><path d="M14.9 4.1c-.9-.3-1.9-.5-2.9-.5-2.4 0-4.5 1-6.1 2.5-1.6 1.6-2.5 3.7-2.5 6.1 0 2.3.9 4.3 2.3 5.9.1.1.2.2.4.2.3 0 .5-.2.5-.5 0-.1 0-.2-.1-.3-1.3-1.4-2.1-3.2-2.1-5.2 0-2.1.9-4 2.2-5.4C8 5.4 9.9 4.6 12 4.6c.9 0 1.8.2 2.6.5h.2c.3 0 .5-.2.5-.5 0-.2-.2-.4-.4-.5z"/><circle cx="7.5" cy="18.9" r=".5"/><path d="M10.6 8.1c-.4-.4-.9-.6-1.4-.6-.5 0-1 .2-1.4.6-.3.3-.5.8-.5 1.4 0 .5.2 1 .6 1.4.4.4.9.6 1.4.6.5 0 1-.2 1.4-.6.4-.4.6-.9.6-1.4-.1-.6-.3-1.1-.7-1.4zm-.6 2.1c-.2.2-.4.3-.7.3-.3 0-.5-.1-.7-.3-.3-.2-.4-.4-.4-.7 0-.3.1-.5.3-.7s.4-.3.7-.3c.3 0 .5.1.7.3s.3.4.3.7c.1.3-.1.5-.2.7zM14.4 7.7l-5.5 8.4c-.1.2-.1.5.1.7s.5.1.7-.1l5.5-8.4c.1-.3 0-.6-.2-.7s-.5-.1-.6.1zM16.2 13.5c-.4-.4-.9-.6-1.4-.6-.5 0-1 .2-1.4.6-.4.4-.6.9-.6 1.4 0 .5.2 1 .6 1.4.4.4.9.6 1.4.6.5 0 1-.2 1.4-.6.4-.4.6-.9.6-1.4-.1-.6-.3-1.1-.6-1.4zm-.7 2.1c-.2.2-.4.3-.7.3-.3 0-.5-.1-.7-.3s-.3-.4-.3-.7c0-.3.1-.5.3-.7.2-.2.4-.3.7-.3.3 0 .5.1.7.3.2.2.3.4.3.7 0 .3-.1.5-.3.7z"/><path d="M22.9 12.2c0-.2.2-.4.4-.7.4-.5.7-.9.6-1.5-.1-.6-.6-.9-1.1-1.1-.3-.2-.6-.3-.6-.5 0-.1.1-.5.2-.8.2-.5.4-1.1.1-1.6-.3-.5-.9-.6-1.4-.7-.3-.1-.7-.1-.8-.2-.1-.1-.1-.4-.1-.8 0-.6 0-1.2-.4-1.5-.4-.4-1-.3-1.6-.2-.3.1-.7.1-.8.1-.1-.1-.2-.4-.3-.7-.1-.5-.3-1-.9-1.2-.5-.2-1 .1-1.5.4-.3.2-.6.3-.8.3-.1 0-.4-.3-.6-.6C13 .5 12.6 0 12 0c-.6 0-1 .5-1.4.9-.2.3-.5.5-.6.6-.1 0-.5-.1-.8-.3-.5-.3-1-.6-1.5-.4-.5.2-.7.7-.9 1.3-.1.3-.2.6-.3.7-.1 0-.5 0-.8-.1-.6-.1-1.1-.2-1.5.2-.5.3-.5.9-.5 1.5 0 .3 0 .7-.1.8 0 .1-.4.1-.7.2-.6.1-1.1.2-1.4.6-.3.5-.1 1 .1 1.6.1.3.2.7.2.8 0 .1-.3.3-.6.5C.6 9.1.1 9.4 0 10c-.1.5.3 1 .6 1.5.2.3.4.6.4.7 0 .2-.2.4-.4.7-.4.5-.7.9-.6 1.5.1.6.6.9 1.1 1.1.3.2.6.3.6.5 0 .1-.1.5-.2.8-.2.5-.4 1.1-.1 1.6.3.5.9.6 1.4.7.3.1.7.1.8.2.1.1.1.4.1.8 0 .6 0 1.2.4 1.5.4.4 1 .3 1.6.2.3-.1.7-.1.8-.1.1.1.2.4.3.7.2.5.4 1.1.9 1.3.5.2 1-.1 1.5-.4.3-.2.6-.3.8-.3.1 0 .4.3.6.6.4.4.8.9 1.4.9.6 0 1-.5 1.4-.9.2-.3.5-.5.6-.6.1 0 .5.1.8.3.5.3 1 .6 1.5.4.5-.2.7-.7.9-1.3.1-.3.2-.6.3-.7.1-.1.4 0 .8.1.6.1 1.1.2 1.6-.2.4-.4.4-.9.4-1.5 0-.3 0-.7.1-.8.1-.1.4-.2.8-.2.6-.1 1.1-.2 1.4-.7.3-.5.1-1-.1-1.6-.1-.3-.2-.7-.2-.8 0-.1.3-.3.6-.5.5-.3 1-.6 1.1-1.1.1-.5-.3-1-.6-1.5-.3-.3-.5-.6-.5-.7zm.2 2c0 .1-.3.3-.7.5-.4.3-.9.5-1.1 1-.2.5 0 .9.2 1.4.1.3.2.7.2.8-.1.1-.4.2-.8.2-.5.1-1 .2-1.3.5-.3.4-.3.9-.3 1.4 0 .4 0 .7-.1.8-.1.1-.4 0-.8-.1-.5-.1-1-.2-1.4.1-.4.2-.6.7-.8 1.2-.1.3-.2.7-.3.7-.1 0-.4-.1-.7-.3-.5-.3-.9-.5-1.4-.4-.5.1-.8.5-1.1.9-.2.3-.5.6-.6.6-.1 0-.4-.3-.6-.6-.3-.4-.7-.8-1.1-.9-.5-.1-.9.2-1.4.4-.3.2-.6.4-.7.3-.1 0-.2-.4-.3-.7-.2-.5-.3-1-.8-1.2-.4-.2-.9-.2-1.4-.1-.4.1-.7.1-.8.1-.1-.1-.1-.4-.1-.8 0-.5 0-1-.3-1.4-.3-.4-.8-.4-1.3-.5-.4-.1-.7-.1-.8-.2-.1-.1.1-.4.2-.8.2-.5.3-1 .2-1.4-.2-.4-.6-.7-1.1-1-.3-.2-.6-.4-.7-.5 0-.1.2-.4.4-.7.2-.4.5-.8.5-1.3s-.3-.9-.7-1.3c-.2-.3-.5-.6-.4-.7.1-.2.4-.3.7-.5.4-.3.9-.5 1.1-1 .2-.5 0-.9-.2-1.4-.1-.4-.3-.7-.2-.8.1-.1.4-.2.8-.2.5-.1 1-.2 1.3-.5.3-.4.3-.9.3-1.4 0-.4 0-.7.1-.8.1-.1.4 0 .8.1.5.1 1 .2 1.4-.1.4-.2.6-.7.8-1.2.1-.4.2-.7.3-.7.1 0 .4.1.7.3.5.3.9.5 1.4.4.5-.1.8-.5 1.1-.9.3-.3.6-.5.7-.5.1 0 .4.3.6.6.3.4.7.8 1.1.9.5.1.9-.2 1.4-.4.3-.2.6-.4.7-.3.1 0 .2.4.3.7.2.5.3 1 .8 1.2.4.2.9.2 1.4.1.4-.1.7-.1.8-.1.1.1.1.4.1.8 0 .5 0 1 .3 1.4.3.4.8.4 1.3.5.4.1.7.1.8.2.1.1-.1.4-.2.8-.2.5-.3 1-.2 1.4.2.4.6.7 1.1 1 .3.2.6.4.7.5 0 .1-.2.4-.4.7-.3.4-.7.8-.7 1.3s.3.9.7 1.3c.2.2.5.5.5.6z"/></symbol><symbol id="putty-knife" viewBox="0 0 24 24"><path d="M24 11.3c-.1 0-.1 0 0 0-.1-.1-.1-.1-.1-.2l-2.2-1.3c.1-.3.3-.7.3-1.1 0-.6-.3-1.1-.9-1.4l-3.7-1.8.4-1.1.3-.1c.1.1.3.1.5.1h.3l3.9-1.1c.7-.3 1.2-.9 1.2-1.7 0-.9-.7-1.6-1.6-1.6h-.5c-.4 0-.7.1-1 .4l-2.8 2.2c-.2.2-.3.5-.4.7l-.4.2c-.1.1-.2.1-.2.3L16.6 5l-1.4-.7c-1.1-.6-2.5-.3-3.2.6L7.7 10 .4 12H.3c-.1 0-.1.1-.2.2s-.1.2-.1.3v7c0 .2.1.3.3.4l7 4c0 .1.1.1.2.1h.1l16-5c.2-.1.4-.3.4-.5v-7-.2zM21.5 1.1c.1-.1.3-.1.4-.1h.5c.3 0 .6.3.6.6s-.2.5-.5.6l-3.6 1v-.1l2.6-2zm-8.8 4.5c.4-.4.8-.6 1.3-.6.3 0 .5.1.7.2l1.5.7-.1.3-4.9 2.9c-.2.1-.3.4-.2.7.1.2.3.2.4.2.1 0 .2 0 .3-.1l5-3c.1-.1.2-.1.2-.2l.1-.3 3.6 1.8c.3 0 .4.2.4.5s-.2.5-.4.6l-.2.1-13.5 3.2 5.8-7zM7 22.6l-6-3.4v-5.8l6 3.4v5.8zm.6-6.6l-5.8-3.3 4.8-1.3-1.5 1.8c-.1.2-.2.4 0 .6.1.1.2.2.4.2h.1l1.7-.4 1.4.9c.1 0 .2.1.3.1.2 0 .3-.1.4-.2.1-.2.1-.5-.2-.7l-.6-.4 1.9-.5 1.1.7c.1 0 .2.1.3.1.2 0 .3-.1.4-.2.1-.2.1-.5-.2-.7l-.1-.3 1.9-.5.9.5c.1 0 .2.1.3.1.2 0 .3-.1.4-.2.1-.2.1-.5-.2-.7l1.9-.5.6.3c.1 0 .2.1.3.1.2 0 .3-.1.4-.2.1-.2.1-.3 0-.5l1.9-.5 1.9 1.1L7.6 16zM23 18.1L8 22.8v-6l15-4.7v6z"/></symbol><symbol id="rest" viewBox="0 0 24 24"><path d="M22.7 12.1H12.4v-1.9c0-.3-.2-.5-.5-.5s-.5.2-.5.5v1.9H1.2c-.3 0-.5.2-.5.5v1.9c0 .3.2.5.5.5h7.4l2.8 2.8v3.1c-1.3.2-2.2 1.3-2.2 2.6 0 .3.2.5.5.5h4.4c.3 0 .5-.2.5-.5 0-1.3-1-2.4-2.2-2.6v-3.1l2.8-2.8h7.4c.3 0 .5-.2.5-.5v-1.9c.1-.3-.1-.5-.4-.5zM10 14.9h1.5v1.5L10 14.9zm3.6 8.1h-3.3c.2-.7.9-1.3 1.7-1.3s1.4.6 1.6 1.3zm-1.2-6.6v-1.5h1.5l-1.5 1.5zm9.8-2.4H1.7v-1h20.5v1zM12 8.2c-.3 0-.5.2-.5.5v.1c0 .3.2.5.5.5s.5-.2.5-.5v-.1c-.1-.3-.3-.5-.5-.5zM18.6 2.1C16.8.7 14.4 0 11.9 0S7.1.7 5.3 2.1C3.5 3.4 2.5 5.2 2.5 7.2c0 .3.2.5.5.5h18c.3 0 .5-.2.5-.5-.1-2-1.1-3.8-2.9-5.1zM8 6.7H3.4C3.7 4 6.3 1.8 9.8 1.2 8.8 2.3 8.1 4.3 8 6.7zm1 0c.1-1.5.4-2.9.9-4 .6-1.1 1.3-1.7 2-1.7s1.4.6 2 1.7c.6 1.1.9 2.5.9 4H9zm6.8 0c-.1-2.3-.7-4.3-1.7-5.5 3.5.7 6.1 2.9 6.3 5.5h-4.6z"/></symbol><symbol id="roof" viewBox="0 0 24 24"><path d="M23 0H1C.7 0 .5.2.5.5v19.4c0 2.3 1.9 4.2 4.2 4.2 1.6 0 3-.9 3.7-2.2.6 1.2 2 2.1 3.6 2.1s3-.9 3.7-2.2c.7 1.3 2.1 2.2 3.7 2.2 2.3 0 4.2-1.9 4.2-4.2V.5c-.1-.3-.3-.5-.6-.5zM7.9 19.8c0 1.8-1.4 3.2-3.2 3.2s-3.2-1.4-3.2-3.2V16c.8.9 1.9 1.5 3.2 1.5s2.4-.6 3.2-1.5v3.8zm0-6.4c0 1.8-1.4 3.2-3.2 3.2s-3.2-1.4-3.2-3.2V9.6c.8.9 1.9 1.5 3.2 1.5s2.4-.6 3.2-1.5v3.8zm0-6.5c0 1.8-1.4 3.2-3.2 3.2S1.5 8.7 1.5 6.9V1h6.4v5.9zm7.3 12.9c0 1.8-1.4 3.2-3.2 3.2s-3.2-1.4-3.2-3.2V16c.8.9 1.9 1.5 3.2 1.5s2.4-.6 3.2-1.5v3.8zm0-6.4c0 1.8-1.4 3.2-3.2 3.2s-3.2-1.4-3.2-3.2V9.6c.8.9 1.9 1.5 3.2 1.5s2.4-.6 3.2-1.5v3.8zm0-6.5c0 1.8-1.4 3.2-3.2 3.2S8.8 8.7 8.8 6.9V1h6.4v5.9zm7.4 12.9c0 1.8-1.4 3.2-3.2 3.2-1.8 0-3.2-1.4-3.2-3.2V16c.8.9 1.9 1.5 3.2 1.5s2.4-.6 3.2-1.5v3.8zm0-6.4c0 1.8-1.4 3.2-3.2 3.2-1.8 0-3.2-1.4-3.2-3.2V9.6c.8.9 1.9 1.5 3.2 1.5s2.4-.6 3.2-1.5v3.8zm0-6.5c0 1.8-1.4 3.2-3.2 3.2-1.8 0-3.2-1.4-3.2-3.2V1h6.4v5.9z"/><path d="M21.7 1.5c-.3 0-.5.2-.5.5v2.2c0 .3.2.5.5.5s.5-.2.5-.5V2c-.1-.3-.3-.5-.5-.5zM21.7 5.1c-.3 0-.5.2-.5.5v.5c0 .3.2.5.5.5s.5-.2.5-.5v-.5c-.1-.3-.3-.5-.5-.5z"/></symbol><symbol id="scotch" viewBox="0 0 24 24"><path d="M11.5 17.9H8.3c-.3 0-.5.2-.5.5s.2.5.5.5h3.2c.3 0 .5-.2.5-.5s-.2-.5-.5-.5zM12.8 17.9c-.6 0-.6.9 0 .9s.6-.9 0-.9z"/><path d="M22 16.9c1.3-1.5 2-3.5 2-5.5C24 6.8 20.2 3 15.6 3 11 3 7.2 6.8 7.2 11.4c0 1.6.4 3.1 1.2 4.4h-2c-.3 0-.6-.3-.6-.6v-2c0-.3-.2-.5-.5-.5H.5c-.3.1-.5.3-.5.6s.2.5.5.5h.9v3.9c0 1.8 1.5 3.3 3.3 3.3h14.2c1 0 1.9-.4 2.5-1.2.6-.8.8-1.8.6-2.8v-.1zm-1.4 2.2c-.4.5-1.1.8-1.8.8H4.6c-1.3 0-2.3-1-2.3-2.3v-3.9h2.5v1.5c0 .8.7 1.5 1.5 1.5h2.9c.1 0 .3 0 .4-.1.1-.1.1-.1.1-.2l1.5-5.2c.3-1 .8-1.8 1.6-2.4.7-.5 1.4-.8 2.3-.9v1.6c-.8.2-1.5 1-1.5 1.9 0 1.1.9 1.9 1.9 1.9s1.9-.9 1.9-1.9c0-.9-.6-1.7-1.5-1.9V8c2 .2 3.6 1.7 4 3.7l1 5.2.1.4c.2.6.1 1.3-.4 1.8zm-5-8.7c.5 0 1 .4 1 1 0 .5-.4 1-1 1-.5 0-1-.4-1-1 0-.5.4-1 1-1zm5.3 1.1C20.5 8.9 18.2 7 15.6 7c-1.2 0-2.3.4-3.3 1.1-1 .7-1.6 1.7-2 2.9l-1.2 4.2c-.7-1.1-1-2.4-1-3.8 0-4.1 3.4-7.5 7.5-7.5s7.5 3.4 7.5 7.5c0 1.5-.5 3-1.3 4.2l-.9-4.1z"/></symbol><symbol id="search" viewBox="0 0 24 24"><path d="M0-234zm0 0zM23.7 22.3l-5.8-5.8c1.4-1.7 2.3-4 2.3-6.4C20.2 4.5 15.7 0 10.1 0S0 4.5 0 10.1s4.5 10.1 10.1 10.1c2.4 0 4.7-.9 6.4-2.3l5.8 5.8c.4.4 1 .4 1.4 0 .4-.4.4-1 0-1.4zm-13.6-4.1c-4.5 0-8.1-3.6-8.1-8.1S5.6 2 10.1 2s8.1 3.6 8.1 8.1-3.6 8.1-8.1 8.1z"/></symbol><symbol id="sheer" viewBox="0 0 60 22"><path d="M38.9 11.5c0 .3.1.5.1.7.4 1.9 1.9 3.1 3.8 3.3 1.7.1 3-.5 4-1.9.5-.7 1.3-.8 1.9-.2.4.3.4.7.1 1.1-.2.2-.3.4-.5.6-.6.9-1.5 1.5-2.5 1.8-1.7.6-3.4.7-5 .1-2.2-.8-3.6-2.5-4-4.8-.2-1.4-.1-2.9.6-4.2 1-1.9 2.5-3 4.5-3.3 1.4-.2 2.8-.1 4 .5 1.8.9 2.9 2.3 3.4 4.3.1.5.2 1.1.2 1.6 0 .3-.1.5-.5.5h-9.8c0-.1-.2-.1-.3-.1zm8.5-2C47.1 7.7 45 6.2 43 6.3c-2 .1-4 1.7-4.1 3.2h8.5zM24.9 11.5c0 .2 0 .3.1.4.4 2.1 2.1 3.5 4.1 3.5 1.6 0 2.8-.6 3.7-1.9.5-.7 1.4-.8 2-.2.3.3.3.7.1 1-.1.2-.3.3-.4.5-.7 1-1.6 1.7-2.8 2-1.7.5-3.4.6-5 0-2.3-.9-3.6-2.7-3.9-5.2-.1-1.2 0-2.4.5-3.5.9-2.1 2.5-3.4 4.8-3.7 1.2-.2 2.4-.1 3.6.4 2 .9 3.2 2.4 3.7 4.6.1.5.1 1 .2 1.5 0 .4-.1.5-.5.5H25.5c-.2.1-.4.1-.6.1zm8.6-2.1c-.3-1.7-2.3-3.2-4.3-3.1-1.9.1-4 1.6-4.1 3.1h8.4zM55.9 12.4l.3.3c1.1.9 2.2 1.8 3.3 2.8.1.1.2.1.2.2.4.4.4 1 .1 1.4-.3.4-.9.5-1.3.1-.8-.6-1.5-1.3-2.2-1.9-1.1-.9-2.1-1.8-3.2-2.7-.1-.1-.2-.2-.4-.3v8.6c0 .6-.5 1-1 .9-.5 0-.9-.4-.9-1v-.4V5.3v-.5c0-.4 0-.4.4-.4H56c1.9-.1 4 1.4 4.2 3.6.2 2-1.2 3.8-3.2 4.2-.5.1-.8.2-1.1.2zm-3.4-1.5H55.6c.3 0 .5 0 .8-.1.9-.3 1.5-.8 1.8-1.7.4-1.6-.8-3-2.4-3H52.6c-.1 1.6-.1 3.2-.1 4.8zM19.6 11.5h-5.5V16.1c0 .2 0 .3-.1.5-.1.4-.6.7-1 .7-.5 0-.8-.4-.9-.9v-.3-15c0-.2 0-.4.1-.6.2-.4.6-.7 1.1-.6.4.1.8.4.8.9v8.6c.3.1 5.1.1 5.4 0V9 5.6v-.3c0-.5.4-.9.9-.9s.9.3 1 .9V16.4c-.1.5-.5.9-1 .9s-.9-.4-1-.9v-.3V12c.2-.1.2-.3.2-.5zM5.5 17.4c-1.3 0-2.5-.3-3.7-1-.5-.3-.9-.6-1.3-1.1-.2-.2-.3-.5-.5-.7-.2-.4-.1-.8.2-1.1.4-.4.9-.5 1.4-.2.4.2.6.5.8.7l.6.6c.6.6 1.3.9 2.2 1 .8.1 1.6.1 2.3-.2.3-.1.6-.3.9-.5.6-.5.7-1.3 0-1.8-.3-.2-.7-.4-1-.6-.9-.4-1.8-.6-2.7-.9-.8-.2-1.5-.4-2.2-.7-.3-.1-.6-.2-.8-.4C1 10.1.6 9.5.5 8.7.1 7.3.7 6 2.2 5.3c2.2-1.1 4.4-1.1 6.5.1.4.3.8.6 1.1.9.3.2.4.5.5.9.2.6-.1.9-.6 1-.4.1-.8 0-1.2-.4.1-.1 0-.2-.1-.2-.5-.8-1.2-1.2-2.1-1.4-.9-.1-1.8-.1-2.6.2-.3.1-.6.3-.9.5-.6.5-.6 1.2 0 1.7.4.4.8.6 1.3.8 1.1.3 2.1.5 3.2.8.7.2 1.4.4 2 .7.8.4 1.4 1 1.6 2 .2 1.1 0 2.1-.9 2.9-1 .9-2.1 1.4-3.4 1.6-.4-.1-.7 0-1.1 0z"/></symbol><symbol id="sheer0" viewBox="0 0 60 22"><path d="M38.9 11.5c0 .3.1.5.1.7.4 1.9 1.9 3.1 3.8 3.3 1.7.1 3-.5 4-1.9.5-.7 1.3-.8 1.9-.2.4.3.4.7.1 1.1-.2.2-.3.4-.5.6-.6.9-1.5 1.5-2.5 1.8-1.7.6-3.4.7-5 .1-2.2-.8-3.6-2.5-4-4.8-.2-1.4-.1-2.9.6-4.2 1-1.9 2.5-3 4.5-3.3 1.4-.2 2.8-.1 4 .5 1.8.9 2.9 2.3 3.4 4.3.1.5.2 1.1.2 1.6 0 .3-.1.5-.5.5h-9.8c0-.1-.2-.1-.3-.1zm8.5-2C47.1 7.7 45 6.2 43 6.3c-2 .1-4 1.7-4.1 3.2h8.5zM24.9 11.5c0 .2 0 .3.1.4.4 2.1 2.1 3.5 4.1 3.5 1.6 0 2.8-.6 3.7-1.9.5-.7 1.4-.8 2-.2.3.3.3.7.1 1-.1.2-.3.3-.4.5-.7 1-1.6 1.7-2.8 2-1.7.5-3.4.6-5 0-2.3-.9-3.6-2.7-3.9-5.2-.1-1.2 0-2.4.5-3.5.9-2.1 2.5-3.4 4.8-3.7 1.2-.2 2.4-.1 3.6.4 2 .9 3.2 2.4 3.7 4.6.1.5.1 1 .2 1.5 0 .4-.1.5-.5.5H25.5c-.2.1-.4.1-.6.1zm8.6-2.1c-.3-1.7-2.3-3.2-4.3-3.1-1.9.1-4 1.6-4.1 3.1h8.4zM55.9 12.4l.3.3c1.1.9 2.2 1.8 3.3 2.8.1.1.2.1.2.2.4.4.4 1 .1 1.4-.3.4-.9.5-1.3.1-.8-.6-1.5-1.3-2.2-1.9-1.1-.9-2.1-1.8-3.2-2.7-.1-.1-.2-.2-.4-.3v8.6c0 .6-.5 1-1 .9-.5 0-.9-.4-.9-1v-.4V5.3v-.5c0-.4 0-.4.4-.4H56c1.9-.1 4 1.4 4.2 3.6.2 2-1.2 3.8-3.2 4.2-.5.1-.8.2-1.1.2zm-3.4-1.5H55.6c.3 0 .5 0 .8-.1.9-.3 1.5-.8 1.8-1.7.4-1.6-.8-3-2.4-3H52.6c-.1 1.6-.1 3.2-.1 4.8zM19.6 11.5h-5.5V16.1c0 .2 0 .3-.1.5-.1.4-.6.7-1 .7-.5 0-.8-.4-.9-.9v-.3-15c0-.2 0-.4.1-.6.2-.4.6-.7 1.1-.6.4.1.8.4.8.9v8.6c.3.1 5.1.1 5.4 0V9 5.6v-.3c0-.5.4-.9.9-.9s.9.3 1 .9V16.4c-.1.5-.5.9-1 .9s-.9-.4-1-.9v-.3V12c.2-.1.2-.3.2-.5zM5.5 17.4c-1.3 0-2.5-.3-3.7-1-.5-.3-.9-.6-1.3-1.1-.2-.2-.3-.5-.5-.7-.2-.4-.1-.8.2-1.1.4-.4.9-.5 1.4-.2.4.2.6.5.8.7l.6.6c.6.6 1.3.9 2.2 1 .8.1 1.6.1 2.3-.2.3-.1.6-.3.9-.5.6-.5.7-1.3 0-1.8-.3-.2-.7-.4-1-.6-.9-.4-1.8-.6-2.7-.9-.8-.2-1.5-.4-2.2-.7-.3-.1-.6-.2-.8-.4C1 10.1.6 9.5.5 8.7.1 7.3.7 6 2.2 5.3c2.2-1.1 4.4-1.1 6.5.1.4.3.8.6 1.1.9.3.2.4.5.5.9.2.6-.1.9-.6 1-.4.1-.8 0-1.2-.4.1-.1 0-.2-.1-.2-.5-.8-1.2-1.2-2.1-1.4-.9-.1-1.8-.1-2.6.2-.3.1-.6.3-.9.5-.6.5-.6 1.2 0 1.7.4.4.8.6 1.3.8 1.1.3 2.1.5 3.2.8.7.2 1.4.4 2 .7.8.4 1.4 1 1.6 2 .2 1.1 0 2.1-.9 2.9-1 .9-2.1 1.4-3.4 1.6-.4-.1-.7 0-1.1 0z"/></symbol><symbol id="tel-circle" viewBox="0 0 24 24"><circle cx="12" cy="18.1" r=".9"/><path d="M14.6 5.5H9.4c-.3 0-.5.2-.5.5v9.9c0 .3.2.5.5.5h5.2c.3 0 .5-.2.5-.5V6c0-.3-.2-.5-.5-.5z"/><path d="M12 0C5.4 0 0 5.4 0 12s5.4 12 12 12 12-5.4 12-12S18.6 0 12 0zm4.7 17.9c0 .9-.7 1.7-1.7 1.7H9c-.9 0-1.7-.7-1.7-1.7V6c0-.9.7-1.7 1.7-1.7h6c.9 0 1.7.7 1.7 1.7v11.9z"/></symbol><symbol id="telegram" viewBox="0 0 24 24"><path d="M0-234zm0 0zM22.9-231.8c0-.2.2-.4.4-.7.4-.5.7-.9.6-1.5-.1-.6-.6-.9-1.1-1.1-.3-.2-.6-.3-.6-.5 0-.1.1-.5.2-.8.2-.5.4-1.1.1-1.6-.3-.5-.9-.6-1.4-.7-.3-.1-.7-.1-.8-.2-.1-.1-.1-.4-.1-.8 0-.6 0-1.2-.4-1.5-.4-.4-1-.3-1.6-.2-.3.1-.7.1-.8.1-.1-.1-.2-.4-.3-.7-.2-.5-.4-1.1-.9-1.3-.5-.2-1 .1-1.5.4-.3.2-.6.3-.8.3-.1 0-.4-.3-.6-.6-.4-.4-.8-.9-1.4-.9-.6 0-1 .5-1.4.9-.2.3-.5.5-.6.6-.1 0-.5-.1-.8-.3-.5-.3-1-.6-1.5-.4-.5.2-.7.7-.9 1.3-.1.3-.2.6-.3.7-.1.1-.4 0-.8-.1-.6-.1-1.1-.2-1.6.2-.4.4-.4.9-.4 1.5 0 .3 0 .7-.1.8-.1.1-.4.2-.8.2-.6.1-1.1.2-1.4.7-.3.5-.1 1 .1 1.6.1.3.2.7.2.8 0 .1-.3.3-.6.5-.5.3-1 .6-1.1 1.1-.1.5.3 1 .6 1.5.2.3.4.6.4.7 0 .2-.2.4-.4.7-.4.5-.7.9-.6 1.5.1.6.6.9 1.1 1.1.3.2.6.3.6.5 0 .1-.1.5-.2.8-.2.5-.4 1.1-.1 1.6.3.5.9.6 1.4.7.3.1.7.1.8.2.1.1.1.4.1.8 0 .6 0 1.2.4 1.5.4.4 1 .3 1.6.2.3-.1.7-.1.8-.1s.2.4.3.7c.2.5.4 1.1.9 1.3.5.2 1-.1 1.5-.4.3-.2.6-.3.8-.3.1 0 .4.3.6.6.4.4.8.9 1.4.9.6 0 1-.5 1.4-.9.2-.3.5-.5.6-.6.1 0 .5.1.8.3.5.3 1 .6 1.5.4.5-.2.7-.7.9-1.3.1-.3.2-.6.3-.7.1-.1.4 0 .8.1.6.1 1.1.2 1.6-.2.4-.4.4-.9.4-1.5 0-.3 0-.7.1-.8.1-.1.4-.2.8-.2.6-.1 1.1-.2 1.4-.7.3-.5.1-1-.1-1.6-.1-.3-.2-.7-.2-.8 0-.1.3-.3.6-.5.5-.3 1-.6 1.1-1.1.1-.5-.3-1-.6-1.5-.2-.3-.4-.6-.4-.7zm.2 2c0 .1-.3.3-.7.5-.4.3-.9.5-1.1 1-.2.5 0 .9.2 1.4.1.3.2.7.2.8-.1.1-.4.2-.8.2-.5.1-1 .2-1.3.5-.3.4-.3.9-.3 1.4 0 .4 0 .7-.1.8-.1.1-.4 0-.8-.1-.5-.1-1-.2-1.4.1-.4.2-.6.7-.8 1.2-.1.3-.2.7-.3.7-.1 0-.4-.1-.7-.3-.5-.3-.9-.5-1.4-.4-.5.1-.8.5-1.1.9-.2.3-.5.6-.6.6-.1 0-.4-.3-.6-.6-.3-.4-.7-.8-1.1-.9-.5-.1-.9.2-1.4.4-.3.2-.6.4-.7.3-.1 0-.2-.4-.3-.7-.2-.5-.3-1-.8-1.2-.4-.2-.9-.2-1.4-.1-.4.1-.7.1-.8.1-.1-.1-.1-.4-.1-.8 0-.5 0-1-.3-1.4-.3-.4-.8-.4-1.3-.5-.4-.1-.7-.1-.8-.2-.1-.1.1-.4.2-.8.2-.5.3-1 .2-1.4-.2-.4-.6-.7-1.1-1-.3-.2-.6-.4-.7-.5 0-.1.2-.4.4-.7.3-.4.7-.8.7-1.3s-.3-.9-.7-1.3c-.2-.3-.5-.6-.4-.7 0-.1.3-.3.7-.5.4-.3.9-.5 1.1-1 .2-.5 0-.9-.2-1.4-.1-.3-.2-.7-.2-.8.1-.1.4-.2.8-.2.5-.1 1-.2 1.3-.5.3-.4.3-.9.3-1.4 0-.4 0-.7.1-.8.1-.1.4 0 .8.1.5.1 1 .2 1.4-.1.4-.2.6-.7.8-1.2.1-.3.2-.7.3-.7.1 0 .4.1.7.3.5.3.9.5 1.4.4.5-.1.8-.5 1.1-.9.2-.3.5-.6.6-.6.1 0 .4.3.6.6.3.4.7.8 1.1.9.5.1.9-.2 1.4-.4.3-.2.6-.4.7-.3.1 0 .2.4.3.7.2.5.3 1 .8 1.2.4.2.9.2 1.4.1.4-.1.7-.1.8-.1.1.1.1.4.1.8 0 .5 0 1 .3 1.4.3.4.8.4 1.3.5.4.1.7.1.8.2.1.1-.1.4-.2.8-.2.5-.3 1-.2 1.4.2.4.6.7 1.1 1 .3.2.6.4.7.5 0 .1-.2.4-.4.7-.3.4-.7.8-.7 1.3s.3.9.7 1.3c.1.3.4.6.4.7zM0 12.3c0 .5.4.9.8 1.1L9.6 16l.3 6.1c0 .2.2.5.4.5h.2c.2 0 .3-.1.5-.2l3.1-3.4 4.4 3c.2.1.4.2.7.2.6 0 1-.4 1.2-.9L24 2.7c0-.2 0-.4-.2-.6-.2-.1-.4-.1-.6-.1L.7 11.2c-.4.2-.7.6-.7 1.1zm11.1 8.3l-.2-3.8 2.3 1.6-2.1 2.2zm8.1.5l-8-5.6L22.4 4.6l-3.2 16.5zm2-16.9L10 14.9l-8.8-2.7 20-8z"/></symbol><symbol id="tools" viewBox="0 0 24 24"><path d="M23.1 2.2L21.7.8c-.9-.9-2.5-1-3.5-.1l-2.5 2.2-.1.1L13 7l-1.6.5c-.1 0-.2.2-.3.3s0 .3.1.4l4.3 4.3c.1.1.2.1.3.1h.1c.1 0 .2-.1.3-.3l.5-1.6L21 8.3l.1-.1 2.1-2.5c.9-1 .8-2.6-.1-3.5zm-.5 3l-2.1 2.4-4.2 2.6-.2.2-.4 1.1-1-1-1.4-1.4-1-1 1.1-.4c.1 0 .2-.1.2-.2l2.5-4.2 2.5-2.2c.7-.6 1.8-.6 2.4.1l1.4 1.4c.8.8.8 1.9.2 2.6z"/><path d="M21.9 16.4c-1.2-1.2-3-1.6-4.5-1.1L8.7 6.6c.6-1.6.1-3.3-1.1-4.5C6.3.8 4.5.4 2.8 1.1c-.1 0-.2.1-.2.3 0 .1 0 .3.1.4l2.6 2.6L3.6 6 1 3.5c-.1-.1-.3-.2-.4-.2-.1 0-.2.1-.3.2-.6 1.7-.3 3.5 1 4.8 1.2 1.2 3 1.6 4.5 1.1L9 12.6l-4 4L2.4 18c-.1 0-.1.1-.2.2L1 20.5c-.1.2 0 .3.1.5l1.4 1.4c.1.1.2.1.3.1H3l2.3-1.2c.1 0 .1-.1.2-.2l1.4-2.6 4-4 3.4 3.4c-.5 1.6-.1 3.4 1.1 4.5.9.9 2 1.3 3.2 1.3.5 0 1.1-.1 1.6-.3.1-.1.2-.2.2-.3 0-.1 0-.3-.1-.4L18 20.4l1.7-1.7 2.6 2.6c.1.1.2.1.4.1.1 0 .2-.1.3-.2.6-1.7.2-3.6-1.1-4.8zM6.5 18.2c-.1.1-.1.1 0 0L5 20.8l-1.9 1-1-1 1-1.9 2.5-1.4s.1 0 .1-.1l4.1-4.1.9.9-4.2 4zm15.9 2L20 17.8c-.2-.2-.4-.2-.6 0l-2.3 2.3c-.1.1-.1.2-.1.3 0 .1 0 .2.1.3l2.4 2.4c-1.2.2-2.4-.1-3.3-1-1-1-1.4-2.6-.8-3.9.1-.2 0-.3-.1-.4l-9-9c-.1-.1-.2-.2-.3-.2h-.1c-1.4.6-3 .2-4-.8C1 6.9.6 5.7.9 4.5l2.4 2.4c.2.2.4.2.6 0l2.3-2.3c.2-.2.2-.4 0-.6L3.8 1.6c1.2-.2 2.4.1 3.3 1 1 1 1.4 2.6.8 3.9-.1.2 0 .4.1.5l9 9c.1.1.3.2.4.1 1.4-.5 2.9-.2 3.9.8.9.9 1.3 2.2 1.1 3.3z"/></symbol><symbol id="user-circle" viewBox="0 0 24 24"><path d="M12 0C5.4 0 0 5.4 0 12s5.4 12 12 12 12-5.4 12-12S18.6 0 12 0zm0 17.7H6.8c0-3.7 3.3-3.7 4-4.7l.1-.4c-1-.5-1.8-1.8-1.8-3.2 0-1.9 1.3-3.5 2.8-3.5s2.8 1.6 2.8 3.5c0 1.5-.7 2.7-1.7 3.2l.1.5c.8.9 4 1 4 4.7H12z"/></symbol><symbol id="user" viewBox="0 0 24 24"><path d="M20.5 15.5c-1.3-1.3-2.9-2.3-4.6-2.9 1.8-1.3 3-3.3 3-5.7C18.9 3.1 15.8 0 12 0S5.1 3.1 5.1 6.9c0 2.4 1.2 4.5 3 5.7-1.7.6-3.3 1.6-4.6 2.9C1.2 17.8 0 20.8 0 24h1.9c0-5.6 4.5-10.1 10.1-10.1S22.1 18.4 22.1 24H24c0-3.2-1.2-6.2-3.5-8.5zM12 12c-2.8 0-5.1-2.3-5.1-5.1s2.3-5 5.1-5 5.1 2.3 5.1 5.1-2.3 5-5.1 5z"/></symbol><symbol id="vertical-cards" viewBox="0 0 24 24"><path d="M0 5.7h5.7V0H0v5.7zM9.2 5.7h5.7V0H9.2v5.7zM18.3 0v5.7H24V0h-5.7zM5.7 9.2H0v5.7h5.7V9.2zM18.3 14.8H24V9.1h-5.7v5.7zM0 24h5.7v-5.7H0V24zM9.2 24h5.7v-5.7H9.2V24zM18.3 24H24v-5.7h-5.7V24zM9.2 9.2v5.7h5.7V9.2H9.2z"/></symbol><symbol id="wattering-can" viewBox="0 0 24 24"><path d="M24 11.7c0-1.8-1.4-3.3-3.2-3.4 0-.7-.5-1.2-1.2-1.2h-2.4V4.3c0-1.1-.9-2-2-2s-2 .9-2 2v2.8h-2.4c-.7 0-1.2.5-1.2 1.2v3.3L4.9 9.1c.1-.9-.2-1.8-.8-2.4-.2-.2-.4-.2-.6 0L.1 10.1c-.2.2-.2.4 0 .6.7.7 1.8 1 2.8.7l6.7 5.9v3c0 .7.5 1.2 1.2 1.2h8.8c.7 0 1.2-.5 1.2-1.2v-5.2a3.4 3.4 0 0 0 3.2-3.4zM14 4.3c0-.7.5-1.2 1.2-1.2s1.2.5 1.2 1.2v2.8H14V4.3zm-3.2 3.6h8.8c.2 0 .4.2.4.4v10h-9.6v-10c0-.2.2-.4.4-.4zM1 10.4l2.8-2.8c.5.8.4 1.8-.3 2.5s-1.7.8-2.5.3zm2.7.6c.1-.1.3-.2.4-.3.2-.2.4-.5.6-.8l5 2.7v3.7l-6-5.3zm15.9 9.7h-8.8c-.2 0-.4-.2-.4-.4v-1.2H20v1.2c0 .2-.2.4-.4.4zm1.2-6.4V9.1c1.4.1 2.4 1.2 2.4 2.6 0 1.4-1 2.5-2.4 2.6z"/></symbol><symbol id="zoo" viewBox="0 0 24 24"><path d="M16 12.6c-1.1-1.7-2.9-2.7-4.9-2.7-2 0-3.8 1-4.9 2.7l-2.6 4.1c-.4.7-.6 1.4-.6 2.2.1.8.4 1.5.9 2.2.5.6 1.2 1 2 1.2.8.2 1.6.1 2.3-.2 1.8-.8 4-.8 5.8 0 .5.2 1 .3 1.5.3.3 0 .6 0 .8-.1.8-.2 1.5-.6 2-1.2s.8-1.4.9-2.2c.1-.8-.1-1.6-.6-2.3l-2.6-4zm1.3 7.6c-.7.8-1.7 1-2.7.6-1.1-.5-2.3-.7-3.5-.7-1.2 0-2.4.2-3.5.7-.9.4-2 .1-2.6-.6-.7-.8-.7-1.9-.2-2.7l2.6-4.1c.8-1.3 2.2-2 3.7-2s2.9.8 3.7 2l2.6 4.1c.6.8.5 1.9-.1 2.7zM4.3 12.6c.8-.3 1.4-.9 1.7-1.8.3-.8.3-1.7-.1-2.5-.3-.8-.9-1.5-1.6-1.9-.8-.4-1.7-.5-2.5-.2C.2 6.8-.5 8.7.2 10.5c.5 1.4 1.8 2.3 3.1 2.3.4 0 .7-.1 1-.2zM1.6 10c-.4-1 0-2.1.8-2.5.2-.1.3-.1.5-.1.3 0 .5.1.8.2.4.2.8.7 1 1.2.2.5.2 1.1.1 1.6-.2.4-.5.8-.8.9-1 .3-2-.3-2.4-1.3zM9.4 9.4c1.9 0 3.5-1.8 3.5-4s-1.6-4-3.5-4-3.5 1.8-3.5 4c-.1 2.2 1.5 4 3.5 4zm0-6.6c1.2 0 2.1 1.2 2.1 2.6 0 1.4-1 2.6-2.1 2.6S7.2 6.9 7.2 5.4c0-1.4 1-2.6 2.2-2.6zM15.4 10.4c.3.1.6.1.9.1 1.4 0 2.8-1 3.3-2.6.4-.9.4-1.8 0-2.7-.4-.9-1-1.5-1.9-1.8-.8-.3-1.8-.2-2.6.3s-1.4 1.2-1.7 2.1c-.5 2 .4 4.1 2 4.6zm-.5-4c.2-.6.6-1.1 1.1-1.4.5-.3.9-.3 1.4-.2.4.1.8.5 1 1 .2.5.2 1.1 0 1.7-.4 1.2-1.5 1.9-2.5 1.6-1-.3-1.4-1.6-1-2.7zM22.9 10c-1.3-1-3.3-.6-4.5 1-1.1 1.5-.9 3.6.4 4.6.5.4 1.1.5 1.7.5 1 0 2.1-.5 2.8-1.5 1.1-1.6.9-3.7-.4-4.6zm-.8 3.7c-.7.9-1.8 1.2-2.5.7s-.8-1.7-.1-2.6c.4-.6 1.1-.9 1.7-.9.3 0 .6.1.8.3.7.4.8 1.6.1 2.5z"/></symbol></svg>