<svg xmlns="http://www.w3.org/2000/svg" viewBox="0 0 24 24">
    <path d="M10.6 7.8c0 .1.1.2.1.2l.2.2.2.2c.1 0 .2.1.3.1.1 0 .2.1.3.1h.6c.1 0 .2 0 .2-.1.1 0 .2-.1.3-.2.1 0 .1-.1.2-.2l.2-.2c0-.1.1-.1.1-.2s.1-.2.1-.3v-.3-.3c0-.1 0-.2-.1-.3-.1-.2-.2-.3-.3-.4l-.2-.2c-.1 0-.2-.1-.2-.1s-.2-.1-.3-.1h-.6c-.1 0-.2 0-.3.1-.1 0-.2.1-.2.1-.1.1-.2.1-.2.2l-.2.2c0 .1-.1.2-.1.2 0 .1-.1.2-.1.3v1z"/>
    <path d="M13.7 15.9h-.5v-5.4c0-.3-.2-.6-.6-.6h-2.3c-.3 0-.6.2-.6.6v1.2c0 .3.2.6.6.6h.5v3.6h-.5c-.3 0-.6.2-.6.6v1.2c0 .3.2.6.6.6h3.4c.3 0 .6-.2.6-.6v-1.2c0-.4-.3-.6-.6-.6z"/>
    <path d="M12 0C5.4 0 0 5.4 0 12s5.4 12 12 12 12-5.4 12-12S18.6 0 12 0zm0 22.4C6.3 22.4 1.6 17.7 1.6 12S6.3 1.6 12 1.6 22.4 6.3 22.4 12 17.7 22.4 12 22.4z"/>
</svg>
