<svg version="1.1" id="Слой_1" xmlns="http://www.w3.org/2000/svg" x="0" y="0" viewBox="0 0 180 49" xml:space="preserve">
    <style>
        .st0,.st1{fill:#fff}.st1{fill-rule:evenodd;clip-rule:evenodd}
    </style>
    <path class="st0" d="M171.6 24.5l-.3.9c-.1.3-.3.5-.5.7-.2.2-.5.4-.9.5-.4.1-.9.2-1.5.2s-1.1-.1-1.5-.2c-.4-.1-.7-.3-.9-.5-.2-.2-.4-.4-.5-.7l-.3-.9-2.6-8.1c0-.2-.1-.3-.2-.4-.1-.1-.1-.2-.2-.2s-.2.1-.2.2v.3l.2 10.2h-5.5v-14c0-.7.2-1.3.5-1.7.4-.4.8-.7 1.2-.9.5-.2.9-.3 1.4-.3h1c.4 0 .7 0 1.1.1.4 0 .8.2 1.2.3.4.2.8.5 1.1.8.3.4.6.9.8 1.5l2.7 8.2s0 .1.1.2c0 .1.1.2.1.3 0 .1.1.2.2.2.1.1.1.1.2.1 0 0 .1 0 .2-.1l.2-.2c0-.1.1-.2.1-.3 0-.1.1-.1.1-.2l2.7-8.2c.2-.7.5-1.2.8-1.5.3-.4.7-.6 1.1-.8.4-.2.8-.3 1.2-.3.4 0 .8-.1 1.2-.1 1 0 1.7.1 2.3.3.5.2 1 .5 1.2.8.3.3.5.6.5 1 .1.3.1.7.1.9v36.2h-5.5l.2-32.4c0-.2 0-.4-.1-.4 0-.1-.1-.1-.1-.1s-.1 0-.1.1-.1.2-.2.5l-2.6 8z"/>
    <path class="st0" d="M74.5 18.2c0 .7 0 1.3.1 1.8s.2 1 .5 1.4c.2.3.4.5.6.7.2.2.4.3.7.4.2.1.5.1.8.2h1.9c.3 0 .6-.1.8-.2.2-.1.5-.2.7-.4.2-.2.4-.4.6-.7.3-.4.5-.9.5-1.4.1-.5.1-1.1.1-1.8v-1c0-.3 0-.6-.1-.8 0-.2-.1-.5-.2-.7-.1-.2-.2-.5-.4-.7-.4-.5-.8-.9-1.3-1-.5-.1-1.1-.2-1.8-.2h-1c-.3 0-.6.1-.8.2-.3.1-.5.2-.7.4l-.6.6c-.3.4-.5.9-.5 1.4.1.5.1 1.1.1 1.8zM69 16.1c0-.4 0-.8.1-1.2.1-.4.2-.9.3-1.3.1-.4.3-.8.6-1.2.2-.4.5-.8.9-1.1.4-.4 1-.7 1.5-1 .6-.2 1.2-.4 1.8-.5.6-.1 1.3-.2 2-.2h4c.7 0 1.3.1 2 .2.6.1 1.3.3 1.8.5.6.2 1.1.6 1.5 1 .4.4.8.9 1.1 1.5.3.6.4 1.1.6 1.8.1.6.2 1.2.2 1.9v3.6c0 .6-.1 1.2-.2 1.8-.1.6-.3 1.2-.6 1.8-.3.6-.6 1.1-1.1 1.5-.4.4-1 .7-1.5 1-.6.2-1.2.4-1.8.5s-1.3.2-2 .2h-4c-.7 0-1.3-.1-2-.2-.6-.1-1.3-.3-1.8-.5-.6-.2-1.1-.6-1.5-1-.3-.3-.6-.6-.8-1-.2-.4-.4-.8-.6-1.3-.2-.5-.3-.9-.4-1.4-.1-.5-.1-1-.1-1.4h-2.2v6.7h-5.4v-17h5.4v6.3H69zm30.8-6.3h5.4v16.8h-5.4V9.8zm11.1 16.8l-4.1-6.4c-.3-.4-.5-.9-.7-1.2-.2-.4-.3-.7-.3-1.1 0-.3.1-.6.2-.9.1-.3.3-.6.6-1l3.9-6.2h6.2l-4.9 6.9c-.1.2-.3.4-.4.6-.1.2-.2.4-.2.6 0 .1.1.3.2.5s.3.6.7 1l5.5 7.1h-6.7v.1zm-17.7-7.1c.3-.4.6-.8.7-1 .1-.2.2-.4.2-.5 0-.2-.1-.4-.2-.6-.1-.2-.3-.4-.4-.6l-4.8-6.9h6.2l3.8 6.2c.2.3.3.6.5.9.2.3.3.6.3.9 0 .3-.1.7-.3 1.1-.2.4-.4.8-.7 1.2l-4.1 6.4h-6.6l5.4-7.1zm36.3 7.1l-3-4.7-3 4.7H117l6.4-8.5-6.2-8.3h6.5l2.9 4.5 2.9-4.5h6.5l-6.2 8.3 6.4 8.5h-6.7zm20 0l.2-9.9v-.4c0-.1-.1-.2-.2-.2s-.2.1-.2.2c-.1.1-.2.3-.4.6l-4.8 8.2c-.1.2-.3.4-.4.6-.2.2-.4.4-.7.6-.3.2-.6.3-1 .4-.4.1-.9.2-1.5.2-.8 0-1.5-.1-2-.3-.5-.2-.9-.5-1.1-.9-.3-.4-.4-.8-.5-1.3-.1-.5-.1-1-.1-1.5V1.3h5.5l-.3 18.1v.7c0 .1.1.2.3.2.1 0 .2-.1.2-.2.1-.1.2-.3.3-.4l4.6-8.1c.3-.5.5-.8.9-1.1.3-.3.6-.5 1-.6.3-.1.6-.2 1-.2h.8c1 0 1.7.2 2.2.5.5.3.9.7 1.2 1.1.3.4.4.9.5 1.4.1.5.1.9.1 1.2v12.8h-5.6v-.1z"/>
    <path class="st1" d="M24.1 1.5l12.6 5.3c2.4 1 4 3.1 4.4 5.7l1.8 14.1c.3 2.6-.7 5-2.8 6.6l-10.9 8.4c-2.2 1.7-4.9 2-7.5 1L9.2 37.3c-2.4-1-4-3.1-4.4-5.7L3 17.5c-.2-1.6.1-3 .8-4.3l1.2 1v.1c-.4.9-.6 1.9-.4 3l.9 7 .9 7c.3 2 1.5 3.6 3.4 4.4l6.4 2.7 6.2 2.6c2 .8 4.1.6 5.8-.8l5.4-4.1 5.5-4.2c1.6-1.3 2.4-3.1 2.2-5.1l-.9-7-.9-7c-.3-2-1.5-3.6-3.4-4.4l-6.4-2.7L23.4 3c-2-.8-4.1-.6-5.8.8l-1.5 1.1-1.2-1.1 1.7-1.3c2.2-1.7 4.9-2 7.5-1z"/>
    <path class="st1" d="M47.6 36l1.3 1.3 1.3 1.3c.4.4.5.9.4 1.4l-.5 1.8-.5 1.8c-.1.5-.5.9-1 1l-1.8.5-1.7.5c-.5.2-1.1 0-1.5-.4L42.3 44 41 42.7c-.4-.4-.5-.9-.4-1.4l.5-1.8.5-1.8c.1-.5.5-.9 1-1l1.8-.5 1.7-.5c.5-.3 1.1-.1 1.5.3z"/>
    <path class="st1" d="M18.4.1l14.8 2.1c2.8.4 5.1 2.1 6.2 4.8l5.8 14.3c1.1 2.7.7 5.5-1.1 7.8l-9 11.9c-1.8 2.4-4.6 3.5-7.6 3.1L12.7 42c-2.8-.4-5.1-2.2-6.2-4.8L.6 22.8c-1.1-2.7-.7-5.5 1.1-7.8l1.7-2.2L4.7 14l-1.6 2.1c-1.4 1.8-1.7 4-.8 6l2.9 7.2 2.9 7.2c.8 2.1 2.6 3.4 4.8 3.7l7.5 1.1 7.3 1c2.3.3 4.5-.6 5.9-2.4l4.5-5.9 4.6-6c1.4-1.8 1.7-4 .8-6l-2.9-7.2-2.9-7.2c-.8-2-2.5-3.3-4.7-3.6l-7.5-1.1-7.3-1c-1.6-.2-3.1.1-4.4 1l-1.4-1.2c1.7-1.4 3.8-1.9 6-1.6z"/>
    <path class="st1" d="M50.8 3.1l.9 1.3.9 1.3c.3.4.3.8.1 1.3L52 8.4l-.7 1.4c-.2.4-.6.7-1 .7l-1.6.1-1.5.1c-.5 0-.9-.2-1.2-.6l-1-1.2-.9-1.3c-.3-.4-.3-.8-.1-1.3l.7-1.4.7-1.4c.2-.4.6-.7 1-.7l1.6-.2 1.5-.1c.6-.1 1 .2 1.3.6z"/>
    <path class="st1" d="M16.3 28.3l1.1.6 1.1.6c.3.2.5.5.5.9V33c0 .4-.2.7-.5.9l-1.1.6-1.1.6c-.3.2-.7.2-1.1 0l-1.1-.6-1.1-.6c-.3-.2-.5-.5-.5-.9v-2.6c0-.4.2-.7.5-.9l1.1-.6 1.1-.6c.4-.2.8-.2 1.1 0z"/>
    <path class="st1" d="M9.2 1.6L11 2.7l1.9 1.1c.6.3.9.9.9 1.5v4.4c0 .6-.3 1.2-.9 1.5L11 12.3l-1.8 1.1c-.6.3-1.3.3-1.8 0l-1.8-1.1-1.9-1.1c-.6-.3-.9-.9-.9-1.5V5.3c0-.6.3-1.2.9-1.5l1.9-1.1 1.8-1.1c.5-.3 1.2-.3 1.8 0z"/>
    <path class="st0" d="M65.1 36.9c-.2.1-.3.2-.6.2-.2 0-.5.1-.8.1-.3 0-.6-.1-.9-.2-.3-.1-.5-.3-.7-.5-.2-.2-.4-.5-.5-.8-.1-.3-.2-.7-.2-1.1 0-.5.1-.8.2-1.2.1-.3.3-.6.5-.8.2-.2.5-.4.8-.4.3-.1.6-.1.8-.1h.8c.2 0 .4.1.5.1l-.2.6c-.2-.1-.6-.2-1-.2-.2 0-.4 0-.6.1-.2.1-.4.2-.5.3-.2.2-.3.4-.4.6-.1.2-.1.5-.1.9 0 .3 0 .6.1.8.1.2.2.4.4.6.2.2.3.3.6.4.2.1.4.1.7.1.2 0 .4 0 .6-.1.2 0 .3-.1.4-.2l.1.8zm4.7-4h-1.7v4.3h-.7v-4.3h-1.7v-.6h4v.6h.1zm1.2-.6c.2 0 .4-.1.6-.1h.7c.2 0 .5 0 .7.1.2 0 .5.1.7.2.2.1.4.3.5.5.1.2.2.5.2.8 0 .3-.1.5-.2.8-.1.2-.3.4-.5.5-.2.1-.4.2-.7.3-.2.1-.5.1-.8.1h-.6v1.8H71v-5zm1.4.5h-.7v1.9h1.1c.2 0 .3-.1.4-.1l.3-.3c.1-.1.1-.3.1-.5s0-.3-.1-.5l-.3-.3c-.1-.1-.3-.1-.4-.1-.1-.1-.3-.1-.4-.1zm3 1.9c0-.4.1-.8.2-1.1.1-.3.2-.6.4-.8.2-.2.4-.4.7-.5.3-.1.6-.2.9-.2.4 0 .7.1 1 .2.3.1.5.3.7.5.2.2.3.5.4.8.1.3.1.7.1 1 0 .4-.1.8-.2 1.1-.1.3-.2.6-.4.8-.2.2-.4.4-.7.5-.3.1-.6.2-.9.2-.4 0-.7-.1-1-.2-.3-.1-.5-.3-.7-.5-.2-.2-.3-.5-.4-.8 0-.3-.1-.6-.1-1zm.8 0c0 .3 0 .5.1.7.1.2.1.4.3.6.1.2.3.3.5.4.2.1.4.2.7.2.5 0 .8-.2 1.1-.5.3-.3.4-.8.4-1.5 0-.3 0-.5-.1-.7-.1-.2-.1-.4-.3-.6-.1-.2-.3-.3-.5-.4-.2-.1-.4-.2-.7-.2-.4 0-.8.2-1.1.5-.3.4-.4.8-.4 1.5zm8.4-.8v-.5l-.3.6-2.5 3.2h-.4v-4.9h.6V36l.4-.6 2.5-3.2h.4v4.9h-.7v-3.2zm5.9-1h-1.7v4.3h-.7v-4.3h-1.7v-.6h4v.6h.1zm1.2-.7h3v.6h-2.3v1.5h2.1v.7h-2.1v1.6h2.3v.6h-3v-5zm7.4.7h-1.5c0 .5-.1.9-.1 1.3s-.1.7-.1 1c0 .3-.1.6-.2.8-.1.2-.1.4-.2.6-.1.2-.3.4-.4.5-.2.1-.3.1-.5.1h-.2c-.1 0-.1 0-.2-.1l.1-.6h.4c.1 0 .1-.1.2-.1s.1-.1.2-.2.1-.3.2-.5.1-.5.2-.8c0-.3.1-.7.1-1.1 0-.4.1-1 .1-1.5h2.9v4.9h-.7v-4.3h-.3zm2.4-.7h.7v1.9h.7c.2 0 .5 0 .7.1.2 0 .4.1.6.2.2.1.3.3.4.5.1.2.2.4.2.7 0 .3-.1.5-.2.7-.1.2-.3.4-.4.5-.2.1-.4.2-.7.3-.3.1-.5.1-.8.1h-1c-.1 0-.2 0-.3-.1v-4.9h.1zm1.3 4.4c.2 0 .3 0 .5-.1.2 0 .3-.1.4-.2l.3-.3c.1-.1.1-.3.1-.4 0-.2 0-.3-.1-.5l-.3-.3c-.1-.1-.3-.1-.4-.1h-.5H102.1v1.8h.3c.2.1.3.1.4.1zm6.6-1.6h-2.5v2.2h-.7v-4.9h.7v2.1h2.5v-2.1h.7v4.9h-.7V35zm6.4-2.8h.7v4.9h-.7v-4.9zm-4 0h.7v1.9h.7c.2 0 .5 0 .7.1.2 0 .4.1.6.2.2.1.3.3.4.5.1.2.2.4.2.7 0 .3-.1.5-.2.7-.1.2-.2.4-.4.5l-.6.3c-.2.1-.5.1-.8.1H112.2c-.1 0-.2 0-.3-.1v-4.9h-.1zm1.2 4.4c.2 0 .3 0 .5-.1.1 0 .3-.1.4-.2l.3-.3c.1-.1.1-.3.1-.4 0-.2 0-.3-.1-.5l-.3-.3c-.1-.1-.2-.1-.4-.1h-1v1.8h.2c.1.1.2.1.3.1zm5.2-4.4h3v.6h-2.3v1.5h2.1v.7h-2.1v1.6h2.3v.6h-3v-5zm10.7 1.8l.1-.8-.3.7-1.4 2.2h-.3l-1.4-2.2-.3-.7.1.8v3.2h-.7v-4.9h.5l1.7 2.5.3.5.2-.5 1.6-2.5h.6v4.9h-.7V34zm4.9 1.9h-1.9l-.5 1.3h-.7l2-5h.4l2 5h-.7l-.6-1.3zm-1.7-.6h1.5l-.6-1.4-.2-.7-.2.8-.5 1.3zm7.2-2.4h-1.7v4.3h-.7v-4.3h-1.7v-.6h4v.6h.1zm1.2-.7h3v.6h-2.3v1.5h2.1v.7h-2.1v1.6h2.3v.6h-3v-5zm4.5.1c.2 0 .4-.1.6-.1h.7c.2 0 .5 0 .7.1.2 0 .5.1.7.2.2.1.4.3.5.5.1.2.2.5.2.8 0 .3-.1.5-.2.8-.1.2-.3.4-.5.5-.2.1-.4.2-.7.3-.2.1-.5.1-.8.1h-.6v1.8h-.6v-5zm1.4.5h-.7v1.9h1.1c.2 0 .3-.1.4-.1l.3-.3c.1-.1.1-.3.1-.5s0-.3-.1-.5l-.3-.3c-.1-.1-.3-.1-.4-.1-.1-.1-.3-.1-.4-.1zm6.6 1.1v-.5l-.3.6-2.5 3.2h-.4v-4.9h.7v3.3l-.1.5.4-.6 2.5-3.2h.4v4.9h-.7v-3.3zm5 2h-1.9l-.5 1.3h-.7l2-5h.4l2 5h-.7l-.6-1.3zm-1.7-.6h1.5l-.6-1.4-.2-.7-.2.8-.5 1.3zm6.9-2.4h-1.5c0 .5-.1.9-.1 1.3s-.1.7-.1 1c0 .3-.1.6-.2.8-.1.2-.1.4-.2.6-.1.2-.3.4-.4.5-.2.1-.3.1-.5.1h-.2c-.1 0-.1 0-.2-.1l.1-.6h.4c.1 0 .1-.1.2-.1s.1-.1.2-.2.1-.3.2-.5.1-.5.2-.8c0-.3.1-.7.1-1.1 0-.4.1-1 .1-1.5h2.9v4.9h-.7v-4.3h-.3zm6.4-.7h.7v4.9h-.7v-4.9zm-4 0h.7v1.9h.7c.2 0 .5 0 .7.1.2 0 .4.1.6.2.2.1.3.3.4.5.1.2.2.4.2.7 0 .3-.1.5-.2.7-.1.2-.2.4-.4.5l-.6.3c-.2.1-.5.1-.8.1H166c-.1 0-.2 0-.3-.1v-4.9h-.1zm1.3 4.4c.2 0 .3 0 .5-.1.1 0 .3-.1.4-.2l.3-.3c.1-.1.1-.3.1-.4 0-.2 0-.3-.1-.5l-.3-.3c-.1-.1-.2-.1-.4-.1h-1v1.8h.2c0 .1.2.1.3.1zM63 43.1l-1.6-2.4h.8l1.1 1.6.2.4.2-.4 1.1-1.6h.8L63.9 43l1.7 2.5h-.8l-1.2-1.7-.2-.4-.2.4-1.2 1.8h-.8l1.8-2.5zm3.5 0c0-.4.1-.8.2-1.1.1-.3.2-.6.4-.8.2-.2.4-.4.7-.5.3-.1.6-.2.9-.2.4 0 .7.1 1 .2.3.1.5.3.7.5.2.2.3.5.4.8.1.3.1.7.1 1 0 .4-.1.8-.2 1.1-.1.3-.2.6-.4.8-.2.2-.4.4-.7.5-.3.1-.6.2-.9.2-.4 0-.7-.1-1-.2-.3-.1-.5-.3-.7-.5-.2-.2-.3-.5-.4-.8-.1-.3-.1-.6-.1-1zm.7 0c0 .3 0 .5.1.7.1.2.1.4.3.6.1.2.3.3.5.4.2.1.4.2.7.2.5 0 .8-.2 1.1-.5.3-.3.4-.8.4-1.5 0-.3 0-.5-.1-.7-.1-.2-.1-.4-.3-.6-.1-.2-.3-.3-.5-.4-.2-.1-.4-.2-.7-.2-.4 0-.8.2-1.1.5-.3.4-.4.9-.4 1.5zm5.6.2v-.5H73.7c.3 0 .5-.1.6-.2.2-.1.3-.3.3-.5 0-.1 0-.3-.1-.4-.1-.1-.1-.2-.2-.2-.1-.1-.2-.1-.3-.1h-.4c-.3 0-.5 0-.7.1-.2 0-.4.1-.5.1l-.2-.6s.1-.1.2-.1.2-.1.3-.1c.1 0 .3 0 .4-.1h.5c.2 0 .4 0 .6.1.2 0 .4.1.5.2.2.1.3.2.4.4.1.2.1.3.1.6 0 .2-.1.5-.2.7-.2.2-.4.4-.8.5.4.1.6.2.9.4.2.2.3.5.3.8 0 .3-.1.5-.2.7-.1.2-.3.4-.5.5l-.6.3c-.2.1-.5.1-.7.1-.3 0-.6 0-.8-.1-.2 0-.4-.1-.6-.1l.2-.6c.1 0 .3.1.5.1s.5.1.8.1c.1 0 .3 0 .4-.1.1 0 .3-.1.4-.2l.3-.3c.1-.1.1-.2.1-.4 0-.3-.1-.5-.3-.6-.2-.1-.5-.2-.9-.2h-.2-.5v-.3zm7.3 2.3h-.7v-2.1l-.7.2-1.3 1.9h-.8l1.2-1.7.5-.3c-.2 0-.3-.1-.5-.2s-.3-.2-.4-.3c-.3-.1-.4-.3-.4-.4-.1-.2-.1-.3-.1-.6s.1-.5.2-.7c.1-.2.3-.4.4-.5l.6-.3c.2-.1.5-.1.8-.1h.6c.2 0 .4 0 .6.1v5zm-1.3-4.4h-.5c-.1 0-.3.1-.4.1l-.3.3c-.1.1-.1.3-.1.5s0 .3.1.4l.3.3c.1.1.2.1.4.2h1v-1.8h-.2-.3zm6.2 1.1v-.5l-.3.6-2.5 3.2h-.4v-4.9h.7V44l-.1.5.4-.6 2.5-3.2h.4v4.9H85v-3.3zm-1.9-2.8c0 .2.1.3.2.4.1.1.3.1.5.1s.4 0 .5-.1c.1-.1.2-.2.2-.4l.6.1c-.1.3-.2.5-.4.6-.2.1-.5.2-.9.2s-.7-.1-.9-.2c-.2-.1-.4-.3-.4-.6l.6-.1zm7.8 5.8c-.2.1-.4.2-.6.2-.2 0-.5.1-.8.1-.3 0-.6-.1-.9-.2-.3-.1-.5-.3-.7-.5-.2-.2-.4-.5-.5-.8-.1-.3-.2-.7-.2-1.1 0-.5.1-.8.2-1.2.1-.3.3-.6.5-.8.2-.2.5-.4.8-.4.3-.1.6-.1.8-.1h.8c.2 0 .4.1.5.1l-.2.6c-.2-.1-.6-.2-1-.2-.2 0-.4 0-.6.1-.2.1-.4.2-.5.3-.2.2-.3.4-.4.6-.1.2-.1.5-.1.9 0 .3 0 .6.1.8.1.2.2.4.4.6.2.2.3.3.6.4.2.1.4.1.7.1.2 0 .4 0 .6-.1.2 0 .3-.1.4-.2l.1.8zm4.6-4h-1.7v4.3h-.7v-4.3h-1.7v-.6h4v.6h.1zm4.5.5c0 .1 0 .2-.1.4 0 .1-.1.2-.2.3l-.3.3c-.1.1-.3.1-.4.2.1 0 .3.1.4.1.1.1.3.1.4.2.1.1.2.2.3.4.1.1.1.3.1.5 0 .3-.1.5-.2.7-.1.2-.3.3-.5.5l-.6.3c-.2.1-.5.1-.7.1h-1.1c-.1 0-.3 0-.4-.1v-4.8c.2 0 .4-.1.7-.1h.8c.2 0 .4 0 .6.1.2 0 .4.1.6.2.2.1.3.2.4.4.2-.2.2 0 .2.3zM97.5 45h1.2c.1 0 .3-.1.4-.2l.3-.3c.1-.1.1-.2.1-.4s0-.3-.1-.4l-.3-.3c-.1-.1-.3-.1-.4-.1h-1.2V45zm.3-2.2h.6c.1 0 .2-.1.3-.1.1-.1.2-.1.3-.2l.2-.2c0-.1.1-.2.1-.3 0-.2 0-.3-.1-.4-.1-.1-.1-.2-.2-.2-.1-.1-.2-.1-.3-.1h-1.2v1.6h.3v-.1zm3.9-2.1h3v.6h-2.3v1.5h2.1v.6h-2.1V45h2.3v.6h-3v-4.9zm7.7 2.7h-2.5v2.2h-.7v-4.9h.7v2.1h2.5v-2.1h.7v4.9h-.7v-2.2zm5.6 0h-2.5v2.2h-.7v-4.9h.7v2.1h2.5v-2.1h.7v4.9h-.7v-2.2zm6.4-2.7h.7v4.9h-.7v-4.9zm-4 0h.7v1.9h.7c.2 0 .5 0 .7.1.2 0 .4.1.6.2.2.1.3.3.4.5.1.2.2.4.2.7 0 .3-.1.5-.2.7-.1.2-.2.4-.4.5l-.6.3c-.2.1-.5.1-.8.1H117.8c-.1 0-.2 0-.3-.1v-4.9h-.1zm1.3 4.3c.2 0 .3 0 .5-.1.1 0 .3-.1.4-.2l.3-.3c.1-.1.1-.3.1-.4 0-.2 0-.3-.1-.5l-.3-.3c-.1-.1-.2-.1-.4-.1h-1V45h.5zm5.1-4.3h3v.6h-2.3v1.5h2.1v.6h-2.1V45h2.3v.6h-3v-4.9zm9.9.6H132v4.3h-.7v-4.3h-1.7v-.6h4v.6h.1zm.6 1.8c0-.4.1-.8.2-1.1.1-.3.2-.6.4-.8.2-.2.4-.4.7-.5.3-.1.6-.2.9-.2.4 0 .7.1 1 .2.3.1.5.3.7.5.2.2.3.5.4.8.1.3.1.7.1 1 0 .4-.1.8-.2 1.1-.1.3-.2.6-.4.8-.2.2-.4.4-.7.5-.3.1-.6.2-.9.2-.4 0-.7-.1-1-.2-.3-.1-.5-.3-.7-.5-.2-.2-.3-.5-.4-.8 0-.3-.1-.6-.1-1zm.8 0c0 .3 0 .5.1.7.1.2.1.4.3.6.1.2.3.3.5.4.2.1.4.2.7.2.5 0 .8-.2 1.1-.5.3-.3.4-.8.4-1.5 0-.3 0-.5-.1-.7-.1-.2-.1-.4-.3-.6-.1-.2-.3-.3-.5-.4-.2-.1-.4-.2-.7-.2-.4 0-.8.2-1.1.5-.3.4-.4.9-.4 1.5z"/>
    <path class="st0" d="M143.5 41.8c0 .1 0 .2-.1.4 0 .1-.1.2-.2.3l-.3.3c-.1.1-.3.1-.4.2.1 0 .3.1.4.1.1.1.3.1.4.2.1.1.2.2.3.4.1.1.1.3.1.5 0 .3-.1.5-.2.7-.1.2-.3.3-.5.5l-.6.3c-.2.1-.5.1-.7.1h-1.1c-.1 0-.3 0-.4-.1v-4.8c.2 0 .4-.1.7-.1h.8c.2 0 .4 0 .6.1.2 0 .4.1.6.2.2.1.3.2.4.4.1-.2.2 0 .2.3zm-2.6 3.2h1.2c.1 0 .3-.1.4-.2l.3-.3c.1-.1.1-.2.1-.4s0-.3-.1-.4l-.3-.3c-.1-.1-.3-.1-.4-.1h-1.2V45zm.4-2.2h.6c.1 0 .2-.1.3-.1.1-.1.2-.1.3-.2l.2-.2c0-.1.1-.2.1-.3 0-.2 0-.3-.1-.4-.1-.1-.1-.2-.2-.2-.1-.1-.2-.1-.3-.1H141v1.6h.3v-.1zm6.4 1.5h-1.9l-.5 1.3h-.7l2-5h.4l2 5h-.7l-.6-1.3zm-1.7-.6h1.5l-.6-1.4-.2-.7-.2.8-.5 1.3zm4.1-3c.2 0 .4-.1.6-.1h.7c.2 0 .5 0 .7.1.2 0 .5.1.7.2.2.1.4.3.5.5.1.2.2.5.2.8 0 .3-.1.5-.2.8-.1.2-.3.4-.5.5-.2.1-.4.2-.7.3-.2.1-.5.1-.8.1h-.6v1.8h-.7v-5h.1zm1.4.5h-.7v1.9h1.1c.2 0 .3-.1.4-.1l.3-.3c.1-.1.1-.3.1-.5s0-.3-.1-.5l-.3-.3c-.1-.1-.3-.1-.4-.1-.1-.1-.3-.1-.4-.1zm7.3-.5h.7v4.9h-.7v-4.9zm-3.9 0h.7v1.9h.7c.2 0 .5 0 .7.1.2 0 .4.1.6.2.2.1.3.3.4.5.1.2.2.4.2.7 0 .3-.1.5-.2.7-.1.2-.2.4-.4.5l-.6.3c-.2.1-.5.1-.8.1H155.3c-.1 0-.2 0-.3-.1v-4.9h-.1zm1.2 4.3c.2 0 .3 0 .5-.1.1 0 .3-.1.4-.2l.3-.3c.1-.1.1-.3.1-.4 0-.2 0-.3-.1-.5l-.3-.3c-.1-.1-.2-.1-.4-.1h-1V45h.5z"/>
</svg>
