<svg xmlns="http://www.w3.org/2000/svg" viewBox="0 0 24 24"><path d="M10.6 7.8c0 0.1 0.1 0.2 0.1 0.2s0.1 0.1 0.2 0.2c0.1 0.1 0.1 0.1 0.2 0.2 0.1 0 0.2 0.1 0.3 0.1 0.1 0 0.2 0.1 0.3 0.1 0.1 0 0.2 0 0.3 0 0.1 0 0.2 0 0.3 0 0.1 0 0.2 0 0.2-0.1h0c0.1 0 0.2-0.1 0.3-0.2 0.1 0 0.1-0.1 0.2-0.2l0 0c0.1-0.1 0.1-0.1 0.2-0.2 0-0.1 0.1-0.1 0.1-0.2 0 0 0 0 0 0 0-0.1 0.1-0.2 0.1-0.3 0-0.1 0-0.2 0-0.3 0-0.1 0-0.2 0-0.3 0-0.1 0-0.2-0.1-0.3 -0.1-0.2-0.2-0.3-0.3-0.4 0 0 0 0 0 0 -0.1-0.1-0.1-0.1-0.2-0.2 -0.1 0-0.2-0.1-0.2-0.1s-0.2-0.1-0.3-0.1c-0.1 0-0.2 0-0.3 0s-0.2 0-0.3 0c-0.1 0-0.2 0-0.3 0.1h0c-0.1 0-0.2 0.1-0.2 0.1 -0.1 0.1-0.2 0.1-0.2 0.2 -0.1 0.1-0.1 0.1-0.2 0.2 0 0.1-0.1 0.2-0.1 0.2 0 0.1-0.1 0.2-0.1 0.3 0 0.1 0 0.2 0 0.3 0 0.1 0 0.2 0 0.3C10.6 7.7 10.6 7.7 10.6 7.8z"/><path d="M13.7 15.9h-0.5v-5.4c0-0.3-0.2-0.6-0.6-0.6h-2.3c-0.3 0-0.6 0.2-0.6 0.6v1.2c0 0.3 0.2 0.6 0.6 0.6h0.5v3.6h-0.5c-0.3 0-0.6 0.2-0.6 0.6v1.2c0 0.3 0.2 0.6 0.6 0.6h3.4c0.3 0 0.6-0.2 0.6-0.6v-1.2C14.3 16.1 14 15.9 13.7 15.9z"/><path d="M12 0C5.4 0 0 5.4 0 12s5.4 12 12 12 12-5.4 12-12S18.6 0 12 0zM12 22.4C6.3 22.4 1.6 17.7 1.6 12S6.3 1.6 12 1.6 22.4 6.3 22.4 12 17.7 22.4 12 22.4z"/></svg>
