<?xml version="1.0" encoding="utf-8"?>
<!-- Generator: Adobe Illustrator 22.1.0, SVG Export Plug-In . SVG Version: 6.00 Build 0)  -->
<svg version="1.1" id="Слой_1" xmlns="http://www.w3.org/2000/svg" xmlns:xlink="http://www.w3.org/1999/xlink" x="0px" y="0px"
	 viewBox="0 0 180 49" style="enable-background:new 0 0 180 49;" xml:space="preserve">
<style type="text/css">
	.st0{fill:#485E87;}
	.st1{fill-rule:evenodd;clip-rule:evenodd;fill:url(#SVGID_1_);}
	.st2{fill-rule:evenodd;clip-rule:evenodd;fill:url(#SVGID_2_);}
	.st3{fill-rule:evenodd;clip-rule:evenodd;fill:url(#SVGID_3_);}
	.st4{fill-rule:evenodd;clip-rule:evenodd;fill:url(#SVGID_4_);}
	.st5{fill-rule:evenodd;clip-rule:evenodd;fill:url(#SVGID_5_);}
	.st6{fill-rule:evenodd;clip-rule:evenodd;fill:url(#SVGID_6_);}
	.st7{fill:#231F20;}
</style>
<path class="st0" d="M171.6,24.5c-0.1,0.3-0.2,0.6-0.3,0.9c-0.1,0.3-0.3,0.5-0.5,0.7c-0.2,0.2-0.5,0.4-0.9,0.5
	c-0.4,0.1-0.9,0.2-1.5,0.2c-0.6,0-1.1-0.1-1.5-0.2c-0.4-0.1-0.7-0.3-0.9-0.5c-0.2-0.2-0.4-0.4-0.5-0.7c-0.1-0.3-0.2-0.6-0.3-0.9
	l-2.6-8.1c0-0.2-0.1-0.3-0.2-0.4c-0.1-0.1-0.1-0.2-0.2-0.2c-0.1,0-0.2,0.1-0.2,0.2c0,0.1,0,0.3,0,0.3l0.2,10.2h-5.5v-14
	c0-0.7,0.2-1.3,0.5-1.7c0.4-0.4,0.8-0.7,1.2-0.9c0.5-0.2,0.9-0.3,1.4-0.3c0.5,0,0.8,0,1,0c0.4,0,0.7,0,1.1,0.1
	c0.4,0,0.8,0.2,1.2,0.3c0.4,0.2,0.8,0.5,1.1,0.8c0.3,0.4,0.6,0.9,0.8,1.5l2.7,8.2c0,0,0,0.1,0.1,0.2c0,0.1,0.1,0.2,0.1,0.3
	c0,0.1,0.1,0.2,0.2,0.2c0.1,0.1,0.1,0.1,0.2,0.1c0,0,0.1,0,0.2-0.1c0.1-0.1,0.1-0.1,0.2-0.2c0-0.1,0.1-0.2,0.1-0.3
	c0-0.1,0.1-0.1,0.1-0.2l2.7-8.2c0.2-0.7,0.5-1.2,0.8-1.5c0.3-0.4,0.7-0.6,1.1-0.8c0.4-0.2,0.8-0.3,1.2-0.3c0.4,0,0.8-0.1,1.2-0.1
	c1,0,1.7,0.1,2.3,0.3c0.5,0.2,1,0.5,1.2,0.8c0.3,0.3,0.5,0.6,0.5,1c0.1,0.3,0.1,0.7,0.1,0.9v36.2h-5.5l0.2-32.4c0-0.2,0-0.4-0.1-0.4
	c0-0.1-0.1-0.1-0.1-0.1c0,0-0.1,0-0.1,0.1c0,0.1-0.1,0.2-0.2,0.5L171.6,24.5L171.6,24.5z"/>
<path class="st0" d="M74.5,18.2c0,0.7,0,1.3,0.1,1.8c0.1,0.5,0.2,1,0.5,1.4c0.2,0.3,0.4,0.5,0.6,0.7c0.2,0.2,0.4,0.3,0.7,0.4
	c0.2,0.1,0.5,0.1,0.8,0.2c0.3,0,0.6,0,0.9,0c0.4,0,0.7,0,1,0c0.3,0,0.6-0.1,0.8-0.2c0.2-0.1,0.5-0.2,0.7-0.4
	c0.2-0.2,0.4-0.4,0.6-0.7c0.3-0.4,0.5-0.9,0.5-1.4c0.1-0.5,0.1-1.1,0.1-1.8c0-0.4,0-0.7,0-1c0-0.3,0-0.6-0.1-0.8
	c0-0.2-0.1-0.5-0.2-0.7c-0.1-0.2-0.2-0.5-0.4-0.7c-0.4-0.5-0.8-0.9-1.3-1c-0.5-0.1-1.1-0.2-1.8-0.2c-0.4,0-0.7,0-1,0
	c-0.3,0-0.6,0.1-0.8,0.2c-0.3,0.1-0.5,0.2-0.7,0.4c-0.2,0.2-0.4,0.4-0.6,0.6c-0.3,0.4-0.5,0.9-0.5,1.4
	C74.5,16.9,74.5,17.5,74.5,18.2L74.5,18.2z M69,16.1c0-0.4,0-0.8,0.1-1.2c0.1-0.4,0.2-0.9,0.3-1.3c0.1-0.4,0.3-0.8,0.6-1.2
	c0.2-0.4,0.5-0.8,0.9-1.1c0.4-0.4,1-0.7,1.5-1c0.6-0.2,1.2-0.4,1.8-0.5c0.6-0.1,1.3-0.2,2-0.2c0.7,0,1.3,0,2,0c0.6,0,1.3,0,2,0
	c0.7,0,1.3,0.1,2,0.2c0.6,0.1,1.3,0.3,1.8,0.5c0.6,0.2,1.1,0.6,1.5,1c0.4,0.4,0.8,0.9,1.1,1.5c0.3,0.6,0.4,1.1,0.6,1.8
	c0.1,0.6,0.2,1.2,0.2,1.9c0,0.6,0,1.2,0,1.8c0,0.6,0,1.2,0,1.8c0,0.6-0.1,1.2-0.2,1.8c-0.1,0.6-0.3,1.2-0.6,1.8
	c-0.3,0.6-0.6,1.1-1.1,1.5c-0.4,0.4-1,0.7-1.5,1c-0.6,0.2-1.2,0.4-1.8,0.5s-1.3,0.2-2,0.2c-0.7,0-1.3,0-2,0c-0.6,0-1.3,0-2,0
	c-0.7,0-1.3-0.1-2-0.2c-0.6-0.1-1.3-0.3-1.8-0.5c-0.6-0.2-1.1-0.6-1.5-1c-0.3-0.3-0.6-0.6-0.8-1c-0.2-0.4-0.4-0.8-0.6-1.3
	c-0.2-0.5-0.3-0.9-0.4-1.4c-0.1-0.5-0.1-1-0.1-1.4h-2.2v6.7h-5.4V9.8h5.4v6.3H69L69,16.1z M99.8,9.8h5.4v16.8h-5.4V9.8L99.8,9.8z
	 M110.9,26.6l-4.1-6.4c-0.3-0.4-0.5-0.9-0.7-1.2c-0.2-0.4-0.3-0.7-0.3-1.1c0-0.3,0.1-0.6,0.2-0.9c0.1-0.3,0.3-0.6,0.6-1l3.9-6.2h6.2
	l-4.9,6.9c-0.1,0.2-0.3,0.4-0.4,0.6c-0.1,0.2-0.2,0.4-0.2,0.6c0,0.1,0.1,0.3,0.2,0.5c0.1,0.2,0.3,0.6,0.7,1l5.5,7.1H110.9
	L110.9,26.6z M93.2,19.5c0.3-0.4,0.6-0.8,0.7-1c0.1-0.2,0.2-0.4,0.2-0.5c0-0.2-0.1-0.4-0.2-0.6c-0.1-0.2-0.3-0.4-0.4-0.6l-4.8-6.9
	h6.2l3.8,6.2c0.2,0.3,0.3,0.6,0.5,0.9c0.2,0.3,0.3,0.6,0.3,0.9c0,0.3-0.1,0.7-0.3,1.1c-0.2,0.4-0.4,0.8-0.7,1.2l-4.1,6.4h-6.6
	L93.2,19.5L93.2,19.5z M129.5,26.6l-3-4.7l-3,4.7H117l6.4-8.5l-6.2-8.3h6.5l2.9,4.5l2.9-4.5h6.5l-6.2,8.3l6.4,8.5H129.5L129.5,26.6z
	 M149.5,26.6l0.2-9.9c0-0.2,0-0.3,0-0.4c0-0.1-0.1-0.2-0.2-0.2c-0.1,0-0.2,0.1-0.2,0.2c-0.1,0.1-0.2,0.3-0.4,0.6l-4.8,8.2
	c-0.1,0.2-0.3,0.4-0.4,0.6c-0.2,0.2-0.4,0.4-0.7,0.6c-0.3,0.2-0.6,0.3-1,0.4c-0.4,0.1-0.9,0.2-1.5,0.2c-0.8,0-1.5-0.1-2-0.3
	c-0.5-0.2-0.9-0.5-1.1-0.9c-0.3-0.4-0.4-0.8-0.5-1.3c-0.1-0.5-0.1-1-0.1-1.5V1.3h5.5L142,19.4v0.3c0,0.1,0,0.2,0,0.4
	c0,0.1,0.1,0.2,0.3,0.2c0.1,0,0.2-0.1,0.2-0.2c0.1-0.1,0.2-0.3,0.3-0.4l4.6-8.1c0.3-0.5,0.5-0.8,0.9-1.1c0.3-0.3,0.6-0.5,1-0.6
	c0.3-0.1,0.6-0.2,1-0.2c0.3,0,0.6,0,0.8,0c1,0,1.7,0.2,2.2,0.5c0.5,0.3,0.9,0.7,1.2,1.1c0.3,0.4,0.4,0.9,0.5,1.4
	c0.1,0.5,0.1,0.9,0.1,1.2v12.8H149.5L149.5,26.6z"/>
<g>
	<linearGradient id="SVGID_1_" gradientUnits="userSpaceOnUse" x1="2.9192" y1="22.0948" x2="42.9582" y2="22.0948">
		<stop  offset="0" style="stop-color:#EC683D"/>
		<stop  offset="1" style="stop-color:#E74411"/>
	</linearGradient>
	<path class="st1" d="M24.1,1.5l12.6,5.3c2.4,1,4,3.1,4.4,5.7l1.8,14.1c0.3,2.6-0.7,5-2.8,6.6l-10.9,8.4c-2.2,1.7-4.9,2-7.5,1
		L9.2,37.3c-2.4-1-4-3.1-4.4-5.7L3,17.5c-0.2-1.6,0.1-3,0.8-4.3l1.2,1L5,14.3c-0.4,0.9-0.6,1.9-0.4,3l0.9,7l0.9,7
		c0.3,2,1.5,3.6,3.4,4.4l6.4,2.7l6.2,2.6c2,0.8,4.1,0.6,5.8-0.8l5.4-4.1l5.5-4.2c1.6-1.3,2.4-3.1,2.2-5.1l-0.9-7l-0.9-7
		c-0.3-2-1.5-3.6-3.4-4.4l-6.4-2.7L23.4,3c-2-0.8-4.1-0.6-5.8,0.8l-1.5,1.1l-1.2-1.1l1.7-1.3C18.8,0.8,21.5,0.5,24.1,1.5L24.1,1.5z"
		/>
	<linearGradient id="SVGID_2_" gradientUnits="userSpaceOnUse" x1="40.5808" y1="40.6012" x2="50.6312" y2="40.6012">
		<stop  offset="0" style="stop-color:#EC683D"/>
		<stop  offset="1" style="stop-color:#E74411"/>
	</linearGradient>
	<path class="st2" d="M47.6,36l1.3,1.3l1.3,1.3c0.4,0.4,0.5,0.9,0.4,1.4l-0.5,1.8l-0.5,1.8c-0.1,0.5-0.5,0.9-1,1l-1.8,0.5l-1.7,0.5
		c-0.5,0.2-1.1,0-1.5-0.4L42.3,44L41,42.7c-0.4-0.4-0.5-0.9-0.4-1.4l0.5-1.8l0.5-1.8c0.1-0.5,0.5-0.9,1-1l1.8-0.5l1.7-0.5
		C46.6,35.4,47.2,35.6,47.6,36L47.6,36z"/>
	<linearGradient id="SVGID_3_" gradientUnits="userSpaceOnUse" x1="41.9017" y1="11.1467" x2="3.976" y2="33.0431">
		<stop  offset="0" style="stop-color:#E74411"/>
		<stop  offset="1" style="stop-color:#EC683D"/>
	</linearGradient>
	<path class="st3" d="M18.4,0.1l14.8,2.1c2.8,0.4,5.1,2.1,6.2,4.8l5.8,14.3c1.1,2.7,0.7,5.5-1.1,7.8L35.1,41
		c-1.8,2.4-4.6,3.5-7.6,3.1L12.7,42c-2.8-0.4-5.1-2.2-6.2-4.8L0.6,22.8c-1.1-2.7-0.7-5.5,1.1-7.8l1.7-2.2L4.7,14l-1.6,2.1
		c-1.4,1.8-1.7,4-0.8,6l2.9,7.2l2.9,7.2c0.8,2.1,2.6,3.4,4.8,3.7l7.5,1.1l7.3,1c2.3,0.3,4.5-0.6,5.9-2.4l4.5-5.9l4.6-6
		c1.4-1.8,1.7-4,0.8-6l-2.9-7.2l-2.9-7.2C36.9,5.6,35.2,4.3,33,4l-7.5-1.1l-7.3-1c-1.6-0.2-3.1,0.1-4.4,1l-1.4-1.2
		C14.1,0.3,16.2-0.2,18.4,0.1L18.4,0.1z"/>
	<linearGradient id="SVGID_4_" gradientUnits="userSpaceOnUse" x1="43.9371" y1="6.6098" x2="52.7282" y2="6.6098">
		<stop  offset="0" style="stop-color:#E74411"/>
		<stop  offset="1" style="stop-color:#EC683D"/>
	</linearGradient>
	<path class="st4" d="M50.8,3.1l0.9,1.3l0.9,1.3c0.3,0.4,0.3,0.8,0.1,1.3l-0.7,1.4l-0.7,1.4c-0.2,0.4-0.6,0.7-1,0.7l-1.6,0.1
		l-1.5,0.1c-0.5,0-0.9-0.2-1.2-0.6L45,8.9l-0.9-1.3c-0.3-0.4-0.3-0.8-0.1-1.3l0.7-1.4l0.7-1.4c0.2-0.4,0.6-0.7,1-0.7L48,2.6l1.5-0.1
		C50.1,2.4,50.5,2.7,50.8,3.1L50.8,3.1z"/>
	<linearGradient id="SVGID_5_" gradientUnits="userSpaceOnUse" x1="12.522" y1="31.7437" x2="18.984" y2="31.7437">
		<stop  offset="0" style="stop-color:#E74411"/>
		<stop  offset="1" style="stop-color:#EC683D"/>
	</linearGradient>
	<path class="st5" d="M16.3,28.3l1.1,0.6l1.1,0.6c0.3,0.2,0.5,0.5,0.5,0.9v1.3V33c0,0.4-0.2,0.7-0.5,0.9l-1.1,0.6l-1.1,0.6
		c-0.3,0.2-0.7,0.2-1.1,0l-1.1-0.6L13,33.9c-0.3-0.2-0.5-0.5-0.5-0.9v-1.3v-1.3c0-0.4,0.2-0.7,0.5-0.9l1.1-0.6l1.1-0.6
		C15.6,28.1,16,28.1,16.3,28.3L16.3,28.3z"/>
	<linearGradient id="SVGID_6_" gradientUnits="userSpaceOnUse" x1="2.7689" y1="7.4811" x2="13.7149" y2="7.4811">
		<stop  offset="0" style="stop-color:#EC683D"/>
		<stop  offset="1" style="stop-color:#E74411"/>
	</linearGradient>
	<path class="st6" d="M9.2,1.6L11,2.7l1.9,1.1c0.6,0.3,0.9,0.9,0.9,1.5v2.2v2.2c0,0.6-0.3,1.2-0.9,1.5L11,12.3l-1.8,1.1
		c-0.6,0.3-1.3,0.3-1.8,0l-1.8-1.1l-1.9-1.1c-0.6-0.3-0.9-0.9-0.9-1.5V7.5V5.3c0-0.6,0.3-1.2,0.9-1.5l1.9-1.1l1.8-1.1
		C7.9,1.3,8.6,1.3,9.2,1.6L9.2,1.6z"/>
</g>
<path class="st7" d="M65.1,36.9c-0.2,0.1-0.3,0.2-0.6,0.2c-0.2,0-0.5,0.1-0.8,0.1c-0.3,0-0.6-0.1-0.9-0.2c-0.3-0.1-0.5-0.3-0.7-0.5
	c-0.2-0.2-0.4-0.5-0.5-0.8c-0.1-0.3-0.2-0.7-0.2-1.1c0-0.5,0.1-0.8,0.2-1.2c0.1-0.3,0.3-0.6,0.5-0.8c0.2-0.2,0.5-0.4,0.8-0.4
	c0.3-0.1,0.6-0.1,0.8-0.1c0.3,0,0.6,0,0.8,0c0.2,0,0.4,0.1,0.5,0.1l-0.2,0.6c-0.2-0.1-0.6-0.2-1-0.2c-0.2,0-0.4,0-0.6,0.1
	c-0.2,0.1-0.4,0.2-0.5,0.3c-0.2,0.2-0.3,0.4-0.4,0.6c-0.1,0.2-0.1,0.5-0.1,0.9c0,0.3,0,0.6,0.1,0.8c0.1,0.2,0.2,0.4,0.4,0.6
	c0.2,0.2,0.3,0.3,0.6,0.4c0.2,0.1,0.4,0.1,0.7,0.1c0.2,0,0.4,0,0.6-0.1c0.2,0,0.3-0.1,0.4-0.2L65.1,36.9L65.1,36.9z M69.8,32.9h-1.7
	v4.3h-0.7v-4.3h-1.7v-0.6h4V32.9L69.8,32.9z M71,32.3c0.2,0,0.4-0.1,0.6-0.1c0.2,0,0.5,0,0.7,0c0.2,0,0.5,0,0.7,0.1
	c0.2,0,0.5,0.1,0.7,0.2c0.2,0.1,0.4,0.3,0.5,0.5c0.1,0.2,0.2,0.5,0.2,0.8c0,0.3-0.1,0.5-0.2,0.8c-0.1,0.2-0.3,0.4-0.5,0.5
	c-0.2,0.1-0.4,0.2-0.7,0.3c-0.2,0.1-0.5,0.1-0.8,0.1c0,0-0.1,0-0.1,0c-0.1,0-0.1,0-0.2,0c-0.1,0-0.1,0-0.2,0c-0.1,0-0.1,0-0.1,0v1.8
	H71V32.3L71,32.3z M72.4,32.8c-0.1,0-0.2,0-0.4,0c-0.1,0-0.2,0-0.3,0v1.9c0,0,0.1,0,0.1,0c0.1,0,0.1,0,0.2,0c0.1,0,0.1,0,0.2,0
	c0.1,0,0.1,0,0.1,0c0.2,0,0.3,0,0.5,0c0.2,0,0.3-0.1,0.4-0.1c0.1-0.1,0.2-0.2,0.3-0.3c0.1-0.1,0.1-0.3,0.1-0.5c0-0.2,0-0.3-0.1-0.5
	c-0.1-0.1-0.2-0.2-0.3-0.3c-0.1-0.1-0.3-0.1-0.4-0.1C72.7,32.8,72.5,32.8,72.4,32.8L72.4,32.8z M75.4,34.7c0-0.4,0.1-0.8,0.2-1.1
	c0.1-0.3,0.2-0.6,0.4-0.8c0.2-0.2,0.4-0.4,0.7-0.5c0.3-0.1,0.6-0.2,0.9-0.2c0.4,0,0.7,0.1,1,0.2c0.3,0.1,0.5,0.3,0.7,0.5
	c0.2,0.2,0.3,0.5,0.4,0.8c0.1,0.3,0.1,0.7,0.1,1c0,0.4-0.1,0.8-0.2,1.1c-0.1,0.3-0.2,0.6-0.4,0.8c-0.2,0.2-0.4,0.4-0.7,0.5
	c-0.3,0.1-0.6,0.2-0.9,0.2c-0.4,0-0.7-0.1-1-0.2c-0.3-0.1-0.5-0.3-0.7-0.5c-0.2-0.2-0.3-0.5-0.4-0.8C75.5,35.4,75.4,35.1,75.4,34.7
	L75.4,34.7z M76.2,34.7c0,0.3,0,0.5,0.1,0.7c0.1,0.2,0.1,0.4,0.3,0.6c0.1,0.2,0.3,0.3,0.5,0.4c0.2,0.1,0.4,0.2,0.7,0.2
	c0.5,0,0.8-0.2,1.1-0.5c0.3-0.3,0.4-0.8,0.4-1.5c0-0.3,0-0.5-0.1-0.7c-0.1-0.2-0.1-0.4-0.3-0.6c-0.1-0.2-0.3-0.3-0.5-0.4
	c-0.2-0.1-0.4-0.2-0.7-0.2c-0.4,0-0.8,0.2-1.1,0.5C76.3,33.6,76.2,34,76.2,34.7L76.2,34.7z M84.6,33.9l0-0.5h0l-0.3,0.6l-2.5,3.2
	h-0.4v-4.9H82v3.3L82,36h0l0.4-0.6l2.5-3.2h0.4v4.9h-0.7V33.9L84.6,33.9z M90.5,32.9h-1.7v4.3h-0.7v-4.3h-1.7v-0.6h4V32.9L90.5,32.9
	z M91.7,32.2h3v0.6h-2.3v1.5h2.1V35h-2.1v1.6h2.3v0.6h-3V32.2L91.7,32.2z M99.1,32.9h-1.5c0,0.5-0.1,0.9-0.1,1.3
	c0,0.4-0.1,0.7-0.1,1c0,0.3-0.1,0.6-0.2,0.8c-0.1,0.2-0.1,0.4-0.2,0.6c-0.1,0.2-0.3,0.4-0.4,0.5c-0.2,0.1-0.3,0.1-0.5,0.1
	c-0.1,0-0.2,0-0.2,0c-0.1,0-0.1,0-0.2-0.1l0.1-0.6c0.1,0,0.1,0,0.2,0c0.1,0,0.1,0,0.2,0c0.1,0,0.1-0.1,0.2-0.1
	c0.1,0,0.1-0.1,0.2-0.2c0.1-0.1,0.1-0.3,0.2-0.5c0.1-0.2,0.1-0.5,0.2-0.8c0-0.3,0.1-0.7,0.1-1.1c0-0.4,0.1-1,0.1-1.5h2.9v4.9h-0.7
	V32.9L99.1,32.9z M101.5,32.2h0.7v1.9c0,0,0.1,0,0.1,0c0.1,0,0.1,0,0.2,0c0.1,0,0.1,0,0.2,0c0.1,0,0.1,0,0.2,0c0.2,0,0.5,0,0.7,0.1
	c0.2,0,0.4,0.1,0.6,0.2c0.2,0.1,0.3,0.3,0.4,0.5c0.1,0.2,0.2,0.4,0.2,0.7c0,0.3-0.1,0.5-0.2,0.7c-0.1,0.2-0.3,0.4-0.4,0.5
	c-0.2,0.1-0.4,0.2-0.7,0.3c-0.3,0.1-0.5,0.1-0.8,0.1c-0.1,0-0.2,0-0.3,0c-0.1,0-0.2,0-0.3,0c-0.1,0-0.2,0-0.4,0
	c-0.1,0-0.2,0-0.3-0.1V32.2L101.5,32.2z M102.8,36.6c0.2,0,0.3,0,0.5-0.1c0.2,0,0.3-0.1,0.4-0.2c0.1-0.1,0.2-0.2,0.3-0.3
	c0.1-0.1,0.1-0.3,0.1-0.4c0-0.2,0-0.3-0.1-0.5c-0.1-0.1-0.2-0.2-0.3-0.3c-0.1-0.1-0.3-0.1-0.4-0.1c-0.2,0-0.3,0-0.5,0
	c0,0-0.1,0-0.2,0c-0.1,0-0.1,0-0.2,0c-0.1,0-0.1,0-0.2,0c-0.1,0-0.1,0-0.1,0v1.8c0.1,0,0.2,0,0.3,0
	C102.6,36.6,102.7,36.6,102.8,36.6L102.8,36.6z M109.4,35h-2.5v2.2h-0.7v-4.9h0.7v2.1h2.5v-2.1h0.7v4.9h-0.7V35L109.4,35z
	 M115.8,32.2h0.7v4.9h-0.7V32.2L115.8,32.2z M111.8,32.2h0.7v1.9c0,0,0.1,0,0.1,0c0,0,0.1,0,0.2,0c0.1,0,0.1,0,0.2,0
	c0.1,0,0.1,0,0.2,0c0.2,0,0.5,0,0.7,0.1c0.2,0,0.4,0.1,0.6,0.2c0.2,0.1,0.3,0.3,0.4,0.5c0.1,0.2,0.2,0.4,0.2,0.7
	c0,0.3-0.1,0.5-0.2,0.7c-0.1,0.2-0.2,0.4-0.4,0.5c-0.2,0.1-0.4,0.2-0.6,0.3c-0.2,0.1-0.5,0.1-0.8,0.1c-0.1,0-0.2,0-0.3,0
	c-0.1,0-0.2,0-0.3,0c-0.1,0-0.2,0-0.3,0c-0.1,0-0.2,0-0.3-0.1V32.2L111.8,32.2z M113,36.6c0.2,0,0.3,0,0.5-0.1
	c0.1,0,0.3-0.1,0.4-0.2c0.1-0.1,0.2-0.2,0.3-0.3c0.1-0.1,0.1-0.3,0.1-0.4c0-0.2,0-0.3-0.1-0.5c-0.1-0.1-0.2-0.2-0.3-0.3
	c-0.1-0.1-0.2-0.1-0.4-0.1c-0.2,0-0.3,0-0.5,0c-0.1,0-0.2,0-0.3,0c-0.1,0-0.2,0-0.2,0v1.8c0.1,0,0.1,0,0.2,0
	C112.8,36.6,112.9,36.6,113,36.6L113,36.6z M118.2,32.2h3v0.6h-2.3v1.5h2.1V35h-2.1v1.6h2.3v0.6h-3V32.2L118.2,32.2z M128.9,34
	l0.1-0.8h0l-0.3,0.7l-1.4,2.2H127l-1.4-2.2l-0.3-0.7h0l0.1,0.8v3.2h-0.7v-4.9h0.5l1.7,2.5l0.3,0.5h0l0.2-0.5l1.6-2.5h0.6v4.9h-0.7
	V34L128.9,34z M133.8,35.9h-1.9l-0.5,1.3h-0.7l2-5h0.4l2,5h-0.7L133.8,35.9L133.8,35.9z M132.1,35.3h1.5l-0.6-1.4l-0.2-0.7h0
	l-0.2,0.8L132.1,35.3L132.1,35.3z M139.3,32.9h-1.7v4.3h-0.7v-4.3h-1.7v-0.6h4V32.9L139.3,32.9z M140.5,32.2h3v0.6h-2.3v1.5h2.1V35
	h-2.1v1.6h2.3v0.6h-3V32.2L140.5,32.2z M145,32.3c0.2,0,0.4-0.1,0.6-0.1c0.2,0,0.5,0,0.7,0c0.2,0,0.5,0,0.7,0.1
	c0.2,0,0.5,0.1,0.7,0.2c0.2,0.1,0.4,0.3,0.5,0.5c0.1,0.2,0.2,0.5,0.2,0.8c0,0.3-0.1,0.5-0.2,0.8c-0.1,0.2-0.3,0.4-0.5,0.5
	c-0.2,0.1-0.4,0.2-0.7,0.3c-0.2,0.1-0.5,0.1-0.8,0.1c0,0-0.1,0-0.1,0c-0.1,0-0.1,0-0.2,0c-0.1,0-0.1,0-0.2,0c-0.1,0-0.1,0-0.1,0v1.8
	H145V32.3L145,32.3z M146.4,32.8c-0.1,0-0.2,0-0.4,0c-0.1,0-0.2,0-0.3,0v1.9c0,0,0.1,0,0.1,0c0.1,0,0.1,0,0.2,0c0.1,0,0.1,0,0.2,0
	c0.1,0,0.1,0,0.1,0c0.2,0,0.3,0,0.5,0c0.2,0,0.3-0.1,0.4-0.1c0.1-0.1,0.2-0.2,0.3-0.3c0.1-0.1,0.1-0.3,0.1-0.5c0-0.2,0-0.3-0.1-0.5
	c-0.1-0.1-0.2-0.2-0.3-0.3c-0.1-0.1-0.3-0.1-0.4-0.1C146.7,32.8,146.5,32.8,146.4,32.8L146.4,32.8z M153,33.9l0-0.5h0l-0.3,0.6
	l-2.5,3.2h-0.4v-4.9h0.7v3.3l-0.1,0.5h0l0.4-0.6l2.5-3.2h0.4v4.9H153V33.9L153,33.9z M158,35.9h-1.9l-0.5,1.3h-0.7l2-5h0.4l2,5h-0.7
	L158,35.9L158,35.9z M156.3,35.3h1.5l-0.6-1.4l-0.2-0.7h0l-0.2,0.8L156.3,35.3L156.3,35.3z M163.2,32.9h-1.5c0,0.5-0.1,0.9-0.1,1.3
	c0,0.4-0.1,0.7-0.1,1c0,0.3-0.1,0.6-0.2,0.8c-0.1,0.2-0.1,0.4-0.2,0.6c-0.1,0.2-0.3,0.4-0.4,0.5c-0.2,0.1-0.3,0.1-0.5,0.1
	c-0.1,0-0.2,0-0.2,0c-0.1,0-0.1,0-0.2-0.1l0.1-0.6c0.1,0,0.1,0,0.2,0c0.1,0,0.1,0,0.2,0c0.1,0,0.1-0.1,0.2-0.1
	c0.1,0,0.1-0.1,0.2-0.2c0.1-0.1,0.1-0.3,0.2-0.5c0.1-0.2,0.1-0.5,0.2-0.8c0-0.3,0.1-0.7,0.1-1.1c0-0.4,0.1-1,0.1-1.5h2.9v4.9h-0.7
	V32.9L163.2,32.9z M169.6,32.2h0.7v4.9h-0.7V32.2L169.6,32.2z M165.6,32.2h0.7v1.9c0,0,0.1,0,0.1,0c0,0,0.1,0,0.2,0
	c0.1,0,0.1,0,0.2,0c0.1,0,0.1,0,0.2,0c0.2,0,0.5,0,0.7,0.1c0.2,0,0.4,0.1,0.6,0.2c0.2,0.1,0.3,0.3,0.4,0.5c0.1,0.2,0.2,0.4,0.2,0.7
	c0,0.3-0.1,0.5-0.2,0.7c-0.1,0.2-0.2,0.4-0.4,0.5c-0.2,0.1-0.4,0.2-0.6,0.3c-0.2,0.1-0.5,0.1-0.8,0.1c-0.1,0-0.2,0-0.3,0
	c-0.1,0-0.2,0-0.3,0c-0.1,0-0.2,0-0.3,0c-0.1,0-0.2,0-0.3-0.1V32.2L165.6,32.2z M166.9,36.6c0.2,0,0.3,0,0.5-0.1
	c0.1,0,0.3-0.1,0.4-0.2c0.1-0.1,0.2-0.2,0.3-0.3c0.1-0.1,0.1-0.3,0.1-0.4c0-0.2,0-0.3-0.1-0.5c-0.1-0.1-0.2-0.2-0.3-0.3
	c-0.1-0.1-0.2-0.1-0.4-0.1c-0.2,0-0.3,0-0.5,0c-0.1,0-0.2,0-0.3,0c-0.1,0-0.2,0-0.2,0v1.8c0.1,0,0.1,0,0.2,0
	C166.6,36.6,166.8,36.6,166.9,36.6L166.9,36.6z M63,43.1l-1.6-2.4h0.8l1.1,1.6l0.2,0.4l0.2-0.4l1.1-1.6h0.8L63.9,43l1.7,2.5h-0.8
	l-1.2-1.7l-0.2-0.4l-0.2,0.4L62,45.6h-0.8L63,43.1L63,43.1z M66.5,43.1c0-0.4,0.1-0.8,0.2-1.1c0.1-0.3,0.2-0.6,0.4-0.8
	c0.2-0.2,0.4-0.4,0.7-0.5c0.3-0.1,0.6-0.2,0.9-0.2c0.4,0,0.7,0.1,1,0.2c0.3,0.1,0.5,0.3,0.7,0.5c0.2,0.2,0.3,0.5,0.4,0.8
	c0.1,0.3,0.1,0.7,0.1,1c0,0.4-0.1,0.8-0.2,1.1c-0.1,0.3-0.2,0.6-0.4,0.8c-0.2,0.2-0.4,0.4-0.7,0.5c-0.3,0.1-0.6,0.2-0.9,0.2
	c-0.4,0-0.7-0.1-1-0.2c-0.3-0.1-0.5-0.3-0.7-0.5c-0.2-0.2-0.3-0.5-0.4-0.8C66.5,43.8,66.5,43.5,66.5,43.1L66.5,43.1z M67.2,43.1
	c0,0.3,0,0.5,0.1,0.7c0.1,0.2,0.1,0.4,0.3,0.6c0.1,0.2,0.3,0.3,0.5,0.4c0.2,0.1,0.4,0.2,0.7,0.2c0.5,0,0.8-0.2,1.1-0.5
	c0.3-0.3,0.4-0.8,0.4-1.5c0-0.3,0-0.5-0.1-0.7c-0.1-0.2-0.1-0.4-0.3-0.6c-0.1-0.2-0.3-0.3-0.5-0.4c-0.2-0.1-0.4-0.2-0.7-0.2
	c-0.4,0-0.8,0.2-1.1,0.5C67.3,42,67.2,42.5,67.2,43.1L67.2,43.1z M72.8,43.3v-0.5h0.1c0,0,0.1,0,0.2,0c0.1,0,0.1,0,0.2,0
	c0.1,0,0.1,0,0.2,0c0.1,0,0.1,0,0.2,0c0.3,0,0.5-0.1,0.6-0.2c0.2-0.1,0.3-0.3,0.3-0.5c0-0.1,0-0.3-0.1-0.4c-0.1-0.1-0.1-0.2-0.2-0.2
	c-0.1-0.1-0.2-0.1-0.3-0.1c-0.1,0-0.3,0-0.4,0c-0.3,0-0.5,0-0.7,0.1c-0.2,0-0.4,0.1-0.5,0.1l-0.2-0.6c0,0,0.1-0.1,0.2-0.1
	c0.1,0,0.2-0.1,0.3-0.1c0.1,0,0.3,0,0.4-0.1c0.2,0,0.3,0,0.5,0c0.2,0,0.4,0,0.6,0.1c0.2,0,0.4,0.1,0.5,0.2c0.2,0.1,0.3,0.2,0.4,0.4
	c0.1,0.2,0.1,0.3,0.1,0.6c0,0.2-0.1,0.5-0.2,0.7c-0.2,0.2-0.4,0.4-0.8,0.5v0c0.4,0.1,0.6,0.2,0.9,0.4c0.2,0.2,0.3,0.5,0.3,0.8
	c0,0.3-0.1,0.5-0.2,0.7c-0.1,0.2-0.3,0.4-0.5,0.5c-0.2,0.1-0.4,0.2-0.6,0.3c-0.2,0.1-0.5,0.1-0.7,0.1c-0.3,0-0.6,0-0.8-0.1
	c-0.2,0-0.4-0.1-0.6-0.1l0.2-0.6c0.1,0,0.3,0.1,0.5,0.1c0.2,0,0.5,0.1,0.8,0.1c0.1,0,0.3,0,0.4-0.1c0.1,0,0.3-0.1,0.4-0.2
	c0.1-0.1,0.2-0.2,0.3-0.3c0.1-0.1,0.1-0.2,0.1-0.4c0-0.3-0.1-0.5-0.3-0.6c-0.2-0.1-0.5-0.2-0.9-0.2c-0.1,0-0.1,0-0.2,0
	c0,0-0.1,0-0.2,0H72.8L72.8,43.3z M80.1,45.6h-0.7v-2.1l-0.7,0.2l-1.3,1.9h-0.8l1.2-1.7l0.5-0.3c-0.2,0-0.3-0.1-0.5-0.2
	c-0.2-0.1-0.3-0.2-0.4-0.3C77.1,43,77,42.8,77,42.7c-0.1-0.2-0.1-0.3-0.1-0.6c0-0.3,0.1-0.5,0.2-0.7c0.1-0.2,0.3-0.4,0.4-0.5
	c0.2-0.1,0.4-0.2,0.6-0.3c0.2-0.1,0.5-0.1,0.8-0.1c0.2,0,0.4,0,0.6,0c0.2,0,0.4,0,0.6,0.1V45.6L80.1,45.6z M78.8,41.2
	c-0.2,0-0.3,0-0.5,0c-0.1,0-0.3,0.1-0.4,0.1c-0.1,0.1-0.2,0.2-0.3,0.3c-0.1,0.1-0.1,0.3-0.1,0.5c0,0.2,0,0.3,0.1,0.4
	c0.1,0.1,0.2,0.2,0.3,0.3c0.1,0.1,0.2,0.1,0.4,0.2c0.2,0,0.3,0,0.5,0h0.5v-1.8c-0.1,0-0.1,0-0.2,0C79.1,41.2,79,41.2,78.8,41.2
	L78.8,41.2z M85,42.3l0-0.5h0l-0.3,0.6l-2.5,3.2h-0.4v-4.9h0.7v3.3l-0.1,0.5h0l0.4-0.6l2.5-3.2h0.4v4.9H85V42.3L85,42.3z M83.1,39.5
	c0,0.2,0.1,0.3,0.2,0.4c0.1,0.1,0.3,0.1,0.5,0.1c0.2,0,0.4,0,0.5-0.1c0.1-0.1,0.2-0.2,0.2-0.4l0.6,0.1c-0.1,0.3-0.2,0.5-0.4,0.6
	c-0.2,0.1-0.5,0.2-0.9,0.2c-0.4,0-0.7-0.1-0.9-0.2c-0.2-0.1-0.4-0.3-0.4-0.6L83.1,39.5L83.1,39.5z M90.9,45.3
	c-0.2,0.1-0.4,0.2-0.6,0.2c-0.2,0-0.5,0.1-0.8,0.1c-0.3,0-0.6-0.1-0.9-0.2c-0.3-0.1-0.5-0.3-0.7-0.5c-0.2-0.2-0.4-0.5-0.5-0.8
	c-0.1-0.3-0.2-0.7-0.2-1.1c0-0.5,0.1-0.8,0.2-1.2c0.1-0.3,0.3-0.6,0.5-0.8c0.2-0.2,0.5-0.4,0.8-0.4c0.3-0.1,0.6-0.1,0.8-0.1
	c0.3,0,0.6,0,0.8,0c0.2,0,0.4,0.1,0.5,0.1l-0.2,0.6c-0.2-0.1-0.6-0.2-1-0.2c-0.2,0-0.4,0-0.6,0.1c-0.2,0.1-0.4,0.2-0.5,0.3
	c-0.2,0.2-0.3,0.4-0.4,0.6c-0.1,0.2-0.1,0.5-0.1,0.9c0,0.3,0,0.6,0.1,0.8c0.1,0.2,0.2,0.4,0.4,0.6c0.2,0.2,0.3,0.3,0.6,0.4
	c0.2,0.1,0.4,0.1,0.7,0.1c0.2,0,0.4,0,0.6-0.1c0.2,0,0.3-0.1,0.4-0.2L90.9,45.3L90.9,45.3z M95.5,41.3h-1.7v4.3h-0.7v-4.3h-1.7v-0.6
	h4V41.3L95.5,41.3z M100,41.8c0,0.1,0,0.2-0.1,0.4c0,0.1-0.1,0.2-0.2,0.3c-0.1,0.1-0.2,0.2-0.3,0.3c-0.1,0.1-0.3,0.1-0.4,0.2v0
	c0.1,0,0.3,0.1,0.4,0.1c0.1,0.1,0.3,0.1,0.4,0.2c0.1,0.1,0.2,0.2,0.3,0.4c0.1,0.1,0.1,0.3,0.1,0.5c0,0.3-0.1,0.5-0.2,0.7
	c-0.1,0.2-0.3,0.3-0.5,0.5c-0.2,0.1-0.4,0.2-0.6,0.3c-0.2,0.1-0.5,0.1-0.7,0.1c-0.1,0-0.2,0-0.3,0c-0.1,0-0.2,0-0.4,0
	c-0.1,0-0.3,0-0.4,0c-0.1,0-0.3,0-0.4-0.1v-4.8c0.2,0,0.4-0.1,0.7-0.1c0.3,0,0.5,0,0.8,0c0.2,0,0.4,0,0.6,0.1c0.2,0,0.4,0.1,0.6,0.2
	c0.2,0.1,0.3,0.2,0.4,0.4C100,41.3,100,41.5,100,41.8L100,41.8z M97.5,45c0,0,0.1,0,0.1,0c0.1,0,0.1,0,0.2,0c0.1,0,0.2,0,0.2,0
	c0.1,0,0.1,0,0.2,0c0.2,0,0.3,0,0.5,0c0.1,0,0.3-0.1,0.4-0.2c0.1-0.1,0.2-0.2,0.3-0.3c0.1-0.1,0.1-0.2,0.1-0.4c0-0.2,0-0.3-0.1-0.4
	c-0.1-0.1-0.2-0.2-0.3-0.3c-0.1-0.1-0.3-0.1-0.4-0.1c-0.2,0-0.3,0-0.5,0h-0.7V45L97.5,45z M97.8,42.8c0.1,0,0.2,0,0.3,0
	c0.1,0,0.2,0,0.3,0c0.1,0,0.2-0.1,0.3-0.1c0.1-0.1,0.2-0.1,0.3-0.2c0.1-0.1,0.1-0.1,0.2-0.2c0-0.1,0.1-0.2,0.1-0.3
	c0-0.2,0-0.3-0.1-0.4c-0.1-0.1-0.1-0.2-0.2-0.2c-0.1-0.1-0.2-0.1-0.3-0.1c-0.1,0-0.3,0-0.4,0c-0.2,0-0.3,0-0.5,0c-0.1,0-0.2,0-0.3,0
	v1.6H97.8L97.8,42.8z M101.7,40.7h3v0.6h-2.3v1.5h2.1v0.6h-2.1v1.6h2.3v0.6h-3V40.7L101.7,40.7z M109.4,43.4h-2.5v2.2h-0.7v-4.9h0.7
	v2.1h2.5v-2.1h0.7v4.9h-0.7V43.4L109.4,43.4z M115,43.4h-2.5v2.2h-0.7v-4.9h0.7v2.1h2.5v-2.1h0.7v4.9H115V43.4L115,43.4z
	 M121.4,40.7h0.7v4.9h-0.7V40.7L121.4,40.7z M117.4,40.7h0.7v1.9c0,0,0.1,0,0.1,0c0,0,0.1,0,0.2,0c0.1,0,0.1,0,0.2,0
	c0.1,0,0.1,0,0.2,0c0.2,0,0.5,0,0.7,0.1c0.2,0,0.4,0.1,0.6,0.2c0.2,0.1,0.3,0.3,0.4,0.5c0.1,0.2,0.2,0.4,0.2,0.7
	c0,0.3-0.1,0.5-0.2,0.7c-0.1,0.2-0.2,0.4-0.4,0.5c-0.2,0.1-0.4,0.2-0.6,0.3c-0.2,0.1-0.5,0.1-0.8,0.1c-0.1,0-0.2,0-0.3,0
	c-0.1,0-0.2,0-0.3,0c-0.1,0-0.2,0-0.3,0c-0.1,0-0.2,0-0.3-0.1V40.7L117.4,40.7z M118.7,45c0.2,0,0.3,0,0.5-0.1
	c0.1,0,0.3-0.1,0.4-0.2c0.1-0.1,0.2-0.2,0.3-0.3c0.1-0.1,0.1-0.3,0.1-0.4c0-0.2,0-0.3-0.1-0.5c-0.1-0.1-0.2-0.2-0.3-0.3
	c-0.1-0.1-0.2-0.1-0.4-0.1c-0.2,0-0.3,0-0.5,0c-0.1,0-0.2,0-0.3,0c-0.1,0-0.2,0-0.2,0V45c0.1,0,0.1,0,0.2,0
	C118.4,45,118.6,45,118.7,45L118.7,45z M123.8,40.7h3v0.6h-2.3v1.5h2.1v0.6h-2.1v1.6h2.3v0.6h-3V40.7L123.8,40.7z M133.7,41.3H132
	v4.3h-0.7v-4.3h-1.7v-0.6h4V41.3L133.7,41.3z M134.3,43.1c0-0.4,0.1-0.8,0.2-1.1c0.1-0.3,0.2-0.6,0.4-0.8c0.2-0.2,0.4-0.4,0.7-0.5
	c0.3-0.1,0.6-0.2,0.9-0.2c0.4,0,0.7,0.1,1,0.2c0.3,0.1,0.5,0.3,0.7,0.5c0.2,0.2,0.3,0.5,0.4,0.8c0.1,0.3,0.1,0.7,0.1,1
	c0,0.4-0.1,0.8-0.2,1.1c-0.1,0.3-0.2,0.6-0.4,0.8c-0.2,0.2-0.4,0.4-0.7,0.5c-0.3,0.1-0.6,0.2-0.9,0.2c-0.4,0-0.7-0.1-1-0.2
	c-0.3-0.1-0.5-0.3-0.7-0.5c-0.2-0.2-0.3-0.5-0.4-0.8C134.4,43.8,134.3,43.5,134.3,43.1L134.3,43.1z M135.1,43.1c0,0.3,0,0.5,0.1,0.7
	c0.1,0.2,0.1,0.4,0.3,0.6c0.1,0.2,0.3,0.3,0.5,0.4c0.2,0.1,0.4,0.2,0.7,0.2c0.5,0,0.8-0.2,1.1-0.5c0.3-0.3,0.4-0.8,0.4-1.5
	c0-0.3,0-0.5-0.1-0.7c-0.1-0.2-0.1-0.4-0.3-0.6c-0.1-0.2-0.3-0.3-0.5-0.4c-0.2-0.1-0.4-0.2-0.7-0.2c-0.4,0-0.8,0.2-1.1,0.5
	C135.2,42,135.1,42.5,135.1,43.1L135.1,43.1z"/>
<path class="st7" d="M143.5,41.8c0,0.1,0,0.2-0.1,0.4c0,0.1-0.1,0.2-0.2,0.3c-0.1,0.1-0.2,0.2-0.3,0.3c-0.1,0.1-0.3,0.1-0.4,0.2v0
	c0.1,0,0.3,0.1,0.4,0.1c0.1,0.1,0.3,0.1,0.4,0.2c0.1,0.1,0.2,0.2,0.3,0.4c0.1,0.1,0.1,0.3,0.1,0.5c0,0.3-0.1,0.5-0.2,0.7
	c-0.1,0.2-0.3,0.3-0.5,0.5c-0.2,0.1-0.4,0.2-0.6,0.3c-0.2,0.1-0.5,0.1-0.7,0.1c-0.1,0-0.2,0-0.3,0c-0.1,0-0.2,0-0.4,0
	c-0.1,0-0.3,0-0.4,0c-0.1,0-0.3,0-0.4-0.1v-4.8c0.2,0,0.4-0.1,0.7-0.1c0.3,0,0.5,0,0.8,0c0.2,0,0.4,0,0.6,0.1c0.2,0,0.4,0.1,0.6,0.2
	c0.2,0.1,0.3,0.2,0.4,0.4C143.4,41.3,143.5,41.5,143.5,41.8L143.5,41.8z M140.9,45c0,0,0.1,0,0.1,0c0.1,0,0.1,0,0.2,0
	c0.1,0,0.2,0,0.2,0c0.1,0,0.1,0,0.2,0c0.2,0,0.3,0,0.5,0c0.1,0,0.3-0.1,0.4-0.2c0.1-0.1,0.2-0.2,0.3-0.3c0.1-0.1,0.1-0.2,0.1-0.4
	c0-0.2,0-0.3-0.1-0.4c-0.1-0.1-0.2-0.2-0.3-0.3c-0.1-0.1-0.3-0.1-0.4-0.1c-0.2,0-0.3,0-0.5,0h-0.7V45L140.9,45z M141.3,42.8
	c0.1,0,0.2,0,0.3,0c0.1,0,0.2,0,0.3,0c0.1,0,0.2-0.1,0.3-0.1c0.1-0.1,0.2-0.1,0.3-0.2c0.1-0.1,0.1-0.1,0.2-0.2
	c0-0.1,0.1-0.2,0.1-0.3c0-0.2,0-0.3-0.1-0.4c-0.1-0.1-0.1-0.2-0.2-0.2c-0.1-0.1-0.2-0.1-0.3-0.1c-0.1,0-0.3,0-0.4,0
	c-0.2,0-0.3,0-0.5,0c-0.1,0-0.2,0-0.3,0v1.6H141.3L141.3,42.8z M147.7,44.3h-1.9l-0.5,1.3h-0.7l2-5h0.4l2,5h-0.7L147.7,44.3
	L147.7,44.3z M146,43.7h1.5l-0.6-1.4l-0.2-0.7h0l-0.2,0.8L146,43.7L146,43.7z M150.1,40.7c0.2,0,0.4-0.1,0.6-0.1c0.2,0,0.5,0,0.7,0
	c0.2,0,0.5,0,0.7,0.1c0.2,0,0.5,0.1,0.7,0.2c0.2,0.1,0.4,0.3,0.5,0.5c0.1,0.2,0.2,0.5,0.2,0.8c0,0.3-0.1,0.5-0.2,0.8
	c-0.1,0.2-0.3,0.4-0.5,0.5c-0.2,0.1-0.4,0.2-0.7,0.3c-0.2,0.1-0.5,0.1-0.8,0.1c0,0-0.1,0-0.1,0c-0.1,0-0.1,0-0.2,0
	c-0.1,0-0.1,0-0.2,0c-0.1,0-0.1,0-0.1,0v1.8h-0.7V40.7L150.1,40.7z M151.5,41.2c-0.1,0-0.2,0-0.4,0c-0.1,0-0.2,0-0.3,0v1.9
	c0,0,0.1,0,0.1,0c0.1,0,0.1,0,0.2,0c0.1,0,0.1,0,0.2,0c0.1,0,0.1,0,0.1,0c0.2,0,0.3,0,0.5,0c0.2,0,0.3-0.1,0.4-0.1
	c0.1-0.1,0.2-0.2,0.3-0.3c0.1-0.1,0.1-0.3,0.1-0.5c0-0.2,0-0.3-0.1-0.5c-0.1-0.1-0.2-0.2-0.3-0.3c-0.1-0.1-0.3-0.1-0.4-0.1
	C151.8,41.2,151.6,41.2,151.5,41.2L151.5,41.2z M158.8,40.7h0.7v4.9h-0.7V40.7L158.8,40.7z M154.9,40.7h0.7v1.9c0,0,0.1,0,0.1,0
	c0,0,0.1,0,0.2,0s0.1,0,0.2,0c0.1,0,0.1,0,0.2,0c0.2,0,0.5,0,0.7,0.1c0.2,0,0.4,0.1,0.6,0.2c0.2,0.1,0.3,0.3,0.4,0.5
	c0.1,0.2,0.2,0.4,0.2,0.7c0,0.3-0.1,0.5-0.2,0.7c-0.1,0.2-0.2,0.4-0.4,0.5c-0.2,0.1-0.4,0.2-0.6,0.3c-0.2,0.1-0.5,0.1-0.8,0.1
	c-0.1,0-0.2,0-0.3,0c-0.1,0-0.2,0-0.3,0c-0.1,0-0.2,0-0.3,0c-0.1,0-0.2,0-0.3-0.1V40.7L154.9,40.7z M156.1,45c0.2,0,0.3,0,0.5-0.1
	c0.1,0,0.3-0.1,0.4-0.2c0.1-0.1,0.2-0.2,0.3-0.3c0.1-0.1,0.1-0.3,0.1-0.4c0-0.2,0-0.3-0.1-0.5c-0.1-0.1-0.2-0.2-0.3-0.3
	c-0.1-0.1-0.2-0.1-0.4-0.1c-0.2,0-0.3,0-0.5,0c-0.1,0-0.2,0-0.3,0c-0.1,0-0.2,0-0.2,0V45c0.1,0,0.1,0,0.2,0
	C155.9,45,156,45,156.1,45L156.1,45z"/>
</svg>
