<?xml version="1.0" encoding="utf-8"?>
<!-- Generator: Adobe Illustrator 22.1.0, SVG Export Plug-In . SVG Version: 6.00 Build 0)  -->
<svg version="1.1" id="Слой_1" xmlns="http://www.w3.org/2000/svg" xmlns:xlink="http://www.w3.org/1999/xlink" x="0px" y="0px"
	 viewBox="0 0 24 24" style="enable-background:new 0 0 24 24;" xml:space="preserve">
<g>
	<path d="M0-234L0-234L0-234L0-234L0-234L0-234L0-234L0-234L0-234L0-234z M0-234L0-234L0-234L0-234L0-234z"/>
</g>
<path d="M20.4,0h-4C16.2,0,16,0.2,16,0.4v1.2C16,1.8,16.1,2,16.3,2l0.4,0.1c0.3,0.1,0.6,0.2,0.9,0.4v0.1c0,0.8-0.4,1.5-1,1.9L17,5.1
	c0.6-0.4,1.1-1,1.3-1.8c0,0.1,0.1,0.2,0.1,0.3c0,0.2,0.2,0.3,0.4,0.3h0.8v1.1l-1.1,3.6L19.3,9l1-3.4h1.8l0.7,4v9.2
	c0,0.7-0.5,1.2-1.2,1.2h-1v0.8h1c1.1,0,2-0.9,2-2V9.6c0,0,0,0,0-0.1l-0.8-4.4V4h0.8C23.8,4,24,3.8,24,3.6C24,1.6,22.4,0,20.4,0z
	 M22,4.8h-1.6V4H22V4.8z M22.4,3.2h-3.3c-0.4-1-1.2-1.7-2.2-1.9l-0.1,0V0.8h3.6c1.4,0,2.6,1,2.8,2.4H22.4z"/>
<path d="M2,20.8h2.8V20H2c-0.7,0-1.2-0.5-1.2-1.2v-5.7c0-0.4,0.1-0.8,0.2-1.2l0.6-2.2c0-0.1,0-0.2,0-0.2L0.9,7.4
	c-0.2-0.6,0-1.2,0.5-1.6l1.6-1.3h3.7l1.2,1l0.5-0.6L7.2,3.8v-1c0-0.1,0-0.2-0.1-0.3L6.4,1.8V0.4C6.4,0.2,6.2,0,6,0H3.6
	C3.4,0,3.2,0.2,3.2,0.4v1.4L2.5,2.5C2.4,2.6,2.4,2.7,2.4,2.8v1L0.8,5.1c-0.7,0.6-1,1.6-0.7,2.5l0.7,2l-0.6,2C0.1,12.1,0,12.6,0,13.1
	v5.7C0,19.9,0.9,20.8,2,20.8z M4,0.8h1.6v0.8H4V0.8z M3.2,3l0.6-0.6h2.1L6.4,3v0.6H3.2V3z"/>
<path d="M7.2,6.8c0-0.9-1.1-1.6-2.4-1.6S2.4,5.9,2.4,6.8s1.1,1.6,2.4,1.6S7.2,7.7,7.2,6.8z M3.2,6.8C3.2,6.4,3.9,6,4.8,6
	s1.6,0.4,1.6,0.8c0,0.4-0.7,0.8-1.6,0.8S3.2,7.2,3.2,6.8z"/>
<path d="M4.4,13.3l0.3-0.8l-2.5-0.9c-0.1,0-0.3,0-0.4,0c-0.1,0.1-0.2,0.2-0.2,0.3v4.8c0,1.1,0.9,2,2,2h0.8V18H3.6
	c-0.7,0-1.2-0.5-1.2-1.2v-4.2L4.4,13.3z"/>
<path d="M15.1,13c1.1,1.5,1.5,3.4,1,5.1c-0.2,0.6,0.2,1.3,0.8,1.5c0.6,0.2,1.3-0.1,1.5-0.8c0.9-2.5,0.4-5.4-1.2-7.5L17,11.1
	c-0.4-0.6-1.2-0.7-1.8-0.2c-0.6,0.4-0.7,1.2-0.2,1.8L15.1,13z M15.5,11.8c0-0.2,0.2-0.3,0.4-0.4c0.2,0,0.4,0,0.5,0.2l0.2,0.2
	c1.5,1.9,1.9,4.4,1.1,6.7c-0.1,0.1-0.2,0.2-0.3,0.2c-0.1,0-0.3,0-0.4-0.1c-0.1-0.1-0.1-0.2-0.1-0.3c0.6-2,0.2-4.2-1.1-5.8l-0.2-0.3
	C15.5,12.1,15.4,11.9,15.5,11.8z"/>
<path d="M7.3,23.8C7.3,23.9,7.5,24,7.6,24h9.6c0.1,0,0.2-0.1,0.3-0.1l1-1.3c1.7-2.2,2.5-5,2.2-7.7c-0.3-2.8-1.7-5.3-3.9-7l-1.6-1.3
	V5.2c0-0.2-0.2-0.4-0.4-0.4h-0.4V3.2c0-0.4-0.4-0.8-0.8-0.8h-3.2c-0.4,0-0.8,0.4-0.8,0.8v1.6H9.2C9,4.8,8.8,5,8.8,5.2v1.5L8.3,7.3
	C4.3,12,3.9,18.7,7.3,23.8z M10.4,3.2h3.2v1.6h-3.2V3.2z M8.9,7.8l0.6-0.7C9.6,7,9.6,6.9,9.6,6.8V5.6h4.8v0.8h-4v0.8h4.3l1.7,1.3
	c2,1.6,3.3,3.9,3.6,6.5c0.3,2.6-0.4,5.1-2,7.1L17,23.2H7.8C4.7,18.4,5.2,12.1,8.9,7.8z"/>
<path d="M11.4,20.8c1.5,0,3-0.8,3.8-2.1c0.1-0.1,0.1-0.2,0.1-0.3c-0.5-2.9-1.6-5.1-3.2-6.7c-0.1-0.1-0.1-0.1-0.2-0.1
	c-0.1,0-0.3,0-0.4,0c-2.5,0-4.6,2.1-4.6,4.6S8.9,20.8,11.4,20.8z M11.4,12.4c0.1,0,0.1,0,0.2,0c1.4,1.4,2.4,3.4,2.9,6
	c-1.1,1.5-3,2-4.6,1.2s-2.6-2.5-2.2-4.3C8.1,13.7,9.6,12.4,11.4,12.4z"/>
</svg>
