<?xml version="1.0" encoding="utf-8"?>
<!-- Generator: Adobe Illustrator 22.1.0, SVG Export Plug-In . SVG Version: 6.00 Build 0)  -->
<svg version="1.1" id="Слой_1" xmlns="http://www.w3.org/2000/svg" xmlns:xlink="http://www.w3.org/1999/xlink" x="0px" y="0px"
	 viewBox="0 0 24 24" style="enable-background:new 0 0 24 24;" xml:space="preserve">
<path d="M8.9,11.7h9.6c0.4,0,0.7,0.3,0.7,0.7v8c0,0.4-0.3,0.7-0.7,0.7h-1.5c-0.2,0-0.4,0.2-0.4,0.4c0,0.2,0.2,0.4,0.4,0.4h1.5
	c0.8,0,1.4-0.6,1.4-1.4v-8c0-0.8-0.6-1.4-1.4-1.4H8.9c-0.2,0-0.4,0.2-0.4,0.4C8.6,11.6,8.7,11.7,8.9,11.7z"/>
<path d="M4.1,12.4v8c0,0.8,0.6,1.4,1.4,1.4h10.2c0.2,0,0.4-0.2,0.4-0.4c0-0.2-0.2-0.4-0.4-0.4H5.5c-0.4,0-0.7-0.3-0.7-0.7v-8
	c0-0.4,0.3-0.7,0.7-0.7h2.1c0.2,0,0.4-0.2,0.4-0.4c0-0.2-0.2-0.4-0.4-0.4H5.5C4.7,11,4.1,11.6,4.1,12.4z"/>
<path d="M6.8,12.9C6.4,13.4,6.6,14,7,14.3l3.1,2.1L7,18.5c-0.5,0.3-0.6,0.9-0.3,1.4c0.3,0.5,0.9,0.6,1.4,0.3l3.8-2.6
	c0,0,3.8,2.6,3.8,2.6c0.5,0.3,1.1,0.2,1.4-0.3c0.3-0.5,0.2-1.1-0.3-1.4l-3.1-2.1l3.1-2.1c0.5-0.3,0.6-0.9,0.3-1.4
	c-0.3-0.5-0.9-0.6-1.4-0.3L12,15.2c0,0-3.8-2.6-3.8-2.6C7.7,12.3,7.1,12.5,6.8,12.9z M11.8,15.9c0.1,0.1,0.3,0.1,0.4,0
	c0,0,4-2.7,4-2.7c0.1-0.1,0.3-0.1,0.4,0.1c0.1,0.1,0.1,0.3-0.1,0.4c0,0-3.6,2.4-3.6,2.4c-0.2,0.1-0.2,0.4,0,0.6l3.6,2.4
	c0.1,0.1,0.2,0.3,0.1,0.4c-0.1,0.1-0.3,0.2-0.4,0.1l-4-2.7c-0.1-0.1-0.3-0.1-0.4,0c0,0-4,2.7-4,2.7c-0.1,0.1-0.3,0.1-0.4-0.1
	c-0.1-0.1-0.1-0.3,0.1-0.4c0,0,3.6-2.4,3.6-2.4c0.2-0.1,0.2-0.4,0-0.6l-3.6-2.4c-0.1-0.1-0.2-0.3-0.1-0.4c0.1-0.1,0.3-0.2,0.4-0.1
	L11.8,15.9z"/>
<path d="M3,9.1L3,9.1c-0.7,0.7-1,1.4-1,2.3v10.5C2,23.1,3,24,4.1,24h15.7c1.2,0,2.1-0.9,2.1-2.1V2.1C21.9,1,21,0,19.8,0H11
	C9.8,0,8.8,1,8.8,2.1v2.1C8.1,4.3,7.5,4.6,7,5.1L6.9,5.2c0,0-0.9-0.9-0.9-0.9C5.4,3.8,4.6,3.8,4,4.3c0,0-1.9,1.9-1.9,1.9
	c-0.5,0.5-0.5,1.4,0,1.9L3,9.1z M9.2,4.9c0.2,0,0.4-0.2,0.4-0.4V2.1c0-0.8,0.6-1.4,1.4-1.4h8.8c0.8,0,1.4,0.6,1.4,1.4v19.8
	c0,0.8-0.6,1.4-1.4,1.4H4.1c-0.8,0-1.4-0.6-1.4-1.4V11.4c0-0.6,0.3-1.2,0.7-1.7l4-4C7.9,5.2,8.5,4.9,9.2,4.9z M2.6,6.7
	c0,0,1.9-1.9,1.9-1.9c0.3-0.3,0.7-0.3,0.9,0l0.9,0.9L3.5,8.6c0,0-0.9-0.9-0.9-0.9C2.3,7.4,2.3,7,2.6,6.7z"/>
<path d="M11.4,4.7h8c0.2,0,0.4-0.2,0.4-0.4V2.9c0-0.6-0.4-1-1-1H12c-0.6,0-1,0.4-1,1v1.4C11,4.5,11.2,4.7,11.4,4.7z M11.7,2.9
	c0-0.2,0.1-0.3,0.3-0.3h6.7c0.2,0,0.3,0.1,0.3,0.3V4h-7.3V2.9z"/>
</svg>
