<?xml version="1.0" encoding="utf-8"?>
<!-- Generator: Adobe Illustrator 22.1.0, SVG Export Plug-In . SVG Version: 6.00 Build 0)  -->
<svg version="1.1" id="Слой_1" xmlns="http://www.w3.org/2000/svg" xmlns:xlink="http://www.w3.org/1999/xlink" x="0px" y="0px"
	 viewBox="0 0 24 24" style="enable-background:new 0 0 24 24;" xml:space="preserve">
<path d="M8,24c-1.7,0-3-1.3-3-3s1.3-3,3-3s3,1.3,3,3S9.7,24,8,24z M8,20c-0.6,0-1,0.4-1,1s0.4,1,1,1s1-0.4,1-1S8.6,20,8,20z"/>
<path d="M20,24c-1.7,0-3-1.3-3-3s1.3-3,3-3s3,1.3,3,3S21.7,24,20,24z M20,20c-0.6,0-1,0.4-1,1s0.4,1,1,1s1-0.4,1-1S20.6,20,20,20z"
	/>
<path d="M19.4,17C19.3,17,19.3,17,19.4,17H8.8c-1.5,0-2.8-1.1-3-2.6L4.2,2.9C4.2,2.4,3.7,2,3.2,2H1C0.4,2,0,1.6,0,1s0.4-1,1-1h2.3
	c1.5,0,2.8,1.1,3,2.6L6.5,5H23c0.3,0,0.6,0.1,0.8,0.4C24,5.6,24,5.9,24,6.2l-1.7,8.4C22,16,20.8,17,19.4,17z M19.3,15
	c0.5,0,0.9-0.3,1-0.8L21.8,7h-15l0.9,7.1c0.1,0.5,0.5,0.9,1,0.9H19.3z"/>
</svg>
