<?xml version="1.0" encoding="utf-8"?>
<!-- Generator: Adobe Illustrator 22.1.0, SVG Export Plug-In . SVG Version: 6.00 Build 0)  -->
<svg version="1.1" id="Слой_1" xmlns="http://www.w3.org/2000/svg" xmlns:xlink="http://www.w3.org/1999/xlink" x="0px" y="0px"
	 viewBox="0 0 24 24" style="enable-background:new 0 0 24 24;" xml:space="preserve">
<g>
	<g>
		<path d="M10.1,19C8.9,19,8,19.9,8,21.1c0,1.2,0.9,2.1,2.1,2.1s2.1-0.9,2.1-2.1C12.2,19.9,11.2,19,10.1,19z M10.1,22
			c-0.5,0-0.9-0.4-0.9-0.9c0-0.5,0.4-0.9,0.9-0.9c0.5,0,0.9,0.4,0.9,0.9C11,21.6,10.6,22,10.1,22z"/>
	</g>
</g>
<g>
	<g>
		<path d="M17.5,19c-1.2,0-2.1,0.9-2.1,2.1c0,1.2,0.9,2.1,2.1,2.1c1.2,0,2.1-0.9,2.1-2.1C19.6,19.9,18.6,19,17.5,19z M17.5,22
			c-0.5,0-0.9-0.4-0.9-0.9c0-0.5,0.4-0.9,0.9-0.9c0.5,0,0.9,0.4,0.9,0.9C18.4,21.6,18,22,17.5,22z"/>
	</g>
</g>
<g>
	<g>
		<path d="M23.7,5.2c-0.2-0.3-0.6-0.4-0.9-0.4H4.5L4.1,3C4,2.6,3.8,2.3,3.4,2.2L0.8,1C0.5,0.9,0.2,1.1,0,1.4c-0.1,0.3,0,0.6,0.3,0.8
			l2.6,1.1l2.9,13.8C5.9,17.6,6.4,18,6.9,18h14.1c0.3,0,0.6-0.3,0.6-0.6c0-0.3-0.3-0.6-0.6-0.6H6.9l-0.3-1.7h14.6
			c0.6,0,1-0.4,1.2-0.9l1.6-8C24,5.9,24,5.5,23.7,5.2z M21.2,14H6.4L4.7,6l18.1,0L21.2,14z"/>
	</g>
</g>
</svg>
