<?xml version="1.0" encoding="utf-8"?>
<!-- Generator: Adobe Illustrator 22.1.0, SVG Export Plug-In . SVG Version: 6.00 Build 0)  -->
<svg version="1.1" id="Слой_1" xmlns="http://www.w3.org/2000/svg" xmlns:xlink="http://www.w3.org/1999/xlink" x="0px" y="0px"
	 viewBox="0 0 24 24" style="enable-background:new 0 0 24 24;" xml:space="preserve">
<g>
	<g>
		<path d="M21.5,12c0-6-1-9.5-1-9.5h0l1-2.5H12H2.5l1,2.5h0c0,0-1,3.5-1,9.5c0,6,1,9.5,1,9.5h0l-1,2.5H12h9.5l-1-2.5h0
			C20.5,21.5,21.5,18,21.5,12z M6.5,1c0,0.3,0.2,0.5,0.5,0.5c0.3,0,0.5-0.2,0.5-0.5h1c0,0.3,0.2,0.5,0.5,0.5c0.3,0,0.5-0.2,0.5-0.5
			h1c0,0.3,0.2,0.5,0.5,0.5c0.3,0,0.5-0.2,0.5-0.5H12h0.5c0,0.3,0.2,0.5,0.5,0.5c0.3,0,0.5-0.2,0.5-0.5h1c0,0.3,0.2,0.5,0.5,0.5
			s0.5-0.2,0.5-0.5h1c0,0.3,0.2,0.5,0.5,0.5c0.3,0,0.5-0.2,0.5-0.5H20l-0.6,1.5H12H4.6L4,1H6.5z M4,5.2c0.1-0.7,0.2-1.3,0.3-1.7H12
			h7.7c0.1,0.4,0.2,1,0.3,1.7c0.1,0.7,0.2,1.7,0.3,2.8h-3.8c-1.1-1.2-2.7-2-4.5-2c-1.8,0-3.4,0.8-4.5,2H3.7C3.8,6.9,3.9,5.9,4,5.2z
			 M17,12c0,2.8-2.3,5-5,5s-5-2.3-5-5c0-2.8,2.3-5,5-5C14.8,7,17,9.2,17,12z M3.5,12c0-1.1,0-2.1,0.1-3h3.2C6.3,9.9,6,10.9,6,12
			s0.3,2.1,0.8,3H3.6C3.5,14.1,3.5,13.1,3.5,12z M17.5,23c0-0.3-0.2-0.5-0.5-0.5c-0.3,0-0.5,0.2-0.5,0.5h-1c0-0.3-0.2-0.5-0.5-0.5
			s-0.5,0.2-0.5,0.5h-1c0-0.3-0.2-0.5-0.5-0.5c-0.3,0-0.5,0.2-0.5,0.5H12h-0.5c0-0.3-0.2-0.5-0.5-0.5s-0.5,0.2-0.5,0.5h-1
			c0-0.3-0.2-0.5-0.5-0.5S8.5,22.7,8.5,23h-1c0-0.3-0.2-0.5-0.5-0.5S6.5,22.7,6.5,23H4l0.6-1.5H12h7.4L20,23H17.5z M20,18.8
			c-0.1,0.7-0.2,1.3-0.3,1.7H12H4.3c-0.1-0.4-0.2-1-0.3-1.7c-0.1-0.7-0.2-1.7-0.3-2.8h3.8c1.1,1.2,2.7,2,4.5,2c1.8,0,3.4-0.8,4.5-2
			h3.8C20.2,17.1,20.1,18.1,20,18.8z M20.4,15h-3.2c0.5-0.9,0.8-1.9,0.8-3s-0.3-2.1-0.8-3h3.2c0.1,0.9,0.1,1.9,0.1,3
			S20.5,14.1,20.4,15z"/>
	</g>
</g>
<g>
	<g>
		<path d="M15,10.5H9c-0.3,0-0.5,0.2-0.5,0.5c0,0.3,0.2,0.5,0.5,0.5h6c0.3,0,0.5-0.2,0.5-0.5C15.5,10.7,15.3,10.5,15,10.5z"/>
	</g>
</g>
<g>
	<g>
		<path d="M13.5,12.5h-3c-0.3,0-0.5,0.2-0.5,0.5c0,0.3,0.2,0.5,0.5,0.5h3c0.3,0,0.5-0.2,0.5-0.5C14,12.7,13.8,12.5,13.5,12.5z"/>
	</g>
</g>
</svg>
