<?xml version="1.0" encoding="utf-8"?>
<!-- Generator: Adobe Illustrator 22.1.0, SVG Export Plug-In . SVG Version: 6.00 Build 0)  -->
<svg version="1.1" id="Слой_1" xmlns="http://www.w3.org/2000/svg" xmlns:xlink="http://www.w3.org/1999/xlink" x="0px" y="0px"
	 viewBox="0 0 24 24" style="enable-background:new 0 0 24 24;" xml:space="preserve">
<path d="M2,9.7h0.4v5.5l-1,2.1c-0.1,0.2-0.2,0.5-0.2,0.7v2.1c0,0.9,0.7,1.6,1.6,1.6h8c0.9,0,1.6-0.7,1.6-1.6v-2.4c0-0.1,0-0.1,0-0.2
	c0,0,0-0.1-0.1-0.1l-2.2-2.2c-0.2-0.2-0.5-0.4-0.8-0.4H8.4c-0.2,0-0.4-0.2-0.4-0.4v-2.4h0.4c0.7,0,1.2-0.5,1.2-1.2V9.7H14
	c0.5,0,1-0.3,1.1-0.8h2.1c1.1,0,2.1-0.6,2.5-1.6h3.1c0.7,0,1.2-0.5,1.2-1.2c0-0.7-0.5-1.2-1.2-1.2h-3.1c-0.5-1-1.4-1.6-2.5-1.6h-2.1
	C15,2.8,14.5,2.5,14,2.5H2c-1.1,0-2,0.9-2,2v3.2C0,8.8,0.9,9.7,2,9.7z M10.8,20.9h-8c-0.4,0-0.8-0.4-0.8-0.8V18c0-0.1,0-0.2,0.1-0.4
	L2.9,16l1.8,1.8c0.2,0.2,0.5,0.4,0.8,0.4h6.1v2C11.6,20.5,11.2,20.9,10.8,20.9z M8.4,15.7h0.9c0.1,0,0.2,0,0.3,0.1l1.5,1.5H5.5
	c-0.1,0-0.2,0-0.3-0.1l-2-2V9.7h2v3.2c0,1.1,0.9,2,2,2h0.1C7.4,15.4,7.9,15.7,8.4,15.7z M7.2,9.7v4.4c-0.7,0-1.2-0.5-1.2-1.2V9.7
	H7.2z M8.8,10.9c0,0.2-0.2,0.4-0.4,0.4H8V9.7h0.8V10.9z M23.2,6.1c0,0.1,0,0.2-0.1,0.3c-0.1,0.1-0.2,0.1-0.3,0.1H20
	c0-0.1,0-0.3,0-0.4c0-0.1,0-0.3,0-0.4h2.8C23,5.7,23.2,5.9,23.2,6.1z M19.1,5.4c0.1,0.2,0.1,0.4,0.1,0.7c0,0.2,0,0.5-0.1,0.7
	c-0.2,0.7-0.8,1.1-1.5,1.3V4.1C18.3,4.3,18.9,4.8,19.1,5.4z M16.8,8.1h-1.6v-4h1.6V8.1z M0.8,4.5c0-0.7,0.5-1.2,1.2-1.2h12
	c0.2,0,0.4,0.2,0.4,0.4v0.4h-0.8c-0.2,0-0.4,0.2-0.4,0.4c0,0.2,0.2,0.4,0.4,0.4h0.8v0.8h-0.8c-0.2,0-0.4,0.2-0.4,0.4
	c0,0.2,0.2,0.4,0.4,0.4h0.8v0.8h-0.8c-0.2,0-0.4,0.2-0.4,0.4c0,0.2,0.2,0.4,0.4,0.4h0.8v0.4c0,0.2-0.2,0.4-0.4,0.4H2
	c-0.7,0-1.2-0.5-1.2-1.2V4.5z"/>
<path d="M2.4,4.4H4c0.2,0,0.4-0.2,0.4-0.4c0-0.2-0.2-0.4-0.4-0.4H2.4C2.2,3.6,2,3.8,2,4C2,4.2,2.2,4.4,2.4,4.4z"/>
<path d="M2.4,6H4c0.2,0,0.4-0.2,0.4-0.4c0-0.2-0.2-0.4-0.4-0.4H2.4C2.2,5.2,2,5.4,2,5.6C2,5.8,2.2,6,2.4,6z"/>
</svg>
