<?xml version="1.0" encoding="utf-8"?>
<!-- Generator: Adobe Illustrator 22.1.0, SVG Export Plug-In . SVG Version: 6.00 Build 0)  -->
<svg version="1.1" id="Слой_1" xmlns="http://www.w3.org/2000/svg" xmlns:xlink="http://www.w3.org/1999/xlink" x="0px" y="0px"
	 viewBox="0 0 24 24" style="enable-background:new 0 0 24 24;" xml:space="preserve">
<g>
	<path d="M8,2.8c0,1.5,0,2.9,0,4.4c0.2,0,0.3,0,0.4,0c5.1,0,10.1,0,15.2,0c0.1,0,0.3,0,0.4,0c0-1.5,0-3,0-4.5
		C18.7,2.8,13.3,2.8,8,2.8z"/>
	<path d="M8,14.3c0.1,0,0.3,0,0.4,0c5.2,0,10.4,0,15.6,0c0-1.5,0-3,0-4.5c-5.3,0-10.7,0-16,0C8,11.4,8,12.9,8,14.3z"/>
	<path d="M8.4,17c-0.1,0-0.3,0-0.4,0c0,1.5,0,3,0,4.4c5.3,0,10.7,0,16,0c0-1.5,0-3,0-4.5c-0.1,0-0.3,0-0.4,0C18.5,17,13.5,17,8.4,17
		z"/>
	<path d="M0,7.3c1.5,0,3,0,4.5,0c0-1.5,0-3,0-4.5c-1.5,0-3,0-4.5,0C0,4.3,0,5.8,0,7.3z"/>
	<path d="M4.4,9.9c-1.5,0-3,0-4.4,0c0,1.5,0,3,0,4.5c1.5,0,3,0,4.4,0C4.4,12.8,4.4,11.4,4.4,9.9z"/>
	<path d="M4.1,17c-1.4,0-2.7,0-4.1,0c0,1.5,0,3,0,4.5c1.5,0,3,0,4.5,0c0-1.5,0-2.9,0-4.4C4.3,17,4.2,17,4.1,17z"/>
</g>
</svg>
