<?xml version="1.0" encoding="utf-8"?>
<!-- Generator: Adobe Illustrator 22.1.0, SVG Export Plug-In . SVG Version: 6.00 Build 0)  -->
<svg version="1.1" id="Слой_1" xmlns="http://www.w3.org/2000/svg" xmlns:xlink="http://www.w3.org/1999/xlink" x="0px" y="0px"
	 viewBox="0 0 24 24" style="enable-background:new 0 0 24 24;" xml:space="preserve">
<g>
	<g>
		<path d="M15.2,12H8.8c-0.2,0-0.4,0.2-0.4,0.4v8.8c0,0.2,0.2,0.4,0.4,0.4h6.4c0.2,0,0.4-0.2,0.4-0.4v-8.8
			C15.6,12.2,15.4,12,15.2,12z M14.8,20.8H9.2v-8h5.6V20.8z"/>
	</g>
</g>
<g>
	<g>
		<path d="M3.6,5.6C2.7,5.6,2,6.3,2,7.2c0,0.9,0.7,1.6,1.6,1.6s1.6-0.7,1.6-1.6C5.2,6.3,4.5,5.6,3.6,5.6z M3.6,8
			C3.2,8,2.8,7.6,2.8,7.2c0-0.4,0.4-0.8,0.8-0.8c0.4,0,0.8,0.4,0.8,0.8C4.4,7.6,4,8,3.6,8z"/>
	</g>
</g>
<g>
	<g>
		<path d="M2,0.8c-1.1,0-2,0.9-2,2s0.9,2,2,2s2-0.9,2-2C4,1.7,3.1,0.8,2,0.8z M2,4C1.3,4,0.8,3.5,0.8,2.8S1.3,1.6,2,1.6
			s1.2,0.5,1.2,1.2S2.7,4,2,4z"/>
	</g>
</g>
<g>
	<g>
		<path d="M20.4,17.6c-0.9,0-1.6,0.7-1.6,1.6s0.7,1.6,1.6,1.6c0.9,0,1.6-0.7,1.6-1.6C22,18.3,21.3,17.6,20.4,17.6z M20.4,20
			c-0.4,0-0.8-0.4-0.8-0.8c0-0.4,0.4-0.8,0.8-0.8c0.4,0,0.8,0.4,0.8,0.8C21.2,19.6,20.8,20,20.4,20z"/>
	</g>
</g>
<g>
	<g>
		<path d="M22,12.8c-1.1,0-2,0.9-2,2s0.9,2,2,2c1.1,0,2-0.9,2-2C24,13.7,23.1,12.8,22,12.8z M22,16c-0.7,0-1.2-0.5-1.2-1.2
			s0.5-1.2,1.2-1.2s1.2,0.5,1.2,1.2S22.7,16,22,16z"/>
	</g>
</g>
<g>
	<g>
		<path d="M18,9.9C18,9.8,18,9.8,18,9.9C18,9.8,18,9.8,18,9.9l-3.7-6c0.1-0.1,0.1-0.2,0.1-0.3V0.4C14.4,0.2,14.2,0,14,0h-4
			C9.8,0,9.6,0.2,9.6,0.4v3.2c0,0.1,0.1,0.2,0.1,0.3L6.1,9.8c0,0,0,0,0,0s0,0,0,0c0,0,0,0.1,0,0.1v0v5.8c-0.1,0-0.1,0.1-0.2,0.1
			C4.2,14.7,2,15,0.8,16.6s-0.9,3.8,0.6,5.1c0.6,0.5,1.4,0.8,2.2,0.8c0.8,0,1.6-0.3,2.2-0.8c0.1,0,0.1,0.1,0.2,0.1v1.8
			C6,23.8,6.2,24,6.4,24h11.2c0.2,0,0.4-0.2,0.4-0.4V10v0C18,9.9,18,9.9,18,9.9z M6,20.8c-0.2-0.1-0.3-0.1-0.5,0
			c-1.1,1.1-2.9,1-4-0.1c-1.1-1.1-1-2.9,0.1-4C2.2,16.3,2.9,16,3.6,16c0.7,0,1.4,0.3,1.9,0.8c0.1,0.1,0.3,0.1,0.5,0L6,20.8L6,20.8z
			 M10.4,0.8h3.2v2.4h-3.2L10.4,0.8L10.4,0.8z M10.6,4h2.8l3.5,5.6H7.1L10.6,4z M17.2,23.2H6.8V10.4h10.4V23.2z"/>
	</g>
</g>
<g>
	<g>
		<rect x="2.4" y="17.2" width="0.8" height="0.8"/>
	</g>
</g>
<g>
	<g>
		<rect x="3.2" y="18" width="0.8" height="0.8"/>
	</g>
</g>
</svg>
