<?xml version="1.0" encoding="utf-8"?>
<!-- Generator: Adobe Illustrator 22.1.0, SVG Export Plug-In . SVG Version: 6.00 Build 0)  -->
<svg version="1.1" id="Слой_1" xmlns="http://www.w3.org/2000/svg" xmlns:xlink="http://www.w3.org/1999/xlink" x="0px" y="0px"
	 viewBox="0 0 24 24" style="enable-background:new 0 0 24 24;" xml:space="preserve">
<path id="XMLID_1232_" d="M12,6.9c-0.9,0-1.8,0.1-2.6,0.4V5.5c0-1.5,1.2-2.6,2.6-2.7c0.7,0,1.4,0.3,1.9,0.8c0.5,0.5,0.8,1.2,0.8,1.9
	c0,0.4,0.4,0.8,0.8,0.8h1.3c0.4,0,0.7-0.3,0.7-0.7c0-3-2.4-5.5-5.4-5.5c-1.5,0-2.8,0.6-3.9,1.6c-1,1-1.6,2.4-1.6,3.9v3.5
	c-1.4,1.2-2.4,2.8-2.9,4.6C3.7,13.7,3.8,14,4.1,14c0.3,0.1,0.5-0.1,0.6-0.3c0.8-3.4,3.9-5.8,7.4-5.8c4.2,0,7.6,3.4,7.6,7.6
	s-3.4,7.6-7.6,7.6c-3.5,0-6.6-2.4-7.4-5.8c-0.1-0.3-0.3-0.4-0.6-0.3c-0.3,0.1-0.4,0.3-0.3,0.6c0.4,1.8,1.5,3.5,3,4.7
	C8.2,23.3,10.1,24,12,24c4.7,0,8.5-3.8,8.5-8.5S16.7,6.9,12,6.9z M8.9,2.2c0.9-0.8,2-1.3,3.2-1.3c0,0,0,0,0,0c2.4,0,4.4,2,4.5,4.4
	h-0.9c0-0.9-0.4-1.8-1.1-2.4c-0.7-0.7-1.6-1-2.6-1c-1.9,0-3.5,1.6-3.5,3.6v2.2C8.2,7.9,7.8,8,7.5,8.2V5.4C7.5,4.2,8,3.1,8.9,2.2z"/>
<path id="XMLID_1231_" d="M4,15.9L4,15.9c0.3,0,0.5-0.2,0.5-0.5S4.2,15,4,15h0c-0.3,0-0.5,0.2-0.5,0.5S3.7,15.9,4,15.9z"/>
<path id="XMLID_1230_" d="M14.8,10.7c0.1-0.2,0-0.5-0.2-0.6c-2.3-1.1-5-0.6-6.8,1.2c-2.3,2.3-2.3,6.1,0,8.5c1.1,1.1,2.6,1.8,4.2,1.8
	s3.1-0.6,4.2-1.8c1.8-1.8,2.3-4.5,1.2-6.8c-0.1-0.2-0.4-0.3-0.6-0.2c-0.2,0.1-0.3,0.4-0.2,0.6c0.9,1.9,0.5,4.2-1,5.7
	c-2,2-5.2,2-7.2,0c-2-2-2-5.2,0-7.2c1.5-1.5,3.8-1.9,5.7-1C14.4,11,14.7,10.9,14.8,10.7z"/>
<path id="XMLID_1226_" d="M16,12c0.1,0,0.2-0.1,0.3-0.1c0.1-0.1,0.1-0.2,0.1-0.3s0-0.2-0.1-0.3c-0.1-0.1-0.2-0.1-0.3-0.1
	c-0.1,0-0.2,0.1-0.3,0.1c-0.1,0.1-0.1,0.2-0.1,0.3s0,0.2,0.1,0.3C15.7,12,15.8,12,16,12z"/>
<path id="XMLID_1225_" d="M12,18.6c-0.3,0-0.5,0.2-0.5,0.5v0.3c0,0.3,0.2,0.5,0.5,0.5s0.5-0.2,0.5-0.5V19
	C12.5,18.8,12.3,18.6,12,18.6z"/>
<path id="XMLID_1223_" d="M12.5,11.9v-0.3c0-0.3-0.2-0.5-0.5-0.5s-0.5,0.2-0.5,0.5v0.3c0,0.3,0.2,0.5,0.5,0.5S12.5,12.2,12.5,11.9z"
	/>
<path id="XMLID_1213_" d="M8.1,15c-0.3,0-0.5,0.2-0.5,0.5c0,0.3,0.2,0.5,0.5,0.5h0.3c0.3,0,0.5-0.2,0.5-0.5C9,15.2,8.7,15,8.5,15
	H8.1z"/>
<path id="XMLID_1211_" d="M15.1,15.5c0,0.3,0.2,0.5,0.5,0.5h0.3c0.3,0,0.5-0.2,0.5-0.5c0-0.3-0.2-0.5-0.5-0.5h-0.3
	C15.3,15,15.1,15.2,15.1,15.5z"/>
</svg>
