<?xml version="1.0" encoding="utf-8"?>
<!-- Generator: Adobe Illustrator 22.1.0, SVG Export Plug-In . SVG Version: 6.00 Build 0)  -->
<svg version="1.1" id="Слой_1" xmlns="http://www.w3.org/2000/svg" xmlns:xlink="http://www.w3.org/1999/xlink" x="0px" y="0px"
	 viewBox="0 0 24 24" style="enable-background:new 0 0 24 24;" xml:space="preserve">
<g>
	<path d="M0-234L0-234L0-234L0-234L0-234L0-234L0-234L0-234L0-234L0-234z M0-234L0-234L0-234L0-234L0-234z"/>
</g>
<path d="M22.9-231.8c0-0.2,0.2-0.4,0.4-0.7c0.4-0.5,0.7-0.9,0.6-1.5c-0.1-0.6-0.6-0.9-1.1-1.1c-0.3-0.2-0.6-0.3-0.6-0.5
	c0-0.1,0.1-0.5,0.2-0.8c0.2-0.5,0.4-1.1,0.1-1.6c-0.3-0.5-0.9-0.6-1.4-0.7c-0.3-0.1-0.7-0.1-0.8-0.2c-0.1-0.1-0.1-0.4-0.1-0.8
	c0-0.6,0-1.2-0.4-1.5c-0.4-0.4-1-0.3-1.6-0.2c-0.3,0.1-0.7,0.1-0.8,0.1c-0.1-0.1-0.2-0.4-0.3-0.7c-0.2-0.5-0.4-1.1-0.9-1.3
	c-0.5-0.2-1,0.1-1.5,0.4c-0.3,0.2-0.6,0.3-0.8,0.3c-0.1,0-0.4-0.3-0.6-0.6c-0.4-0.4-0.8-0.9-1.4-0.9c-0.6,0-1,0.5-1.4,0.9
	c-0.2,0.3-0.5,0.5-0.6,0.6c-0.1,0-0.5-0.1-0.8-0.3c-0.5-0.3-1-0.6-1.5-0.4c-0.5,0.2-0.7,0.7-0.9,1.3c-0.1,0.3-0.2,0.6-0.3,0.7
	c-0.1,0.1-0.4,0-0.8-0.1c-0.6-0.1-1.1-0.2-1.6,0.2c-0.4,0.4-0.4,0.9-0.4,1.5c0,0.3,0,0.7-0.1,0.8c-0.1,0.1-0.4,0.2-0.8,0.2
	c-0.6,0.1-1.1,0.2-1.4,0.7c-0.3,0.5-0.1,1,0.1,1.6c0.1,0.3,0.2,0.7,0.2,0.8c0,0.1-0.3,0.3-0.6,0.5c-0.5,0.3-1,0.6-1.1,1.1
	c-0.1,0.5,0.3,1,0.6,1.5c0.2,0.3,0.4,0.6,0.4,0.7c0,0.2-0.2,0.4-0.4,0.7c-0.4,0.5-0.7,0.9-0.6,1.5c0.1,0.6,0.6,0.9,1.1,1.1
	c0.3,0.2,0.6,0.3,0.6,0.5c0,0.1-0.1,0.5-0.2,0.8c-0.2,0.5-0.4,1.1-0.1,1.6c0.3,0.5,0.9,0.6,1.4,0.7c0.3,0.1,0.7,0.1,0.8,0.2
	c0.1,0.1,0.1,0.4,0.1,0.8c0,0.6,0,1.2,0.4,1.5c0.4,0.4,1,0.3,1.6,0.2c0.3-0.1,0.7-0.1,0.8-0.1s0.2,0.4,0.3,0.7
	c0.2,0.5,0.4,1.1,0.9,1.3c0.5,0.2,1-0.1,1.5-0.4c0.3-0.2,0.6-0.3,0.8-0.3c0.1,0,0.4,0.3,0.6,0.6c0.4,0.4,0.8,0.9,1.4,0.9
	c0.6,0,1-0.5,1.4-0.9c0.2-0.3,0.5-0.5,0.6-0.6c0.1,0,0.5,0.1,0.8,0.3c0.5,0.3,1,0.6,1.5,0.4c0.5-0.2,0.7-0.7,0.9-1.3
	c0.1-0.3,0.2-0.6,0.3-0.7c0.1-0.1,0.4,0,0.8,0.1c0.6,0.1,1.1,0.2,1.6-0.2c0.4-0.4,0.4-0.9,0.4-1.5c0-0.3,0-0.7,0.1-0.8
	c0.1-0.1,0.4-0.2,0.8-0.2c0.6-0.1,1.1-0.2,1.4-0.7c0.3-0.5,0.1-1-0.1-1.6c-0.1-0.3-0.2-0.7-0.2-0.8c0-0.1,0.3-0.3,0.6-0.5
	c0.5-0.3,1-0.6,1.1-1.1c0.1-0.5-0.3-1-0.6-1.5C23.1-231.4,22.9-231.7,22.9-231.8z M23.1-229.8c0,0.1-0.3,0.3-0.7,0.5
	c-0.4,0.3-0.9,0.5-1.1,1c-0.2,0.5,0,0.9,0.2,1.4c0.1,0.3,0.2,0.7,0.2,0.8c-0.1,0.1-0.4,0.2-0.8,0.2c-0.5,0.1-1,0.2-1.3,0.5
	c-0.3,0.4-0.3,0.9-0.3,1.4c0,0.4,0,0.7-0.1,0.8c-0.1,0.1-0.4,0-0.8-0.1c-0.5-0.1-1-0.2-1.4,0.1c-0.4,0.2-0.6,0.7-0.8,1.2
	c-0.1,0.3-0.2,0.7-0.3,0.7c-0.1,0-0.4-0.1-0.7-0.3c-0.5-0.3-0.9-0.5-1.4-0.4c-0.5,0.1-0.8,0.5-1.1,0.9c-0.2,0.3-0.5,0.6-0.6,0.6
	c-0.1,0-0.4-0.3-0.6-0.6c-0.3-0.4-0.7-0.8-1.1-0.9c-0.5-0.1-0.9,0.2-1.4,0.4c-0.3,0.2-0.6,0.4-0.7,0.3c-0.1,0-0.2-0.4-0.3-0.7
	c-0.2-0.5-0.3-1-0.8-1.2c-0.4-0.2-0.9-0.2-1.4-0.1c-0.4,0.1-0.7,0.1-0.8,0.1c-0.1-0.1-0.1-0.4-0.1-0.8c0-0.5,0-1-0.3-1.4
	c-0.3-0.4-0.8-0.4-1.3-0.5c-0.4-0.1-0.7-0.1-0.8-0.2c-0.1-0.1,0.1-0.4,0.2-0.8c0.2-0.5,0.3-1,0.2-1.4c-0.2-0.4-0.6-0.7-1.1-1
	c-0.3-0.2-0.6-0.4-0.7-0.5c0-0.1,0.2-0.4,0.4-0.7c0.3-0.4,0.7-0.8,0.7-1.3c0-0.5-0.3-0.9-0.7-1.3c-0.2-0.3-0.5-0.6-0.4-0.7
	c0-0.1,0.3-0.3,0.7-0.5c0.4-0.3,0.9-0.5,1.1-1c0.2-0.5,0-0.9-0.2-1.4c-0.1-0.3-0.2-0.7-0.2-0.8c0.1-0.1,0.4-0.2,0.8-0.2
	c0.5-0.1,1-0.2,1.3-0.5c0.3-0.4,0.3-0.9,0.3-1.4c0-0.4,0-0.7,0.1-0.8c0.1-0.1,0.4,0,0.8,0.1c0.5,0.1,1,0.2,1.4-0.1
	c0.4-0.2,0.6-0.7,0.8-1.2c0.1-0.3,0.2-0.7,0.3-0.7c0.1,0,0.4,0.1,0.7,0.3c0.5,0.3,0.9,0.5,1.4,0.4c0.5-0.1,0.8-0.5,1.1-0.9
	c0.2-0.3,0.5-0.6,0.6-0.6c0.1,0,0.4,0.3,0.6,0.6c0.3,0.4,0.7,0.8,1.1,0.9c0.5,0.1,0.9-0.2,1.4-0.4c0.3-0.2,0.6-0.4,0.7-0.3
	c0.1,0,0.2,0.4,0.3,0.7c0.2,0.5,0.3,1,0.8,1.2c0.4,0.2,0.9,0.2,1.4,0.1c0.4-0.1,0.7-0.1,0.8-0.1c0.1,0.1,0.1,0.4,0.1,0.8
	c0,0.5,0,1,0.3,1.4c0.3,0.4,0.8,0.4,1.3,0.5c0.4,0.1,0.7,0.1,0.8,0.2c0.1,0.1-0.1,0.4-0.2,0.8c-0.2,0.5-0.3,1-0.2,1.4
	c0.2,0.4,0.6,0.7,1.1,1c0.3,0.2,0.6,0.4,0.7,0.5c0,0.1-0.2,0.4-0.4,0.7c-0.3,0.4-0.7,0.8-0.7,1.3c0,0.5,0.3,0.9,0.7,1.3
	C22.8-230.2,23.1-229.9,23.1-229.8z"/>
<path d="M2.4,19.2H1.3c-0.3,0-0.7-0.1-0.9-0.4C0.1,18.6,0,18.2,0,17.9V6.3C0,6,0.1,5.7,0.4,5.5c0.2-0.2,0.5-0.4,0.9-0.4h2.1
	c0.3-0.5,0.6-1,1-1.4C5.4,2.7,6.9,2,8.5,2s3.1,0.7,4.2,1.7c0.4,0.4,0.7,0.9,1,1.4h2.1c0.3,0,0.7,0.1,0.9,0.4C16.9,5.7,17,6,17,6.3
	v3.2h3.2c0.5,0,1.1,0.2,1.5,0.6c0.4,0.4,0.7,0.8,0.9,1.4c0.5,1.7,0.9,3.5,1.4,5.2c0,0.1,0.1,0.3,0.1,0.4c0,0.5-0.1,0.9-0.4,1.3
	c-0.3,0.3-0.6,0.6-1.1,0.7c0,0,0,0,0,0c-0.1,0.5-0.3,1-0.7,1.4c-0.5,0.5-1.1,0.7-1.8,0.7c-0.7,0-1.3-0.3-1.8-0.7
	c-0.4-0.4-0.6-0.8-0.7-1.3H7.4c-0.1,0.5-0.3,1-0.7,1.3c-0.5,0.5-1.1,0.7-1.8,0.7S3.6,21,3.1,20.5C2.7,20.1,2.5,19.7,2.4,19.2z
	 M8.5,12.9c-0.3,0-0.5,0.2-0.5,0.5s0.2,0.5,0.5,0.5c0.3,0,0.5-0.2,0.5-0.5S8.8,12.9,8.5,12.9z M7.2,13.2c-0.1,0.2-0.3,0.4-0.6,0.3
	c-0.8-0.3-1.6-0.8-2.2-1.4C3.3,11,2.6,9.5,2.6,7.9c0-0.7,0.1-1.3,0.3-1.9H1.3C1.2,6,1.1,6.1,1,6.1C1,6.2,0.9,6.3,0.9,6.3v11.6
	c0,0.1,0,0.2,0.1,0.2c0.1,0.1,0.1,0.1,0.2,0.1h1.1c0.1-0.5,0.3-1,0.7-1.3c0.5-0.5,1.1-0.8,1.8-0.8s1.3,0.3,1.8,0.8
	c0.4,0.4,0.6,0.8,0.7,1.3h8.7V6.3c0-0.1,0-0.2-0.1-0.2C15.9,6.1,15.9,6,15.8,6h-1.7c0.2,0.6,0.3,1.2,0.3,1.9c0,1.6-0.7,3.1-1.7,4.2
	c-0.6,0.6-1.3,1.1-2.2,1.4c-0.2,0.1-0.5-0.1-0.6-0.3c-0.1-0.2,0-0.5,0.3-0.6c0.7-0.3,1.3-0.6,1.8-1.2c0.9-0.9,1.5-2.1,1.5-3.5
	c0-1.4-0.6-2.6-1.5-3.5c-0.9-0.9-2.1-1.5-3.5-1.5C7.1,2.9,5.9,3.5,5,4.4C4.1,5.3,3.6,6.5,3.6,7.9c0,1.4,0.6,2.6,1.5,3.5
	c0.5,0.5,1.2,0.9,1.9,1.2C7.1,12.7,7.2,12.9,7.2,13.2z M7.7,4.4v3.5c0,0.3,0.2,0.5,0.5,0.5h2.1c0.3,0,0.5-0.2,0.5-0.5
	c0-0.3-0.2-0.5-0.5-0.5H8.7V4.4c0-0.3-0.2-0.5-0.5-0.5C7.9,3.9,7.7,4.1,7.7,4.4z M22.5,18.1c0.2-0.1,0.3-0.2,0.4-0.3
	c0.1-0.2,0.2-0.4,0.2-0.6c0-0.1,0-0.2,0-0.3l-0.7-2.7H17v4h0.4c0.1-0.5,0.3-1,0.7-1.3c0.5-0.5,1.1-0.8,1.8-0.8
	c0.7,0,1.3,0.3,1.8,0.8C22.1,17.2,22.4,17.6,22.5,18.1z M21.1,17.5c-0.3-0.3-0.7-0.5-1.1-0.5c-0.4,0-0.9,0.2-1.1,0.5
	c-0.3,0.3-0.5,0.7-0.5,1.1c0,0.4,0.2,0.9,0.5,1.1c0.3,0.3,0.7,0.5,1.1,0.5c0.4,0,0.9-0.2,1.1-0.5c0.3-0.3,0.5-0.7,0.5-1.1
	C21.6,18.2,21.4,17.8,21.1,17.5z M6.1,17.5c-0.3-0.3-0.7-0.5-1.1-0.5s-0.9,0.2-1.1,0.5c-0.3,0.3-0.5,0.7-0.5,1.1
	c0,0.4,0.2,0.9,0.5,1.1c0.3,0.3,0.7,0.5,1.1,0.5s0.9-0.2,1.1-0.5c0.3-0.3,0.5-0.7,0.5-1.1C6.5,18.2,6.3,17.8,6.1,17.5z M17,13.3h5
	l-0.4-1.6c-0.1-0.3-0.3-0.7-0.6-0.9c-0.3-0.2-0.6-0.3-0.9-0.3H17V13.3z"/>
</svg>
