<?xml version="1.0" encoding="utf-8"?>
<!-- Generator: Adobe Illustrator 22.1.0, SVG Export Plug-In . SVG Version: 6.00 Build 0)  -->
<svg version="1.1" id="Слой_1" xmlns="http://www.w3.org/2000/svg" xmlns:xlink="http://www.w3.org/1999/xlink" x="0px" y="0px"
	 viewBox="0 0 24 24" style="enable-background:new 0 0 24 24;" xml:space="preserve">
<g>
	<g>
		<g>
			<path d="M2.1,14.9c-0.2,0.1-0.4,0.3-0.4,0.6c-0.2,0.6,0.1,1.6,0.7,2.6C3,19.1,3.9,20,4.6,20c0.1,0,0.3,0,0.4-0.1
				c0.2-0.1,0.4-0.3,0.4-0.6c0.2-0.6-0.1-1.6-0.7-2.6C4.1,15.5,2.9,14.5,2.1,14.9z M4.7,19.1C4.7,19.2,4.7,19.2,4.7,19.1
				c-0.2,0.2-0.9-0.2-1.7-1.4c-0.5-0.9-0.7-1.7-0.6-2c0,0,0-0.1,0-0.1c0,0,0,0,0,0c0.2,0,0.9,0.4,1.6,1.5C4.7,18,4.8,18.8,4.7,19.1z
				"/>
			<path d="M23.9,14.3c-0.1-0.5-0.5-1-0.9-1.3h0h0l-3.2-1.8c-0.7-0.4-1.7-0.3-2.7,0.4l-0.3-0.4c2-1.9,4.2-4.1,4.3-4.7
				c0.2-0.9-1.1-1.9-1.4-2C19.6,4.3,16.2,2,12,2S4.4,4.3,4.2,4.5c-0.3,0.2-1.6,1.1-1.4,2C3,7.1,5.2,9.3,7.2,11.2l-0.3,0.4
				c-1-0.7-1.9-0.8-2.7-0.4L1,13l0,0c-0.5,0.3-0.8,0.8-0.9,1.3c-0.3,1.2,0.1,2.9,1,4.5c1.1,2,2.8,3.2,4.1,3.2c0.3,0,0.6-0.1,0.9-0.2
				l3-1.7l0.1,0c0.5-0.4,0.9-0.9,1-1.6h3.6c0.1,0.6,0.4,1.2,1,1.6l0.1,0l3,1.7c0.3,0.2,0.6,0.2,0.9,0.2c1.3,0,3-1.2,4.1-3.2
				C23.8,17.3,24.2,15.5,23.9,14.3z M20.4,6.3c-0.1,0.4-1.8,2.1-4.1,4.3v0l-0.7-0.9l2.7-3c0,0,0,0,0,0l1.2-1.3
				C20.1,5.7,20.5,6.1,20.4,6.3z M15.2,9c-0.4-0.5-1-0.9-1.6-1.1V5C13.7,5,13.9,5,14,5.1c1.2,0.3,2.4,0.8,3.5,1.4L15.2,9z M12,2.8
				c3.2,0,6,1.5,7,2.1l-0.9,1c-1.2-0.7-2.5-1.2-3.9-1.5c-1.5-0.4-3-0.4-4.4,0C8.4,4.7,7.1,5.2,5.9,5.8L5,4.9C6,4.3,8.8,2.8,12,2.8z
				 M12.8,4.8v2.8c-0.5-0.1-1.1-0.1-1.6,0V4.8C11.7,4.8,12.3,4.8,12.8,4.8z M10.4,7.9C9.8,8.2,9.2,8.5,8.8,9L6.4,6.4
				c1.1-0.6,2.3-1,3.5-1.4C10.1,5,10.3,5,10.4,5L10.4,7.9z M3.6,6.3c-0.1-0.2,0.3-0.6,0.8-1l4,4.3l-0.7,0.9C5.4,8.4,3.7,6.7,3.6,6.3
				z M6.3,20.3c-0.1,0.3-0.3,0.6-0.5,0.8c-0.9,0.5-2.7-0.4-4-2.6v0C1,17,0.6,15.5,0.9,14.5c0.1-0.3,0.3-0.6,0.5-0.8
				c0.2-0.1,0.3-0.1,0.5-0.1c1,0,2.4,1,3.4,2.8C6.2,17.8,6.6,19.3,6.3,20.3z M8.9,19.3L8.9,19.3L8.9,19.3L8.9,19.3l-1.8,1
				c0.2-1.2-0.1-2.8-1-4.3c-0.9-1.6-2.2-2.7-3.3-3l1.8-1.1c0.5-0.3,1.3-0.1,2.2,0.6c0.7,0.6,1.3,1.3,1.7,2.1c0.6,1,0.9,2.1,1,3.3
				C9.5,18.6,9.2,19.1,8.9,19.3z M13.7,17.6h-3.5c-0.1-1.2-0.4-2.4-1.1-3.4c-0.4-0.8-1-1.5-1.7-2.1l1.6-2.2c0.7-0.9,1.7-1.5,2.9-1.5
				s2.2,0.5,2.9,1.5l1.6,2.2c-0.7,0.6-1.2,1.3-1.7,2.1C14.2,15.2,13.8,16.4,13.7,17.6z M15.2,19.3L15.2,19.3L15.2,19.3L15.2,19.3
				c-0.5-0.3-0.7-0.8-0.7-1.5c0-1.2,0.4-2.3,1-3.3c0.4-0.8,1-1.5,1.7-2.1c0.8-0.7,1.7-0.9,2.2-0.6l1.8,1.1c-1.1,0.4-2.4,1.5-3.3,3
				c-0.9,1.5-1.3,3.1-1,4.3L15.2,19.3z M22.2,18.4c-1.3,2.2-3.1,3.1-4,2.6v0c-0.3-0.2-0.5-0.5-0.5-0.8c-0.3-1,0.1-2.5,0.9-3.9
				c1.1-1.8,2.5-2.8,3.4-2.8c0.2,0,0.4,0,0.5,0.1c0.3,0.2,0.5,0.5,0.5,0.8C23.4,15.5,23,17.1,22.2,18.4z"/>
			<path d="M21.9,14.9c-0.8-0.4-2,0.6-2.7,1.8c-0.6,1-0.8,2-0.7,2.6c0.1,0.2,0.2,0.5,0.4,0.6c0.1,0.1,0.3,0.1,0.4,0.1
				c0.7,0,1.7-0.9,2.3-1.9c0.6-1,0.8-2,0.7-2.6C22.2,15.2,22.1,15,21.9,14.9z M20.9,17.7c-0.7,1.2-1.5,1.6-1.6,1.5c0,0,0-0.1,0-0.1
				c-0.1-0.3,0.1-1.1,0.6-2c0.7-1.2,1.5-1.6,1.6-1.5c0,0,0,0.1,0,0.1C21.6,16,21.5,16.8,20.9,17.7z"/>
			<path d="M12,10.8c-1.1,0-2,0.9-2,2s0.9,2,2,2s2-0.9,2-2C14,11.7,13.1,10.8,12,10.8z M12,14c-0.7,0-1.2-0.5-1.2-1.2
				s0.5-1.2,1.2-1.2c0.7,0,1.2,0.5,1.2,1.2C13.2,13.5,12.7,14,12,14z"/>
		</g>
	</g>
</g>
</svg>
