<?xml version="1.0" encoding="utf-8"?>
<!-- Generator: Adobe Illustrator 22.1.0, SVG Export Plug-In . SVG Version: 6.00 Build 0)  -->
<svg version="1.1" id="Слой_1" xmlns="http://www.w3.org/2000/svg" xmlns:xlink="http://www.w3.org/1999/xlink" x="0px" y="0px"
	 viewBox="0 0 24 24" style="enable-background:new 0 0 24 24;" xml:space="preserve">
<g>
	<g>
		<path d="M12,0C5.4,0,0,5.4,0,12s5.4,12,12,12c6.6,0,12-5.4,12-12S18.6,0,12,0z M12,18.7c-1.4,0-2.7-0.3-3.9-0.9
			c-0.3,0.2-1.7,1.3-3.1,0.8c0.8-0.8,1-1.7,1-2.3c-1.1-1.2-1.8-2.7-1.8-4.3c0-3.7,3.5-6.7,7.7-6.7c4.3,0,7.7,3,7.7,6.7
			S16.3,18.7,12,18.7z"/>
	</g>
</g>
</svg>
