<?xml version="1.0" encoding="utf-8"?>
<!-- Generator: Adobe Illustrator 22.1.0, SVG Export Plug-In . SVG Version: 6.00 Build 0)  -->
<svg version="1.1" id="Слой_1" xmlns="http://www.w3.org/2000/svg" xmlns:xlink="http://www.w3.org/1999/xlink" x="0px" y="0px"
	 viewBox="0 0 24 24" style="enable-background:new 0 0 24 24;" xml:space="preserve">
<g>
	<path d="M23.9,12.1c0.1-0.2,0.1-0.5-0.1-0.6l-4.9-4.9c-0.2-0.2-0.6-0.2-0.8,0l-1.3,1.3l-0.7-0.7l1.3-1.3c0.2-0.2,0.2-0.6,0-0.8
		l-4.9-4.9C12.3,0,12.1,0,11.9,0.1s-0.3,0.3-0.3,0.5l0.7,6.2l-3.4,3.4c-0.2,0.2-0.2,0.6,0,0.8s0.6,0.2,0.8,0l3.6-3.6
		c0.1-0.1,0.2-0.3,0.2-0.4L12.8,2l3.5,3.5L15,6.8c-0.2,0.2-0.2,0.6,0,0.8L16.5,9c0.2,0.2,0.6,0.2,0.8,0l1.3-1.3l3.5,3.5l-4.9-0.6
		c-0.2,0-0.3,0-0.4,0.2L15,12.4l-3.3-1.3c-0.3-0.1-0.6,0-0.7,0.3s0,0.6,0.3,0.7l3.6,1.4c0.2,0.1,0.4,0,0.6-0.1l1.7-1.7l6.2,0.7
		C23.6,12.5,23.8,12.3,23.9,12.1z"/>
	<path d="M14.4,14.2c0-0.2-0.2-0.3-0.3-0.4l-6-2.4c-0.2-0.1-0.4,0-0.6,0.1l-1.2,1.2c-0.1,0.1-0.2,0.3-0.1,0.5c0,0.1,0.1,0.2,0.1,0.3
		c0.1,0.1,0.1,0.1,0.2,0.1l6,2.4c0.2,0.1,0.4,0,0.6-0.1l1.2-1.2C14.3,14.6,14.4,14.4,14.4,14.2z M12.5,14.9l-4.9-2L8,12.6l4.9,2
		L12.5,14.9L12.5,14.9z"/>
	<path d="M11.9,16.7c0-0.2-0.2-0.3-0.3-0.4l-6-2.4c-0.2-0.1-0.4,0-0.6,0.1l-1.2,1.2c-0.1,0.1-0.2,0.3-0.1,0.5c0,0.1,0.1,0.2,0.1,0.3
		C3.9,16,4,16.1,4,16.1l6,2.4c0.2,0.1,0.4,0,0.6-0.1l1.2-1.2C11.9,17,12,16.8,11.9,16.7z M10.1,17.4l-4.9-2L5.6,15l4.9,2L10.1,17.4
		L10.1,17.4z"/>
	<path d="M9.2,18.9c-0.2-0.2-0.6-0.2-0.8,0l-3.8,3.8l-3-0.5l-0.6-2.8L3,17.5l2.8,1.1c0.3,0.1,0.6,0,0.7-0.3c0.1-0.3,0-0.6-0.3-0.7
		l-3.2-1.3c-0.2-0.1-0.4,0-0.6,0.1l-2.4,2.4C0,19,0,19.2,0,19.4l0.7,3.5c0,0.1,0.1,0.2,0.1,0.3c0.1,0.1,0.2,0.1,0.3,0.2l3.6,0.6
		c0.2,0,0.3,0,0.5-0.2l4-4C9.5,19.5,9.5,19.1,9.2,18.9z"/>
</g>
</svg>
