<?xml version="1.0" encoding="utf-8"?>
<!-- Generator: Adobe Illustrator 22.1.0, SVG Export Plug-In . SVG Version: 6.00 Build 0)  -->
<svg version="1.1" id="Слой_1" xmlns="http://www.w3.org/2000/svg" xmlns:xlink="http://www.w3.org/1999/xlink" x="0px" y="0px"
	 viewBox="0 0 24 24" style="enable-background:new 0 0 24 24;" xml:space="preserve">
<g>
	<path d="M0-234L0-234L0-234L0-234L0-234L0-234L0-234L0-234L0-234L0-234z M0-234L0-234L0-234L0-234L0-234z"/>
</g>
<path d="M22.9-231.8c0-0.2,0.2-0.4,0.4-0.7c0.4-0.5,0.7-0.9,0.6-1.5c-0.1-0.6-0.6-0.9-1.1-1.1c-0.3-0.2-0.6-0.3-0.6-0.5
	c0-0.1,0.1-0.5,0.2-0.8c0.2-0.5,0.4-1.1,0.1-1.6c-0.3-0.5-0.9-0.6-1.4-0.7c-0.3-0.1-0.7-0.1-0.8-0.2c-0.1-0.1-0.1-0.4-0.1-0.8
	c0-0.6,0-1.2-0.4-1.5c-0.4-0.4-1-0.3-1.6-0.2c-0.3,0.1-0.7,0.1-0.8,0.1c-0.1-0.1-0.2-0.4-0.3-0.7c-0.2-0.5-0.4-1.1-0.9-1.3
	c-0.5-0.2-1,0.1-1.5,0.4c-0.3,0.2-0.6,0.3-0.8,0.3c-0.1,0-0.4-0.3-0.6-0.6c-0.4-0.4-0.8-0.9-1.4-0.9c-0.6,0-1,0.5-1.4,0.9
	c-0.2,0.3-0.5,0.5-0.6,0.6c-0.1,0-0.5-0.1-0.8-0.3c-0.5-0.3-1-0.6-1.5-0.4c-0.5,0.2-0.7,0.7-0.9,1.3c-0.1,0.3-0.2,0.6-0.3,0.7
	c-0.1,0.1-0.4,0-0.8-0.1c-0.6-0.1-1.1-0.2-1.6,0.2c-0.4,0.4-0.4,0.9-0.4,1.5c0,0.3,0,0.7-0.1,0.8c-0.1,0.1-0.4,0.2-0.8,0.2
	c-0.6,0.1-1.1,0.2-1.4,0.7c-0.3,0.5-0.1,1,0.1,1.6c0.1,0.3,0.2,0.7,0.2,0.8c0,0.1-0.3,0.3-0.6,0.5c-0.5,0.3-1,0.6-1.1,1.1
	c-0.1,0.5,0.3,1,0.6,1.5c0.2,0.3,0.4,0.6,0.4,0.7c0,0.2-0.2,0.4-0.4,0.7c-0.4,0.5-0.7,0.9-0.6,1.5c0.1,0.6,0.6,0.9,1.1,1.1
	c0.3,0.2,0.6,0.3,0.6,0.5c0,0.1-0.1,0.5-0.2,0.8c-0.2,0.5-0.4,1.1-0.1,1.6c0.3,0.5,0.9,0.6,1.4,0.7c0.3,0.1,0.7,0.1,0.8,0.2
	c0.1,0.1,0.1,0.4,0.1,0.8c0,0.6,0,1.2,0.4,1.5c0.4,0.4,1,0.3,1.6,0.2c0.3-0.1,0.7-0.1,0.8-0.1s0.2,0.4,0.3,0.7
	c0.2,0.5,0.4,1.1,0.9,1.3c0.5,0.2,1-0.1,1.5-0.4c0.3-0.2,0.6-0.3,0.8-0.3c0.1,0,0.4,0.3,0.6,0.6c0.4,0.4,0.8,0.9,1.4,0.9
	c0.6,0,1-0.5,1.4-0.9c0.2-0.3,0.5-0.5,0.6-0.6c0.1,0,0.5,0.1,0.8,0.3c0.5,0.3,1,0.6,1.5,0.4c0.5-0.2,0.7-0.7,0.9-1.3
	c0.1-0.3,0.2-0.6,0.3-0.7c0.1-0.1,0.4,0,0.8,0.1c0.6,0.1,1.1,0.2,1.6-0.2c0.4-0.4,0.4-0.9,0.4-1.5c0-0.3,0-0.7,0.1-0.8
	c0.1-0.1,0.4-0.2,0.8-0.2c0.6-0.1,1.1-0.2,1.4-0.7c0.3-0.5,0.1-1-0.1-1.6c-0.1-0.3-0.2-0.7-0.2-0.8c0-0.1,0.3-0.3,0.6-0.5
	c0.5-0.3,1-0.6,1.1-1.1c0.1-0.5-0.3-1-0.6-1.5C23.1-231.4,22.9-231.7,22.9-231.8z M23.1-229.8c0,0.1-0.3,0.3-0.7,0.5
	c-0.4,0.3-0.9,0.5-1.1,1c-0.2,0.5,0,0.9,0.2,1.4c0.1,0.3,0.2,0.7,0.2,0.8c-0.1,0.1-0.4,0.2-0.8,0.2c-0.5,0.1-1,0.2-1.3,0.5
	c-0.3,0.4-0.3,0.9-0.3,1.4c0,0.4,0,0.7-0.1,0.8c-0.1,0.1-0.4,0-0.8-0.1c-0.5-0.1-1-0.2-1.4,0.1c-0.4,0.2-0.6,0.7-0.8,1.2
	c-0.1,0.3-0.2,0.7-0.3,0.7c-0.1,0-0.4-0.1-0.7-0.3c-0.5-0.3-0.9-0.5-1.4-0.4c-0.5,0.1-0.8,0.5-1.1,0.9c-0.2,0.3-0.5,0.6-0.6,0.6
	c-0.1,0-0.4-0.3-0.6-0.6c-0.3-0.4-0.7-0.8-1.1-0.9c-0.5-0.1-0.9,0.2-1.4,0.4c-0.3,0.2-0.6,0.4-0.7,0.3c-0.1,0-0.2-0.4-0.3-0.7
	c-0.2-0.5-0.3-1-0.8-1.2c-0.4-0.2-0.9-0.2-1.4-0.1c-0.4,0.1-0.7,0.1-0.8,0.1c-0.1-0.1-0.1-0.4-0.1-0.8c0-0.5,0-1-0.3-1.4
	c-0.3-0.4-0.8-0.4-1.3-0.5c-0.4-0.1-0.7-0.1-0.8-0.2c-0.1-0.1,0.1-0.4,0.2-0.8c0.2-0.5,0.3-1,0.2-1.4c-0.2-0.4-0.6-0.7-1.1-1
	c-0.3-0.2-0.6-0.4-0.7-0.5c0-0.1,0.2-0.4,0.4-0.7c0.3-0.4,0.7-0.8,0.7-1.3c0-0.5-0.3-0.9-0.7-1.3c-0.2-0.3-0.5-0.6-0.4-0.7
	c0-0.1,0.3-0.3,0.7-0.5c0.4-0.3,0.9-0.5,1.1-1c0.2-0.5,0-0.9-0.2-1.4c-0.1-0.3-0.2-0.7-0.2-0.8c0.1-0.1,0.4-0.2,0.8-0.2
	c0.5-0.1,1-0.2,1.3-0.5c0.3-0.4,0.3-0.9,0.3-1.4c0-0.4,0-0.7,0.1-0.8c0.1-0.1,0.4,0,0.8,0.1c0.5,0.1,1,0.2,1.4-0.1
	c0.4-0.2,0.6-0.7,0.8-1.2c0.1-0.3,0.2-0.7,0.3-0.7c0.1,0,0.4,0.1,0.7,0.3c0.5,0.3,0.9,0.5,1.4,0.4c0.5-0.1,0.8-0.5,1.1-0.9
	c0.2-0.3,0.5-0.6,0.6-0.6c0.1,0,0.4,0.3,0.6,0.6c0.3,0.4,0.7,0.8,1.1,0.9c0.5,0.1,0.9-0.2,1.4-0.4c0.3-0.2,0.6-0.4,0.7-0.3
	c0.1,0,0.2,0.4,0.3,0.7c0.2,0.5,0.3,1,0.8,1.2c0.4,0.2,0.9,0.2,1.4,0.1c0.4-0.1,0.7-0.1,0.8-0.1c0.1,0.1,0.1,0.4,0.1,0.8
	c0,0.5,0,1,0.3,1.4c0.3,0.4,0.8,0.4,1.3,0.5c0.4,0.1,0.7,0.1,0.8,0.2c0.1,0.1-0.1,0.4-0.2,0.8c-0.2,0.5-0.3,1-0.2,1.4
	c0.2,0.4,0.6,0.7,1.1,1c0.3,0.2,0.6,0.4,0.7,0.5c0,0.1-0.2,0.4-0.4,0.7c-0.3,0.4-0.7,0.8-0.7,1.3c0,0.5,0.3,0.9,0.7,1.3
	C22.8-230.2,23.1-229.9,23.1-229.8z"/>
<g>
	<path d="M17.9,6.1c-0.3,0-0.5,0.2-0.5,0.5c0,0.1,0,0.2,0.1,0.3v0l0,0l0,0c0,0,0,0,0,0c1.3,1.4,2.1,3.2,2.1,5.2c0,2.1-0.9,4-2.2,5.4
		C16,19,14.1,19.8,12,19.8c-0.9,0-1.8-0.2-2.6-0.4c0,0,0,0,0,0l0,0v0c0,0-0.1,0-0.1,0c-0.3,0-0.5,0.2-0.5,0.5c0,0.2,0.1,0.4,0.3,0.5
		c0.9,0.3,1.9,0.5,2.9,0.5c2.4,0,4.5-1,6.1-2.5c1.6-1.6,2.5-3.7,2.5-6.1c0-2.3-0.9-4.3-2.3-5.9C18.2,6.2,18,6.1,17.9,6.1z"/>
	<circle cx="16.5" cy="5.4" r="0.5"/>
	<path d="M14.9,4.1C14,3.8,13,3.6,12,3.6c-2.4,0-4.5,1-6.1,2.5c-1.6,1.6-2.5,3.7-2.5,6.1c0,2.3,0.9,4.3,2.3,5.9
		c0.1,0.1,0.2,0.2,0.4,0.2c0.3,0,0.5-0.2,0.5-0.5c0-0.1,0-0.2-0.1-0.3v0l0,0c0,0,0,0,0,0c-1.3-1.4-2.1-3.2-2.1-5.2
		c0-2.1,0.9-4,2.2-5.4C8,5.4,9.9,4.6,12,4.6c0.9,0,1.8,0.2,2.6,0.5h0c0.1,0,0.1,0,0.2,0c0.3,0,0.5-0.2,0.5-0.5
		C15.3,4.4,15.1,4.2,14.9,4.1z"/>
	<circle cx="7.5" cy="18.9" r="0.5"/>
	<path d="M10.6,8.1c-0.4-0.4-0.9-0.6-1.4-0.6c-0.5,0-1,0.2-1.4,0.6C7.5,8.4,7.3,8.9,7.3,9.5c0,0.5,0.2,1,0.6,1.4
		c0.4,0.4,0.9,0.6,1.4,0.6c0.5,0,1-0.2,1.4-0.6c0.4-0.4,0.6-0.9,0.6-1.4C11.2,8.9,11,8.4,10.6,8.1z M10,10.2
		c-0.2,0.2-0.4,0.3-0.7,0.3c-0.3,0-0.5-0.1-0.7-0.3C8.3,10,8.2,9.8,8.2,9.5c0-0.3,0.1-0.5,0.3-0.7s0.4-0.3,0.7-0.3
		c0.3,0,0.5,0.1,0.7,0.3s0.3,0.4,0.3,0.7C10.3,9.8,10.1,10,10,10.2z"/>
	<path d="M14.4,7.7l-5.5,8.4c-0.1,0.2-0.1,0.5,0.1,0.7s0.5,0.1,0.7-0.1l5.5-8.4C15.3,8,15.2,7.7,15,7.6S14.5,7.5,14.4,7.7z"/>
	<path d="M16.2,13.5c-0.4-0.4-0.9-0.6-1.4-0.6c-0.5,0-1,0.2-1.4,0.6c-0.4,0.4-0.6,0.9-0.6,1.4c0,0.5,0.2,1,0.6,1.4
		c0.4,0.4,0.9,0.6,1.4,0.6c0.5,0,1-0.2,1.4-0.6c0.4-0.4,0.6-0.9,0.6-1.4C16.7,14.3,16.5,13.8,16.2,13.5z M15.5,15.6
		c-0.2,0.2-0.4,0.3-0.7,0.3c-0.3,0-0.5-0.1-0.7-0.3s-0.3-0.4-0.3-0.7c0-0.3,0.1-0.5,0.3-0.7c0.2-0.2,0.4-0.3,0.7-0.3
		c0.3,0,0.5,0.1,0.7,0.3c0.2,0.2,0.3,0.4,0.3,0.7C15.8,15.2,15.7,15.4,15.5,15.6z"/>
	<path d="M22.9,12.2c0-0.2,0.2-0.4,0.4-0.7c0.4-0.5,0.7-0.9,0.6-1.5c-0.1-0.6-0.6-0.9-1.1-1.1c-0.3-0.2-0.6-0.3-0.6-0.5
		c0-0.1,0.1-0.5,0.2-0.8c0.2-0.5,0.4-1.1,0.1-1.6c-0.3-0.5-0.9-0.6-1.4-0.7c-0.3-0.1-0.7-0.1-0.8-0.2c-0.1-0.1-0.1-0.4-0.1-0.8
		c0-0.6,0-1.2-0.4-1.5c-0.4-0.4-1-0.3-1.6-0.2c-0.3,0.1-0.7,0.1-0.8,0.1c-0.1-0.1-0.2-0.4-0.3-0.7C17,1.5,16.8,1,16.2,0.8
		c-0.5-0.2-1,0.1-1.5,0.4c-0.3,0.2-0.6,0.3-0.8,0.3c-0.1,0-0.4-0.3-0.6-0.6C13,0.5,12.6,0,12,0c-0.6,0-1,0.5-1.4,0.9
		c-0.2,0.3-0.5,0.5-0.6,0.6c-0.1,0-0.5-0.1-0.8-0.3c-0.5-0.3-1-0.6-1.5-0.4C7.2,1,7,1.5,6.8,2.1C6.7,2.4,6.6,2.7,6.5,2.8
		C6.4,2.8,6,2.8,5.7,2.7C5.1,2.6,4.6,2.5,4.2,2.9C3.7,3.2,3.7,3.8,3.7,4.4c0,0.3,0,0.7-0.1,0.8C3.6,5.3,3.2,5.3,2.9,5.4
		C2.3,5.5,1.8,5.6,1.5,6c-0.3,0.5-0.1,1,0.1,1.6c0.1,0.3,0.2,0.7,0.2,0.8c0,0.1-0.3,0.3-0.6,0.5C0.6,9.1,0.1,9.4,0,10
		c-0.1,0.5,0.3,1,0.6,1.5c0.2,0.3,0.4,0.6,0.4,0.7c0,0.2-0.2,0.4-0.4,0.7c-0.4,0.5-0.7,0.9-0.6,1.5c0.1,0.6,0.6,0.9,1.1,1.1
		c0.3,0.2,0.6,0.3,0.6,0.5c0,0.1-0.1,0.5-0.2,0.8c-0.2,0.5-0.4,1.1-0.1,1.6c0.3,0.5,0.9,0.6,1.4,0.7c0.3,0.1,0.7,0.1,0.8,0.2
		c0.1,0.1,0.1,0.4,0.1,0.8c0,0.6,0,1.2,0.4,1.5c0.4,0.4,1,0.3,1.6,0.2c0.3-0.1,0.7-0.1,0.8-0.1c0.1,0.1,0.2,0.4,0.3,0.7
		c0.2,0.5,0.4,1.1,0.9,1.3c0.5,0.2,1-0.1,1.5-0.4c0.3-0.2,0.6-0.3,0.8-0.3c0.1,0,0.4,0.3,0.6,0.6c0.4,0.4,0.8,0.9,1.4,0.9
		c0.6,0,1-0.5,1.4-0.9c0.2-0.3,0.5-0.5,0.6-0.6c0.1,0,0.5,0.1,0.8,0.3c0.5,0.3,1,0.6,1.5,0.4c0.5-0.2,0.7-0.7,0.9-1.3
		c0.1-0.3,0.2-0.6,0.3-0.7c0.1-0.1,0.4,0,0.8,0.1c0.6,0.1,1.1,0.2,1.6-0.2c0.4-0.4,0.4-0.9,0.4-1.5c0-0.3,0-0.7,0.1-0.8
		c0.1-0.1,0.4-0.2,0.8-0.2c0.6-0.1,1.1-0.2,1.4-0.7c0.3-0.5,0.1-1-0.1-1.6c-0.1-0.3-0.2-0.7-0.2-0.8c0-0.1,0.3-0.3,0.6-0.5
		c0.5-0.3,1-0.6,1.1-1.1c0.1-0.5-0.3-1-0.6-1.5C23.1,12.6,22.9,12.3,22.9,12.2z M23.1,14.2c0,0.1-0.3,0.3-0.7,0.5
		c-0.4,0.3-0.9,0.5-1.1,1c-0.2,0.5,0,0.9,0.2,1.4c0.1,0.3,0.2,0.7,0.2,0.8c-0.1,0.1-0.4,0.2-0.8,0.2c-0.5,0.1-1,0.2-1.3,0.5
		c-0.3,0.4-0.3,0.9-0.3,1.4c0,0.4,0,0.7-0.1,0.8c-0.1,0.1-0.4,0-0.8-0.1c-0.5-0.1-1-0.2-1.4,0.1c-0.4,0.2-0.6,0.7-0.8,1.2
		c-0.1,0.3-0.2,0.7-0.3,0.7c-0.1,0-0.4-0.1-0.7-0.3c-0.5-0.3-0.9-0.5-1.4-0.4c-0.5,0.1-0.8,0.5-1.1,0.9c-0.2,0.3-0.5,0.6-0.6,0.6
		c-0.1,0-0.4-0.3-0.6-0.6c-0.3-0.4-0.7-0.8-1.1-0.9c-0.5-0.1-0.9,0.2-1.4,0.4c-0.3,0.2-0.6,0.4-0.7,0.3c-0.1,0-0.2-0.4-0.3-0.7
		c-0.2-0.5-0.3-1-0.8-1.2c-0.4-0.2-0.9-0.2-1.4-0.1c-0.4,0.1-0.7,0.1-0.8,0.1c-0.1-0.1-0.1-0.4-0.1-0.8c0-0.5,0-1-0.3-1.4
		c-0.3-0.4-0.8-0.4-1.3-0.5c-0.4-0.1-0.7-0.1-0.8-0.2c-0.1-0.1,0.1-0.4,0.2-0.8c0.2-0.5,0.3-1,0.2-1.4c-0.2-0.4-0.6-0.7-1.1-1
		c-0.3-0.2-0.6-0.4-0.7-0.5c0-0.1,0.2-0.4,0.4-0.7C1.7,13.1,2,12.7,2,12.2c0-0.5-0.3-0.9-0.7-1.3c-0.2-0.3-0.5-0.6-0.4-0.7
		C1,10,1.3,9.9,1.6,9.7c0.4-0.3,0.9-0.5,1.1-1c0.2-0.5,0-0.9-0.2-1.4C2.4,6.9,2.2,6.6,2.3,6.5c0.1-0.1,0.4-0.2,0.8-0.2
		c0.5-0.1,1-0.2,1.3-0.5c0.3-0.4,0.3-0.9,0.3-1.4c0-0.4,0-0.7,0.1-0.8c0.1-0.1,0.4,0,0.8,0.1c0.5,0.1,1,0.2,1.4-0.1
		c0.4-0.2,0.6-0.7,0.8-1.2C7.9,2,8,1.7,8.1,1.7c0.1,0,0.4,0.1,0.7,0.3c0.5,0.3,0.9,0.5,1.4,0.4c0.5-0.1,0.8-0.5,1.1-0.9
		C11.6,1.2,11.9,1,12,1c0.1,0,0.4,0.3,0.6,0.6c0.3,0.4,0.7,0.8,1.1,0.9c0.5,0.1,0.9-0.2,1.4-0.4c0.3-0.2,0.6-0.4,0.7-0.3
		c0.1,0,0.2,0.4,0.3,0.7c0.2,0.5,0.3,1,0.8,1.2c0.4,0.2,0.9,0.2,1.4,0.1c0.4-0.1,0.7-0.1,0.8-0.1c0.1,0.1,0.1,0.4,0.1,0.8
		c0,0.5,0,1,0.3,1.4c0.3,0.4,0.8,0.4,1.3,0.5c0.4,0.1,0.7,0.1,0.8,0.2c0.1,0.1-0.1,0.4-0.2,0.8c-0.2,0.5-0.3,1-0.2,1.4
		c0.2,0.4,0.6,0.7,1.1,1c0.3,0.2,0.6,0.4,0.7,0.5c0,0.1-0.2,0.4-0.4,0.7c-0.3,0.4-0.7,0.8-0.7,1.3c0,0.5,0.3,0.9,0.7,1.3
		C22.8,13.8,23.1,14.1,23.1,14.2z"/>
</g>
</svg>
