<?xml version="1.0" encoding="utf-8"?>
<!-- Generator: Adobe Illustrator 22.1.0, SVG Export Plug-In . SVG Version: 6.00 Build 0)  -->
<svg version="1.1" id="Слой_1" xmlns="http://www.w3.org/2000/svg" xmlns:xlink="http://www.w3.org/1999/xlink" x="0px" y="0px"
	 viewBox="0 0 24 24" style="enable-background:new 0 0 24 24;" xml:space="preserve">
<g>
	<g>
		<path d="M24,11.3C23.9,11.3,23.9,11.3,24,11.3c-0.1-0.1-0.1-0.1-0.1-0.2c0,0,0,0,0,0c0,0,0,0,0,0c0,0,0,0,0,0l-2.2-1.3
			C21.8,9.5,22,9.1,22,8.7c0-0.6-0.3-1.1-0.9-1.4l-3.7-1.8l0.4-1.1l0.3-0.1c0.1,0.1,0.3,0.1,0.5,0.1c0.1,0,0.2,0,0.3,0l3.9-1.1
			C23.5,3,24,2.4,24,1.6C24,0.7,23.3,0,22.4,0h-0.5c-0.4,0-0.7,0.1-1,0.4l-2.8,2.2c-0.2,0.2-0.3,0.5-0.4,0.7l-0.4,0.2
			c-0.1,0.1-0.2,0.1-0.2,0.3L16.6,5l-1.4-0.7C14.1,3.7,12.7,4,12,4.9l-4.3,5.1l-7.3,2c0,0,0,0-0.1,0c0,0,0,0,0,0c0,0,0,0,0,0
			c-0.1,0-0.1,0.1-0.2,0.2c0,0,0,0,0,0C0,12.3,0,12.4,0,12.5c0,0,0,0,0,0v7c0,0.2,0.1,0.3,0.3,0.4l7,4C7.3,24,7.4,24,7.5,24
			c0,0,0.1,0,0.1,0l16-5c0.2-0.1,0.4-0.3,0.4-0.5v-7c0,0,0,0,0,0C24,11.4,24,11.4,24,11.3z M21.5,1.1C21.6,1,21.8,1,21.9,1h0.5
			C22.7,1,23,1.3,23,1.6c0,0.3-0.2,0.5-0.5,0.6l-3.6,1c0,0,0,0,0,0c0,0,0,0,0-0.1L21.5,1.1z M12.7,5.6C13.1,5.2,13.5,5,14,5
			c0.3,0,0.5,0.1,0.7,0.2l1.5,0.7l-0.1,0.3l-4.9,2.9c-0.2,0.1-0.3,0.4-0.2,0.7c0.1,0.2,0.3,0.2,0.4,0.2c0.1,0,0.2,0,0.3-0.1l5-3
			c0.1-0.1,0.2-0.1,0.2-0.2l0.1-0.3l3.6,1.8C20.9,8.2,21,8.4,21,8.7c0,0.3-0.2,0.5-0.4,0.6l-0.2,0.1c0,0,0,0,0,0L6.9,12.6L12.7,5.6z
			 M7,22.6l-6-3.4v-5.8l6,3.4V22.6z M7.6,16l-5.8-3.3l4.8-1.3l-1.5,1.8c-0.1,0.2-0.2,0.4,0,0.6C5.2,13.9,5.3,14,5.5,14
			c0,0,0.1,0,0.1,0l1.7-0.4l1.4,0.9c0.1,0,0.2,0.1,0.3,0.1c0.2,0,0.3-0.1,0.4-0.2c0.1-0.2,0.1-0.5-0.2-0.7l-0.6-0.4l1.9-0.5l1.1,0.7
			c0.1,0,0.2,0.1,0.3,0.1c0.2,0,0.3-0.1,0.4-0.2c0.1-0.2,0.1-0.5-0.2-0.7L12,12.4l1.9-0.5l0.9,0.5c0.1,0,0.2,0.1,0.3,0.1
			c0.2,0,0.3-0.1,0.4-0.2c0.1-0.2,0.1-0.5-0.2-0.7l1.9-0.5l0.6,0.3c0.1,0,0.2,0.1,0.3,0.1c0.2,0,0.3-0.1,0.4-0.2
			c0.1-0.2,0.1-0.3,0-0.5l1.9-0.5l1.9,1.1L7.6,16z M23,18.1L8,22.8v-6l15-4.7V18.1z"/>
	</g>
</g>
</svg>
