<?xml version="1.0" encoding="utf-8"?>
<!-- Generator: Adobe Illustrator 22.1.0, SVG Export Plug-In . SVG Version: 6.00 Build 0)  -->
<svg version="1.1" id="Слой_1" xmlns="http://www.w3.org/2000/svg" xmlns:xlink="http://www.w3.org/1999/xlink" x="0px" y="0px"
	 viewBox="0 0 24 24" style="enable-background:new 0 0 24 24;" xml:space="preserve">
<g>
	<g>
		<path d="M22.7,12.1H12.4v-1.9c0-0.3-0.2-0.5-0.5-0.5s-0.5,0.2-0.5,0.5v1.9H1.2c-0.3,0-0.5,0.2-0.5,0.5v1.9c0,0.3,0.2,0.5,0.5,0.5
			h7.4l2.8,2.8v3.1c-1.3,0.2-2.2,1.3-2.2,2.6c0,0.3,0.2,0.5,0.5,0.5h4.4c0.3,0,0.5-0.2,0.5-0.5c0-1.3-1-2.4-2.2-2.6v-3.1l2.8-2.8
			h7.4c0.3,0,0.5-0.2,0.5-0.5v-1.9C23.2,12.3,23,12.1,22.7,12.1z M10,14.9h1.5v1.5L10,14.9z M13.6,23h-3.3c0.2-0.7,0.9-1.3,1.7-1.3
			S13.4,22.3,13.6,23z M12.4,16.4v-1.5h1.5L12.4,16.4z M22.2,14L22.2,14H1.7V13h20.5L22.2,14L22.2,14z"/>
	</g>
</g>
<g>
	<g>
		<path d="M12,8.2c-0.3,0-0.5,0.2-0.5,0.5v0.1c0,0.3,0.2,0.5,0.5,0.5s0.5-0.2,0.5-0.5V8.7C12.4,8.4,12.2,8.2,12,8.2z"/>
	</g>
</g>
<g>
	<g>
		<path d="M18.6,2.1C16.8,0.7,14.4,0,11.9,0S7.1,0.7,5.3,2.1C3.5,3.4,2.5,5.2,2.5,7.2c0,0.3,0.2,0.5,0.5,0.5h5.6h6.8h5.6
			c0.3,0,0.5-0.2,0.5-0.5C21.4,5.2,20.4,3.4,18.6,2.1z M8,6.7H3.4C3.7,4,6.3,1.8,9.8,1.2C8.8,2.3,8.1,4.3,8,6.7z M9,6.7
			c0.1-1.5,0.4-2.9,0.9-4c0.6-1.1,1.3-1.7,2-1.7c0.7,0,1.4,0.6,2,1.7c0.6,1.1,0.9,2.5,0.9,4H9z M15.8,6.7c-0.1-2.3-0.7-4.3-1.7-5.5
			c3.5,0.7,6.1,2.9,6.3,5.5H15.8z"/>
	</g>
</g>
</svg>
