<?xml version="1.0" encoding="utf-8"?>
<!-- Generator: Adobe Illustrator 22.1.0, SVG Export Plug-In . SVG Version: 6.00 Build 0)  -->
<svg version="1.1" id="Слой_1" xmlns="http://www.w3.org/2000/svg" xmlns:xlink="http://www.w3.org/1999/xlink" x="0px" y="0px"
	 viewBox="0 0 24 24" style="enable-background:new 0 0 24 24;" xml:space="preserve">
<g>
	<g>
		<path d="M23,0H1C0.7,0,0.5,0.2,0.5,0.5v19.4c0,2.3,1.9,4.2,4.2,4.2c1.6,0,3-0.9,3.7-2.2C9,23.1,10.4,24,12,24s3-0.9,3.7-2.2
			c0.7,1.3,2.1,2.2,3.7,2.2c2.3,0,4.2-1.9,4.2-4.2V0.5C23.5,0.2,23.3,0,23,0z M7.9,19.8c0,1.8-1.4,3.2-3.2,3.2s-3.2-1.4-3.2-3.2
			v-3.8c0.8,0.9,1.9,1.5,3.2,1.5s2.4-0.6,3.2-1.5V19.8z M7.9,13.4L7.9,13.4c0,1.8-1.4,3.2-3.2,3.2s-3.2-1.4-3.2-3.2v0V9.6
			c0.8,0.9,1.9,1.5,3.2,1.5s2.4-0.6,3.2-1.5V13.4z M7.9,6.9c0,1.8-1.4,3.2-3.2,3.2S1.5,8.7,1.5,6.9V1h6.4V6.9z M15.2,19.8
			c0,1.8-1.4,3.2-3.2,3.2s-3.2-1.4-3.2-3.2v-3.8c0.8,0.9,1.9,1.5,3.2,1.5s2.4-0.6,3.2-1.5V19.8z M15.2,13.4L15.2,13.4
			c0,1.8-1.4,3.2-3.2,3.2s-3.2-1.4-3.2-3.2v0V9.6c0.8,0.9,1.9,1.5,3.2,1.5s2.4-0.6,3.2-1.5V13.4z M15.2,6.9c0,1.8-1.4,3.2-3.2,3.2
			S8.8,8.7,8.8,6.9V1h6.4V6.9z M22.6,19.8c0,1.8-1.4,3.2-3.2,3.2c-1.8,0-3.2-1.4-3.2-3.2v-3.8c0.8,0.9,1.9,1.5,3.2,1.5
			s2.4-0.6,3.2-1.5L22.6,19.8L22.6,19.8z M22.6,13.4L22.6,13.4c0,1.8-1.4,3.2-3.2,3.2c-1.8,0-3.2-1.4-3.2-3.2v0V9.6
			c0.8,0.9,1.9,1.5,3.2,1.5s2.4-0.6,3.2-1.5L22.6,13.4L22.6,13.4z M22.6,6.9c0,1.8-1.4,3.2-3.2,3.2c-1.8,0-3.2-1.4-3.2-3.2V1h6.4
			V6.9z"/>
	</g>
</g>
<g>
	<g>
		<path d="M21.7,1.5c-0.3,0-0.5,0.2-0.5,0.5v2.2c0,0.3,0.2,0.5,0.5,0.5c0.3,0,0.5-0.2,0.5-0.5V2C22.1,1.7,21.9,1.5,21.7,1.5z"/>
	</g>
</g>
<g>
	<g>
		<path d="M21.7,5.1c-0.3,0-0.5,0.2-0.5,0.5v0.5c0,0.3,0.2,0.5,0.5,0.5c0.3,0,0.5-0.2,0.5-0.5V5.6C22.1,5.3,21.9,5.1,21.7,5.1z"/>
	</g>
</g>
</svg>
