<?xml version="1.0" encoding="utf-8"?>
<!-- Generator: Adobe Illustrator 22.1.0, SVG Export Plug-In . SVG Version: 6.00 Build 0)  -->
<svg version="1.1" id="Слой_1" xmlns="http://www.w3.org/2000/svg" xmlns:xlink="http://www.w3.org/1999/xlink" x="0px" y="0px"
	 viewBox="0 0 24 24" style="enable-background:new 0 0 24 24;" xml:space="preserve">
<g>
	<g>
		<path d="M11.5,17.9H8.3c-0.3,0-0.5,0.2-0.5,0.5s0.2,0.5,0.5,0.5h3.2c0.3,0,0.5-0.2,0.5-0.5S11.8,17.9,11.5,17.9z"/>
	</g>
</g>
<g>
	<g>
		<path d="M12.8,17.9c-0.6,0-0.6,0.9,0,0.9C13.4,18.8,13.4,17.9,12.8,17.9z"/>
	</g>
</g>
<g>
	<g>
		<path d="M22,16.9c1.3-1.5,2-3.5,2-5.5C24,6.8,20.2,3,15.6,3c-4.6,0-8.4,3.8-8.4,8.4c0,1.6,0.4,3.1,1.2,4.4h-2
			c-0.3,0-0.6-0.3-0.6-0.6v-2c0-0.3-0.2-0.5-0.5-0.5H1.8H0.5C0.2,12.8,0,13,0,13.3c0,0.3,0.2,0.5,0.5,0.5h0.9v3.9
			c0,1.8,1.5,3.3,3.3,3.3h14.2c1,0,1.9-0.4,2.5-1.2C22,19,22.2,18,22,17L22,16.9z M20.6,19.1c-0.4,0.5-1.1,0.8-1.8,0.8H4.6
			c-1.3,0-2.3-1-2.3-2.3v-3.9h2.5v1.5c0,0.8,0.7,1.5,1.5,1.5h2.9c0.1,0,0.3,0,0.4-0.1c0.1-0.1,0.1-0.1,0.1-0.2l1.5-5.2
			c0.3-1,0.8-1.8,1.6-2.4c0.7-0.5,1.4-0.8,2.3-0.9v1.6c-0.8,0.2-1.5,1-1.5,1.9c0,1.1,0.9,1.9,1.9,1.9s1.9-0.9,1.9-1.9
			c0-0.9-0.6-1.7-1.5-1.9V8c2,0.2,3.6,1.7,4,3.7l1,5.2l0.1,0.4C21.2,17.9,21.1,18.6,20.6,19.1z M15.6,10.4c0.5,0,1,0.4,1,1
			c0,0.5-0.4,1-1,1c-0.5,0-1-0.4-1-1C14.6,10.9,15,10.4,15.6,10.4z M20.9,11.5C20.5,8.9,18.2,7,15.6,7c-1.2,0-2.3,0.4-3.3,1.1
			c-1,0.7-1.6,1.7-2,2.9l-1.2,4.2c-0.7-1.1-1-2.4-1-3.8c0-4.1,3.4-7.5,7.5-7.5c4.1,0,7.5,3.4,7.5,7.5c0,1.5-0.5,3-1.3,4.2L20.9,11.5
			z"/>
	</g>
</g>
</svg>
