<?xml version="1.0" encoding="utf-8"?>
<!-- Generator: Adobe Illustrator 22.1.0, SVG Export Plug-In . SVG Version: 6.00 Build 0)  -->
<svg version="1.1" id="Слой_1" xmlns="http://www.w3.org/2000/svg" xmlns:xlink="http://www.w3.org/1999/xlink" x="0px" y="0px"
	 viewBox="0 0 24 24" style="enable-background:new 0 0 24 24;" xml:space="preserve">
<g>
	<path d="M0-234L0-234L0-234L0-234L0-234L0-234L0-234L0-234L0-234L0-234z M0-234L0-234L0-234L0-234L0-234z"/>
</g>
<g>
	<path d="M23.7,22.3l-5.8-5.8c1.4-1.7,2.3-4,2.3-6.4C20.2,4.5,15.7,0,10.1,0C4.5,0,0,4.5,0,10.1s4.5,10.1,10.1,10.1
		c2.4,0,4.7-0.9,6.4-2.3l5.8,5.8c0.4,0.4,1,0.4,1.4,0C24.1,23.3,24.1,22.7,23.7,22.3z M10.1,18.2c-4.5,0-8.1-3.6-8.1-8.1
		S5.6,2,10.1,2c4.5,0,8.1,3.6,8.1,8.1S14.6,18.2,10.1,18.2z"/>
</g>
</svg>
