<?xml version="1.0" encoding="utf-8"?>
<!-- Generator: Adobe Illustrator 22.1.0, SVG Export Plug-In . SVG Version: 6.00 Build 0)  -->
<svg version="1.1" id="Слой_1" xmlns="http://www.w3.org/2000/svg" xmlns:xlink="http://www.w3.org/1999/xlink" x="0px" y="0px"
	 viewBox="0 0 24 24" style="enable-background:new 0 0 24 24;" xml:space="preserve">
<g>
	<g>
		<g>
			<circle cx="12" cy="18.1" r="0.9"/>
			<path d="M14.6,5.5H9.4C9.1,5.5,8.9,5.7,8.9,6v9.9c0,0.3,0.2,0.5,0.5,0.5h5.2c0.3,0,0.5-0.2,0.5-0.5V6C15.1,5.7,14.9,5.5,14.6,5.5
				z"/>
			<path d="M12,0C5.4,0,0,5.4,0,12s5.4,12,12,12s12-5.4,12-12S18.6,0,12,0z M16.7,17.9c0,0.9-0.7,1.7-1.7,1.7H9
				c-0.9,0-1.7-0.7-1.7-1.7V6c0-0.9,0.7-1.7,1.7-1.7h6c0.9,0,1.7,0.7,1.7,1.7V17.9z"/>
		</g>
	</g>
</g>
</svg>
