<?xml version="1.0" encoding="utf-8"?>
<!-- Generator: Adobe Illustrator 22.1.0, SVG Export Plug-In . SVG Version: 6.00 Build 0)  -->
<svg version="1.1" id="Слой_1" xmlns="http://www.w3.org/2000/svg" xmlns:xlink="http://www.w3.org/1999/xlink" x="0px" y="0px"
	 viewBox="0 0 24 24" style="enable-background:new 0 0 24 24;" xml:space="preserve">
<g>
	<path d="M0-234L0-234L0-234L0-234L0-234L0-234L0-234L0-234L0-234L0-234z M0-234L0-234L0-234L0-234L0-234z"/>
</g>
<path d="M22.9-231.8c0-0.2,0.2-0.4,0.4-0.7c0.4-0.5,0.7-0.9,0.6-1.5c-0.1-0.6-0.6-0.9-1.1-1.1c-0.3-0.2-0.6-0.3-0.6-0.5
	c0-0.1,0.1-0.5,0.2-0.8c0.2-0.5,0.4-1.1,0.1-1.6c-0.3-0.5-0.9-0.6-1.4-0.7c-0.3-0.1-0.7-0.1-0.8-0.2c-0.1-0.1-0.1-0.4-0.1-0.8
	c0-0.6,0-1.2-0.4-1.5c-0.4-0.4-1-0.3-1.6-0.2c-0.3,0.1-0.7,0.1-0.8,0.1c-0.1-0.1-0.2-0.4-0.3-0.7c-0.2-0.5-0.4-1.1-0.9-1.3
	c-0.5-0.2-1,0.1-1.5,0.4c-0.3,0.2-0.6,0.3-0.8,0.3c-0.1,0-0.4-0.3-0.6-0.6c-0.4-0.4-0.8-0.9-1.4-0.9c-0.6,0-1,0.5-1.4,0.9
	c-0.2,0.3-0.5,0.5-0.6,0.6c-0.1,0-0.5-0.1-0.8-0.3c-0.5-0.3-1-0.6-1.5-0.4c-0.5,0.2-0.7,0.7-0.9,1.3c-0.1,0.3-0.2,0.6-0.3,0.7
	c-0.1,0.1-0.4,0-0.8-0.1c-0.6-0.1-1.1-0.2-1.6,0.2c-0.4,0.4-0.4,0.9-0.4,1.5c0,0.3,0,0.7-0.1,0.8c-0.1,0.1-0.4,0.2-0.8,0.2
	c-0.6,0.1-1.1,0.2-1.4,0.7c-0.3,0.5-0.1,1,0.1,1.6c0.1,0.3,0.2,0.7,0.2,0.8c0,0.1-0.3,0.3-0.6,0.5c-0.5,0.3-1,0.6-1.1,1.1
	c-0.1,0.5,0.3,1,0.6,1.5c0.2,0.3,0.4,0.6,0.4,0.7c0,0.2-0.2,0.4-0.4,0.7c-0.4,0.5-0.7,0.9-0.6,1.5c0.1,0.6,0.6,0.9,1.1,1.1
	c0.3,0.2,0.6,0.3,0.6,0.5c0,0.1-0.1,0.5-0.2,0.8c-0.2,0.5-0.4,1.1-0.1,1.6c0.3,0.5,0.9,0.6,1.4,0.7c0.3,0.1,0.7,0.1,0.8,0.2
	c0.1,0.1,0.1,0.4,0.1,0.8c0,0.6,0,1.2,0.4,1.5c0.4,0.4,1,0.3,1.6,0.2c0.3-0.1,0.7-0.1,0.8-0.1s0.2,0.4,0.3,0.7
	c0.2,0.5,0.4,1.1,0.9,1.3c0.5,0.2,1-0.1,1.5-0.4c0.3-0.2,0.6-0.3,0.8-0.3c0.1,0,0.4,0.3,0.6,0.6c0.4,0.4,0.8,0.9,1.4,0.9
	c0.6,0,1-0.5,1.4-0.9c0.2-0.3,0.5-0.5,0.6-0.6c0.1,0,0.5,0.1,0.8,0.3c0.5,0.3,1,0.6,1.5,0.4c0.5-0.2,0.7-0.7,0.9-1.3
	c0.1-0.3,0.2-0.6,0.3-0.7c0.1-0.1,0.4,0,0.8,0.1c0.6,0.1,1.1,0.2,1.6-0.2c0.4-0.4,0.4-0.9,0.4-1.5c0-0.3,0-0.7,0.1-0.8
	c0.1-0.1,0.4-0.2,0.8-0.2c0.6-0.1,1.1-0.2,1.4-0.7c0.3-0.5,0.1-1-0.1-1.6c-0.1-0.3-0.2-0.7-0.2-0.8c0-0.1,0.3-0.3,0.6-0.5
	c0.5-0.3,1-0.6,1.1-1.1c0.1-0.5-0.3-1-0.6-1.5C23.1-231.4,22.9-231.7,22.9-231.8z M23.1-229.8c0,0.1-0.3,0.3-0.7,0.5
	c-0.4,0.3-0.9,0.5-1.1,1c-0.2,0.5,0,0.9,0.2,1.4c0.1,0.3,0.2,0.7,0.2,0.8c-0.1,0.1-0.4,0.2-0.8,0.2c-0.5,0.1-1,0.2-1.3,0.5
	c-0.3,0.4-0.3,0.9-0.3,1.4c0,0.4,0,0.7-0.1,0.8c-0.1,0.1-0.4,0-0.8-0.1c-0.5-0.1-1-0.2-1.4,0.1c-0.4,0.2-0.6,0.7-0.8,1.2
	c-0.1,0.3-0.2,0.7-0.3,0.7c-0.1,0-0.4-0.1-0.7-0.3c-0.5-0.3-0.9-0.5-1.4-0.4c-0.5,0.1-0.8,0.5-1.1,0.9c-0.2,0.3-0.5,0.6-0.6,0.6
	c-0.1,0-0.4-0.3-0.6-0.6c-0.3-0.4-0.7-0.8-1.1-0.9c-0.5-0.1-0.9,0.2-1.4,0.4c-0.3,0.2-0.6,0.4-0.7,0.3c-0.1,0-0.2-0.4-0.3-0.7
	c-0.2-0.5-0.3-1-0.8-1.2c-0.4-0.2-0.9-0.2-1.4-0.1c-0.4,0.1-0.7,0.1-0.8,0.1c-0.1-0.1-0.1-0.4-0.1-0.8c0-0.5,0-1-0.3-1.4
	c-0.3-0.4-0.8-0.4-1.3-0.5c-0.4-0.1-0.7-0.1-0.8-0.2c-0.1-0.1,0.1-0.4,0.2-0.8c0.2-0.5,0.3-1,0.2-1.4c-0.2-0.4-0.6-0.7-1.1-1
	c-0.3-0.2-0.6-0.4-0.7-0.5c0-0.1,0.2-0.4,0.4-0.7c0.3-0.4,0.7-0.8,0.7-1.3c0-0.5-0.3-0.9-0.7-1.3c-0.2-0.3-0.5-0.6-0.4-0.7
	c0-0.1,0.3-0.3,0.7-0.5c0.4-0.3,0.9-0.5,1.1-1c0.2-0.5,0-0.9-0.2-1.4c-0.1-0.3-0.2-0.7-0.2-0.8c0.1-0.1,0.4-0.2,0.8-0.2
	c0.5-0.1,1-0.2,1.3-0.5c0.3-0.4,0.3-0.9,0.3-1.4c0-0.4,0-0.7,0.1-0.8c0.1-0.1,0.4,0,0.8,0.1c0.5,0.1,1,0.2,1.4-0.1
	c0.4-0.2,0.6-0.7,0.8-1.2c0.1-0.3,0.2-0.7,0.3-0.7c0.1,0,0.4,0.1,0.7,0.3c0.5,0.3,0.9,0.5,1.4,0.4c0.5-0.1,0.8-0.5,1.1-0.9
	c0.2-0.3,0.5-0.6,0.6-0.6c0.1,0,0.4,0.3,0.6,0.6c0.3,0.4,0.7,0.8,1.1,0.9c0.5,0.1,0.9-0.2,1.4-0.4c0.3-0.2,0.6-0.4,0.7-0.3
	c0.1,0,0.2,0.4,0.3,0.7c0.2,0.5,0.3,1,0.8,1.2c0.4,0.2,0.9,0.2,1.4,0.1c0.4-0.1,0.7-0.1,0.8-0.1c0.1,0.1,0.1,0.4,0.1,0.8
	c0,0.5,0,1,0.3,1.4c0.3,0.4,0.8,0.4,1.3,0.5c0.4,0.1,0.7,0.1,0.8,0.2c0.1,0.1-0.1,0.4-0.2,0.8c-0.2,0.5-0.3,1-0.2,1.4
	c0.2,0.4,0.6,0.7,1.1,1c0.3,0.2,0.6,0.4,0.7,0.5c0,0.1-0.2,0.4-0.4,0.7c-0.3,0.4-0.7,0.8-0.7,1.3c0,0.5,0.3,0.9,0.7,1.3
	C22.8-230.2,23.1-229.9,23.1-229.8z"/>
<g>
	<path d="M0,12.3c0,0.5,0.4,0.9,0.8,1.1L9.6,16l0.3,6.1c0,0.2,0.2,0.5,0.4,0.5c0.1,0,0.1,0,0.2,0c0.2,0,0.3-0.1,0.5-0.2l3.1-3.4
		l4.4,3c0.2,0.1,0.4,0.2,0.7,0.2c0.6,0,1-0.4,1.2-0.9L24,2.7c0-0.2,0-0.4-0.2-0.6C23.6,2,23.4,2,23.2,2L0.7,11.2
		C0.3,11.4,0,11.8,0,12.3z M11.1,20.6l-0.2-3.8l2.3,1.6L11.1,20.6z M19.2,21.1l-8-5.6L22.4,4.6L19.2,21.1z M21.2,4.2L10,14.9
		l-8.8-2.7L21.2,4.2z"/>
</g>
</svg>
