<?xml version="1.0" encoding="utf-8"?>
<!-- Generator: Adobe Illustrator 22.1.0, SVG Export Plug-In . SVG Version: 6.00 Build 0)  -->
<svg version="1.1" id="Слой_1" xmlns="http://www.w3.org/2000/svg" xmlns:xlink="http://www.w3.org/1999/xlink" x="0px" y="0px"
	 viewBox="0 0 24 24" style="enable-background:new 0 0 24 24;" xml:space="preserve">
<g>
	<g>
		<path d="M23.1,2.2l-1.4-1.4c-0.9-0.9-2.5-1-3.5-0.1l-2.5,2.2c0,0-0.1,0.1-0.1,0.1L13,7l-1.6,0.5c-0.1,0-0.2,0.2-0.3,0.3
			s0,0.3,0.1,0.4l4.3,4.3c0.1,0.1,0.2,0.1,0.3,0.1c0,0,0.1,0,0.1,0c0.1,0,0.2-0.1,0.3-0.3l0.5-1.6L21,8.3c0,0,0.1-0.1,0.1-0.1
			l2.1-2.5C24.1,4.7,24,3.1,23.1,2.2z M22.6,5.2l-2.1,2.4l-4.2,2.6c-0.1,0.1-0.1,0.1-0.2,0.2l-0.4,1.1l-1-1c0,0,0,0,0,0l-1.4-1.4
			c0,0,0,0,0,0l-1-1l1.1-0.4c0.1,0,0.2-0.1,0.2-0.2l2.5-4.2l2.5-2.2c0.7-0.6,1.8-0.6,2.4,0.1l1.4,1.4C23.2,3.4,23.2,4.5,22.6,5.2z"
			/>
	</g>
</g>
<g>
	<g>
		<path d="M21.9,16.4c-1.2-1.2-3-1.6-4.5-1.1L8.7,6.6C9.3,5,8.8,3.3,7.6,2.1c-1.3-1.3-3.1-1.7-4.8-1C2.7,1.1,2.6,1.2,2.6,1.4
			c0,0.1,0,0.3,0.1,0.4l2.6,2.6L3.6,6L1,3.5C0.9,3.4,0.7,3.3,0.6,3.3c-0.1,0-0.2,0.1-0.3,0.2c-0.6,1.7-0.3,3.5,1,4.8
			c1.2,1.2,3,1.6,4.5,1.1l3.2,3.2l-4,4l-2.6,1.4c-0.1,0-0.1,0.1-0.2,0.2l-1.2,2.3c-0.1,0.2,0,0.3,0.1,0.5l1.4,1.4
			c0.1,0.1,0.2,0.1,0.3,0.1c0.1,0,0.1,0,0.2,0l2.3-1.2c0.1,0,0.1-0.1,0.2-0.2l1.4-2.6l4-4l3.4,3.4c-0.5,1.6-0.1,3.4,1.1,4.5
			c0.9,0.9,2,1.3,3.2,1.3c0.5,0,1.1-0.1,1.6-0.3c0.1-0.1,0.2-0.2,0.2-0.3c0-0.1,0-0.3-0.1-0.4L18,20.4l1.7-1.7l2.6,2.6
			c0.1,0.1,0.2,0.1,0.4,0.1c0.1,0,0.2-0.1,0.3-0.2C23.6,19.5,23.2,17.6,21.9,16.4z M6.5,18.2C6.4,18.3,6.4,18.3,6.5,18.2L5,20.8
			l-1.9,1l-1-1l1-1.9l2.5-1.4c0,0,0.1,0,0.1-0.1l4.1-4.1l0.9,0.9L6.5,18.2z M22.4,20.2L20,17.8c-0.2-0.2-0.4-0.2-0.6,0l-2.3,2.3
			C17,20.2,17,20.3,17,20.4c0,0.1,0,0.2,0.1,0.3l2.4,2.4c-1.2,0.2-2.4-0.1-3.3-1c-1-1-1.4-2.6-0.8-3.9c0.1-0.2,0-0.3-0.1-0.4l-9-9
			C6.2,8.7,6.1,8.6,6,8.6c0,0-0.1,0-0.1,0C4.5,9.2,2.9,8.8,1.9,7.8C1,6.9,0.6,5.7,0.9,4.5l2.4,2.4c0.2,0.2,0.4,0.2,0.6,0l2.3-2.3
			c0.2-0.2,0.2-0.4,0-0.6L3.8,1.6c1.2-0.2,2.4,0.1,3.3,1c1,1,1.4,2.6,0.8,3.9C7.8,6.7,7.9,6.9,8,7l9,9c0.1,0.1,0.3,0.2,0.4,0.1
			c1.4-0.5,2.9-0.2,3.9,0.8C22.2,17.8,22.6,19.1,22.4,20.2z"/>
	</g>
</g>
</svg>
