<?xml version="1.0" encoding="utf-8"?>
<!-- Generator: Adobe Illustrator 22.1.0, SVG Export Plug-In . SVG Version: 6.00 Build 0)  -->
<svg version="1.1" id="Слой_1" xmlns="http://www.w3.org/2000/svg" xmlns:xlink="http://www.w3.org/1999/xlink" x="0px" y="0px"
	 viewBox="0 0 24 24" style="enable-background:new 0 0 24 24;" xml:space="preserve">
<g>
	<g>
		<path d="M20.5,15.5c-1.3-1.3-2.9-2.3-4.6-2.9c1.8-1.3,3-3.3,3-5.7C18.9,3.1,15.8,0,12,0S5.1,3.1,5.1,6.9c0,2.4,1.2,4.5,3,5.7
			c-1.7,0.6-3.3,1.6-4.6,2.9C1.2,17.8,0,20.8,0,24h1.9c0-5.6,4.5-10.1,10.1-10.1S22.1,18.4,22.1,24H24C24,20.8,22.8,17.8,20.5,15.5z
			 M12,12c-2.8,0-5.1-2.3-5.1-5.1S9.2,1.9,12,1.9s5.1,2.3,5.1,5.1S14.8,12,12,12z"/>
	</g>
</g>
</svg>
