<?xml version="1.0" encoding="utf-8"?>
<!-- Generator: Adobe Illustrator 22.1.0, SVG Export Plug-In . SVG Version: 6.00 Build 0)  -->
<svg version="1.1" id="Слой_1" xmlns="http://www.w3.org/2000/svg" xmlns:xlink="http://www.w3.org/1999/xlink" x="0px" y="0px"
	 viewBox="0 0 24 24" style="enable-background:new 0 0 24 24;" xml:space="preserve">
<g>
	<path d="M0,5.7c1.9,0,3.8,0,5.7,0c0-1.9,0-3.8,0-5.7C3.8,0,1.9,0,0,0C0,1.9,0,3.8,0,5.7z"/>
	<path d="M9.2,5.7c1.9,0,3.8,0,5.7,0c0-1.9,0-3.8,0-5.7c-1.9,0-3.8,0-5.7,0C9.2,1.9,9.2,3.8,9.2,5.7z"/>
	<path d="M18.3,0c0,1.9,0,3.8,0,5.7c1.9,0,3.8,0,5.7,0c0-1.9,0-3.8,0-5.7C22.1,0,20.2,0,18.3,0z"/>
	<path d="M5.7,9.2c-1.9,0-3.8,0-5.7,0c0,1.9,0,3.8,0,5.7c1.9,0,3.8,0,5.7,0C5.7,12.9,5.7,11,5.7,9.2z"/>
	<path d="M18.3,14.8c1.9,0,3.8,0,5.7,0c0-1.9,0-3.8,0-5.7c-1.9,0-3.8,0-5.7,0C18.3,11.1,18.3,13,18.3,14.8z"/>
	<path d="M0,24c1.9,0,3.8,0,5.7,0c0-1.9,0-3.8,0-5.7c-1.9,0-3.8,0-5.7,0C0,20.2,0,22.1,0,24z"/>
	<path d="M9.2,24c1.9,0,3.8,0,5.7,0c0-1.9,0-3.8,0-5.7c-1.9,0-3.8,0-5.7,0C9.2,20.2,9.2,22.1,9.2,24z"/>
	<path d="M18.3,24c1.9,0,3.8,0,5.7,0c0-1.9,0-3.8,0-5.7c-1.9,0-3.8,0-5.7,0C18.3,20.2,18.3,22.1,18.3,24z"/>
	<path d="M9.2,9.2c0,1.9,0,3.8,0,5.7c1.9,0,3.8,0,5.7,0c0-1.9,0-3.8,0-5.7C12.9,9.2,11,9.2,9.2,9.2z"/>
</g>
</svg>
