<?xml version="1.0" encoding="utf-8"?>
<!-- Generator: Adobe Illustrator 22.1.0, SVG Export Plug-In . SVG Version: 6.00 Build 0)  -->
<svg version="1.1" id="Слой_1" xmlns="http://www.w3.org/2000/svg" xmlns:xlink="http://www.w3.org/1999/xlink" x="0px" y="0px"
	 viewBox="0 0 24 24" style="enable-background:new 0 0 24 24;" xml:space="preserve">
<path d="M24,11.7c0-1.8-1.4-3.3-3.2-3.4v0c0-0.7-0.5-1.2-1.2-1.2h-2.4V4.3c0-1.1-0.9-2-2-2c-1.1,0-2,0.9-2,2v2.8h-2.4
	c-0.7,0-1.2,0.5-1.2,1.2v3.3L4.9,9.1C5,8.2,4.7,7.3,4.1,6.7c-0.2-0.2-0.4-0.2-0.6,0l-3.4,3.4c-0.2,0.2-0.2,0.4,0,0.6
	c0.7,0.7,1.8,1,2.8,0.7l6.7,5.9v3c0,0.7,0.5,1.2,1.2,1.2h8.8c0.7,0,1.2-0.5,1.2-1.2v-5.2C22.6,15,24,13.5,24,11.7z M14,4.3
	c0-0.7,0.5-1.2,1.2-1.2c0.7,0,1.2,0.5,1.2,1.2v2.8H14V4.3z M10.8,7.9h8.8c0.2,0,0.4,0.2,0.4,0.4v10h-9.6v-10
	C10.4,8.1,10.6,7.9,10.8,7.9z M1,10.4l2.8-2.8c0.5,0.8,0.4,1.8-0.3,2.5C2.8,10.8,1.8,10.9,1,10.4z M3.7,11c0.1-0.1,0.3-0.2,0.4-0.3
	c0.2-0.2,0.4-0.5,0.6-0.8l5,2.7v3.7L3.7,11z M19.6,20.7h-8.8c-0.2,0-0.4-0.2-0.4-0.4v-1.2H20v1.2C20,20.5,19.8,20.7,19.6,20.7z
	 M20.8,14.3V9.1c1.4,0.1,2.4,1.2,2.4,2.6C23.2,13.1,22.2,14.2,20.8,14.3z"/>
</svg>
