<?xml version="1.0" encoding="utf-8"?>
<!-- Generator: Adobe Illustrator 22.1.0, SVG Export Plug-In . SVG Version: 6.00 Build 0)  -->
<svg version="1.1" id="Слой_1" xmlns="http://www.w3.org/2000/svg" xmlns:xlink="http://www.w3.org/1999/xlink" x="0px" y="0px"
	 viewBox="0 0 24 24" style="enable-background:new 0 0 24 24;" xml:space="preserve">
<path d="M16,12.6c-1.1-1.7-2.9-2.7-4.9-2.7c-2,0-3.8,1-4.9,2.7l-2.6,4.1C3.2,17.4,3,18.1,3,18.9c0.1,0.8,0.4,1.5,0.9,2.2
	c0.5,0.6,1.2,1,2,1.2c0.8,0.2,1.6,0.1,2.3-0.2l0,0c1.8-0.8,4-0.8,5.8,0c0.5,0.2,1,0.3,1.5,0.3c0.3,0,0.6,0,0.8-0.1
	c0.8-0.2,1.5-0.6,2-1.2c0.5-0.6,0.8-1.4,0.9-2.2c0.1-0.8-0.1-1.6-0.6-2.3L16,12.6z M17.3,20.2c-0.7,0.8-1.7,1-2.7,0.6
	c-1.1-0.5-2.3-0.7-3.5-0.7c-1.2,0-2.4,0.2-3.5,0.7l0,0c-0.9,0.4-2,0.1-2.6-0.6c-0.7-0.8-0.7-1.9-0.2-2.7l2.6-4.1
	c0.8-1.3,2.2-2,3.7-2s2.9,0.8,3.7,2l2.6,4.1C18,18.3,17.9,19.4,17.3,20.2z"/>
<path d="M4.3,12.6c0.8-0.3,1.4-0.9,1.7-1.8c0.3-0.8,0.3-1.7-0.1-2.5C5.6,7.5,5,6.8,4.3,6.4C3.5,6,2.6,5.9,1.8,6.2
	c-1.6,0.6-2.3,2.5-1.6,4.3c0.5,1.4,1.8,2.3,3.1,2.3C3.7,12.8,4,12.7,4.3,12.6z M1.6,10c-0.4-1,0-2.1,0.8-2.5
	c0.2-0.1,0.3-0.1,0.5-0.1c0.3,0,0.5,0.1,0.8,0.2c0.4,0.2,0.8,0.7,1,1.2c0.2,0.5,0.2,1.1,0.1,1.6c-0.2,0.4-0.5,0.8-0.8,0.9l0,0
	C3,11.6,2,11,1.6,10z"/>
<path d="M9.4,9.4c1.9,0,3.5-1.8,3.5-4c0-2.2-1.6-4-3.5-4c-1.9,0-3.5,1.8-3.5,4C5.8,7.6,7.4,9.4,9.4,9.4z M9.4,2.8
	c1.2,0,2.1,1.2,2.1,2.6c0,1.4-1,2.6-2.1,2.6S7.2,6.9,7.2,5.4C7.2,4,8.2,2.8,9.4,2.8z"/>
<path d="M15.4,10.4L15.4,10.4c0.3,0.1,0.6,0.1,0.9,0.1c1.4,0,2.8-1,3.3-2.6C20,7,20,6.1,19.6,5.2c-0.4-0.9-1-1.5-1.9-1.8
	c-0.8-0.3-1.8-0.2-2.6,0.3c-0.8,0.5-1.4,1.2-1.7,2.1C12.9,7.8,13.8,9.9,15.4,10.4z M14.9,6.4c0.2-0.6,0.6-1.1,1.1-1.4
	c0.5-0.3,0.9-0.3,1.4-0.2c0.4,0.1,0.8,0.5,1,1c0.2,0.5,0.2,1.1,0,1.7c-0.4,1.2-1.5,1.9-2.5,1.6C14.9,8.8,14.5,7.5,14.9,6.4z"/>
<path d="M22.9,10L22.9,10c-1.3-1-3.3-0.6-4.5,1c-1.1,1.5-0.9,3.6,0.4,4.6c0.5,0.4,1.1,0.5,1.7,0.5c1,0,2.1-0.5,2.8-1.5
	C24.4,13,24.2,10.9,22.9,10z M22.1,13.7c-0.7,0.9-1.8,1.2-2.5,0.7c-0.7-0.5-0.8-1.7-0.1-2.6c0.4-0.6,1.1-0.9,1.7-0.9
	c0.3,0,0.6,0.1,0.8,0.3C22.7,11.6,22.8,12.8,22.1,13.7z"/>
</svg>
